<svg width="210" height="108" viewBox="0 0 210 108" fill="none" xmlns="http://www.w3.org/2000/svg">
<path opacity="0.4" d="M125.927 83.0196L135.786 44.7113C136.936 40.2499 135.614 35.513 132.323 32.2839L104.081 4.59234C100.79 1.36327 96.0253 0.137732 91.5914 1.37704L53.4759 11.9937C49.0351 13.233 45.5926 16.7444 44.4428 21.2059L34.5903 59.5141C33.4405 63.9756 34.7624 68.7125 38.0535 71.9416L66.3027 99.6331C69.5937 102.862 74.3582 104.088 78.7921 102.848L116.901 92.2318C121.342 90.9924 124.784 87.4811 125.927 83.0196Z" fill="url(#paint0_linear)"/>
<path opacity="0.4" d="M24.2835 40.2154L5.94184 52.4501C2.34097 54.853 0.296122 58.9977 0.571523 63.3146L1.99672 85.3192C2.27901 89.643 4.84024 93.4848 8.72339 95.3988L28.4903 105.169C32.3734 107.09 36.9864 106.787 40.5873 104.384L58.929 92.1491C62.5298 89.7462 64.5747 85.6015 64.2993 81.2845L62.8741 59.28C62.5918 54.9562 60.0306 51.1144 56.1474 49.2003L36.3805 39.4305C32.4974 37.5096 27.8913 37.8125 24.2835 40.2154Z" fill="url(#paint1_linear)"/>
<path d="M95.7707 40.959C95.6743 40.8626 95.4884 40.7249 95.2267 40.5528C94.9651 40.3807 94.6415 40.2154 94.2697 40.0502C93.891 39.8849 93.4848 39.7472 93.0442 39.6371C92.6036 39.52 92.156 39.465 91.7016 39.465C90.8961 39.465 90.2902 39.6164 89.8909 39.9125C89.4915 40.2085 89.2919 40.6285 89.2919 41.1656C89.2919 41.4754 89.3676 41.737 89.5122 41.9436C89.6636 42.1501 89.8771 42.3291 90.1594 42.4875C90.4417 42.6458 90.7997 42.7835 91.2334 42.9144C91.6672 43.0452 92.1629 43.176 92.7344 43.3206C93.4711 43.5202 94.1458 43.7337 94.7448 43.9609C95.3507 44.1881 95.8602 44.4704 96.2801 44.8146C96.7001 45.1589 97.0237 45.5651 97.2509 46.0402C97.4781 46.5152 97.5883 47.1005 97.5883 47.7958C97.5883 48.6014 97.4368 49.2968 97.127 49.8682C96.8172 50.4397 96.411 50.9079 95.8946 51.2659C95.3782 51.617 94.7792 51.8787 94.1045 52.0439C93.4297 52.2091 92.7275 52.2918 91.9839 52.2918C90.8479 52.2918 89.7256 52.1196 88.6171 51.7823C87.5086 51.4449 86.5172 50.9561 85.6359 50.3364L86.9372 47.8027C87.068 47.9335 87.2952 48.0988 87.6257 48.3053C87.9562 48.5119 88.3555 48.7184 88.8099 48.925C89.2643 49.1315 89.7669 49.3037 90.3246 49.4482C90.8754 49.5928 91.4469 49.6617 92.0252 49.6617C93.6432 49.6617 94.4487 49.1453 94.4487 48.1057C94.4487 47.7821 94.3592 47.4998 94.1733 47.2726C93.9874 47.0454 93.7258 46.8457 93.3884 46.6736C93.0511 46.5015 92.638 46.35 92.156 46.2054C91.6741 46.0608 91.137 45.9093 90.538 45.7372C89.8151 45.5376 89.1886 45.3241 88.6516 45.09C88.1214 44.8559 87.6739 44.5805 87.3227 44.2569C86.9647 43.9402 86.7031 43.5684 86.5241 43.1484C86.3451 42.7285 86.2556 42.2327 86.2556 41.6475C86.2556 40.8833 86.4002 40.2017 86.6824 39.6027C86.9647 39.0037 87.3572 38.5079 87.8667 38.1086C88.3693 37.7093 88.9545 37.4132 89.6223 37.2067C90.2902 37.0001 91.0062 36.8969 91.7705 36.8969C92.8376 36.8969 93.8153 37.0621 94.7104 37.3995C95.6054 37.7299 96.3834 38.1293 97.0513 38.5837L95.7707 40.959Z" fill="#593EBF"/>
<path d="M109.906 52.1127H107.055V45.8542C107.055 44.973 106.89 44.3258 106.566 43.9058C106.243 43.4858 105.781 43.2793 105.182 43.2793C104.928 43.2793 104.659 43.3343 104.37 43.4514C104.088 43.5684 103.819 43.7268 103.564 43.9333C103.31 44.1399 103.076 44.3809 102.862 44.67C102.649 44.9523 102.49 45.269 102.394 45.6064V52.1196H99.5436V36.5732H102.394V43.0245C102.807 42.3016 103.365 41.7439 104.067 41.3514C104.769 40.959 105.547 40.7662 106.401 40.7662C107.124 40.7662 107.716 40.8901 108.171 41.138C108.625 41.3859 108.976 41.7163 109.238 42.1295C109.499 42.5426 109.671 43.0107 109.768 43.534C109.864 44.0573 109.919 44.6012 109.919 45.152V52.1127H109.906Z" fill="#593EBF"/>
<path d="M117.548 52.3262C116.639 52.3262 115.827 52.1678 115.097 51.858C114.367 51.5482 113.761 51.1213 113.259 50.5912C112.756 50.061 112.37 49.4483 112.095 48.7529C111.827 48.0575 111.689 47.3277 111.689 46.5634C111.689 45.7854 111.827 45.0418 112.095 44.3465C112.364 43.6511 112.749 43.0383 113.259 42.5082C113.761 41.978 114.374 41.5511 115.097 41.2413C115.82 40.9315 116.639 40.7731 117.548 40.7731C118.457 40.7731 119.269 40.9315 119.985 41.2413C120.701 41.5511 121.314 41.978 121.817 42.5082C122.319 43.0383 122.705 43.6511 122.973 44.3465C123.242 45.0418 123.38 45.7785 123.38 46.5634C123.38 47.3277 123.242 48.0575 122.973 48.7529C122.705 49.4483 122.319 50.061 121.824 50.5912C121.328 51.1213 120.715 51.5482 119.992 51.858C119.269 52.1678 118.457 52.3262 117.548 52.3262ZM114.629 46.5566C114.629 47.0523 114.705 47.5067 114.849 47.906C115.001 48.3122 115.2 48.6634 115.469 48.9594C115.73 49.2555 116.04 49.4896 116.398 49.6479C116.749 49.8132 117.135 49.8958 117.548 49.8958C117.961 49.8958 118.34 49.8132 118.698 49.6479C119.056 49.4827 119.359 49.2555 119.627 48.9594C119.889 48.6634 120.095 48.3053 120.247 47.8922C120.398 47.4791 120.467 47.0247 120.467 46.529C120.467 46.0471 120.392 45.5995 120.247 45.1864C120.095 44.7733 119.889 44.4222 119.627 44.1193C119.366 43.8232 119.056 43.5891 118.698 43.4308C118.34 43.2724 117.961 43.1829 117.548 43.1829C117.135 43.1829 116.749 43.2655 116.398 43.4376C116.04 43.6098 115.737 43.8439 115.469 44.1399C115.207 44.436 115.001 44.794 114.849 45.2071C114.705 45.6271 114.629 46.0746 114.629 46.5566Z" fill="#593EBF"/>
<path d="M128.702 52.3262C127.552 52.3262 126.677 51.9544 126.085 51.2177C125.486 50.481 125.19 49.3862 125.19 47.9404V40.959H128.041V47.3276C128.041 49.042 128.66 49.9026 129.893 49.9026C130.444 49.9026 130.981 49.7374 131.497 49.4C132.013 49.0695 132.44 48.56 132.764 47.8784V40.959H135.614V48.8354C135.614 49.1315 135.669 49.3449 135.773 49.4758C135.876 49.6066 136.055 49.6754 136.296 49.6892V52.1127C136.014 52.1678 135.773 52.2022 135.58 52.216C135.387 52.2298 135.215 52.2366 135.057 52.2366C134.547 52.2366 134.134 52.1196 133.81 51.8855C133.494 51.6514 133.301 51.3278 133.246 50.9147L133.184 50.0197C132.688 50.7839 132.048 51.3623 131.27 51.7409C130.492 52.1196 129.638 52.3262 128.702 52.3262Z" fill="#593EBF"/>
<path d="M138.43 36.5732H141.281V48.5394C141.281 48.9525 141.377 49.2692 141.577 49.4964C141.776 49.7236 142.059 49.8338 142.43 49.8338C142.603 49.8338 142.788 49.8062 142.995 49.7512C143.202 49.6961 143.394 49.6203 143.58 49.5377L143.966 51.7065C143.58 51.8924 143.133 52.0301 142.623 52.1334C142.114 52.2298 141.652 52.2849 141.239 52.2849C140.344 52.2849 139.656 52.0508 139.167 51.5688C138.678 51.0869 138.43 50.419 138.43 49.5377V36.5732Z" fill="#593EBF"/>
<path d="M149.818 52.3262C149.054 52.3262 148.345 52.1747 147.691 51.8787C147.037 51.5826 146.479 51.1695 146.011 50.6462C145.543 50.123 145.178 49.5102 144.916 48.8079C144.654 48.1057 144.524 47.3483 144.524 46.5428C144.524 45.7303 144.647 44.9799 144.895 44.2845C145.143 43.5891 145.487 42.9763 145.928 42.4531C146.369 41.9298 146.892 41.5167 147.505 41.2207C148.118 40.9246 148.785 40.7731 149.508 40.7731C150.335 40.7731 151.071 40.9728 151.732 41.3721C152.393 41.7715 152.91 42.2878 153.274 42.9281V36.587H156.125V48.8493C156.125 49.1453 156.173 49.3587 156.276 49.4896C156.373 49.6204 156.545 49.6892 156.786 49.703V52.1265C156.29 52.2229 155.884 52.278 155.574 52.278C155.065 52.278 154.645 52.1472 154.321 51.8924C153.997 51.6377 153.811 51.3003 153.77 50.8941L153.708 50.1918C153.295 50.901 152.737 51.438 152.035 51.796C151.333 52.1541 150.589 52.3262 149.818 52.3262ZM150.562 49.8958C150.83 49.8958 151.106 49.8476 151.395 49.7581C151.677 49.6686 151.939 49.5378 152.18 49.3656C152.421 49.1935 152.634 48.9938 152.827 48.7666C153.02 48.5394 153.164 48.2916 153.261 48.0231V45.3585C153.144 45.0487 152.985 44.7596 152.779 44.4979C152.572 44.2363 152.338 44.0091 152.076 43.8163C151.815 43.6235 151.539 43.4721 151.243 43.355C150.947 43.238 150.665 43.1829 150.383 43.1829C149.956 43.1829 149.563 43.2724 149.198 43.4583C148.834 43.6442 148.531 43.892 148.269 44.2156C148.014 44.5324 147.815 44.9041 147.67 45.3104C147.525 45.7166 147.457 46.1503 147.457 46.591C147.457 47.0591 147.532 47.4929 147.691 47.8922C147.849 48.2916 148.062 48.6358 148.331 48.9319C148.599 49.2279 148.923 49.462 149.302 49.6341C149.694 49.8132 150.107 49.8958 150.562 49.8958Z" fill="#593EBF"/>
<path d="M164.318 52.1127V37.0001H167.258V52.1127H164.318Z" fill="#593EBF"/>
<path d="M179.155 37.0001H181.751L187.5 52.1127H184.477L183.073 48.3466H177.792L176.408 52.1127H173.385L179.155 37.0001ZM182.543 46.2811L180.456 40.3394L178.288 46.2811H182.543Z" fill="#593EBF"/>
<path d="M192.973 52.3261C192.037 52.3261 191.121 52.1747 190.226 51.8786C189.331 51.5826 188.567 51.1557 187.927 50.598L188.994 48.8079C189.675 49.2899 190.336 49.6548 190.984 49.9026C191.631 50.1505 192.271 50.2744 192.911 50.2744C193.476 50.2744 193.924 50.1711 194.254 49.9577C194.578 49.7443 194.743 49.4413 194.743 49.042C194.743 48.6427 194.55 48.3535 194.171 48.1676C193.786 47.9817 193.166 47.7683 192.299 47.5273C191.576 47.3276 190.956 47.1348 190.447 46.9558C189.937 46.7768 189.524 46.5634 189.214 46.3293C188.904 46.0952 188.677 45.8267 188.533 45.5238C188.388 45.2208 188.319 44.8559 188.319 44.429C188.319 43.8645 188.429 43.3481 188.65 42.8937C188.87 42.4393 189.18 42.0537 189.579 41.737C189.978 41.4203 190.44 41.1724 190.97 41.0003C191.5 40.8282 192.078 40.7455 192.705 40.7455C193.545 40.7455 194.323 40.8626 195.06 41.1104C195.796 41.3583 196.464 41.7439 197.07 42.2809L195.92 44.0022C195.349 43.5753 194.805 43.2655 194.268 43.0658C193.731 42.8661 193.207 42.7697 192.684 42.7697C192.202 42.7697 191.796 42.8661 191.472 43.0658C191.149 43.2655 190.984 43.5822 190.984 44.0228C190.984 44.2225 191.025 44.3877 191.101 44.5117C191.176 44.6356 191.3 44.7526 191.472 44.849C191.645 44.9454 191.865 45.0418 192.14 45.1382C192.416 45.2277 192.76 45.3241 193.173 45.4274C193.937 45.627 194.598 45.8267 195.142 46.0264C195.686 46.226 196.134 46.4532 196.485 46.708C196.829 46.9627 197.091 47.2588 197.249 47.5893C197.414 47.9197 197.497 48.326 197.497 48.7941C197.497 49.8889 197.091 50.7495 196.285 51.3829C195.48 52.0163 194.364 52.3261 192.973 52.3261Z" fill="#593EBF"/>
<path d="M206.957 52.1127L203.721 47.2794L202.185 48.7942V52.1127H199.335V36.5732H202.185V46.0057L206.654 40.9797H209.697L205.545 45.7028L209.993 52.1127H206.957Z" fill="#593EBF"/>
<path d="M86.765 74.1448V59.0322H96.9204V61.6072H89.7049V65.5041H95.7087V67.8864H89.7049V74.1448H86.765Z" fill="#593EBF"/>
<path d="M103.138 74.3582C102.229 74.3582 101.416 74.1999 100.687 73.8901C99.9567 73.5802 99.3508 73.1534 98.8482 72.6232C98.3456 72.0931 97.9601 71.4803 97.6847 70.7849C97.4161 70.0895 97.2784 69.3597 97.2784 68.5955C97.2784 67.8175 97.4161 67.0739 97.6847 66.3785C97.9532 65.6831 98.3387 65.0703 98.8482 64.5402C99.3508 64.0101 99.9636 63.5832 100.687 63.2734C101.409 62.9635 102.229 62.8052 103.138 62.8052C104.046 62.8052 104.859 62.9635 105.575 63.2734C106.291 63.5832 106.904 64.0101 107.406 64.5402C107.909 65.0703 108.294 65.6831 108.57 66.3785C108.838 67.0739 108.976 67.8106 108.976 68.5955C108.976 69.3597 108.838 70.0895 108.57 70.7849C108.301 71.4803 107.916 72.0931 107.42 72.6232C106.924 73.1534 106.312 73.5802 105.589 73.8901C104.866 74.1999 104.04 74.3582 103.138 74.3582ZM100.218 68.5886C100.218 69.0843 100.294 69.5387 100.439 69.9381C100.59 70.3443 100.79 70.6954 101.058 70.9915C101.32 71.2875 101.63 71.5216 101.988 71.68C102.339 71.8452 102.724 71.9278 103.138 71.9278C103.551 71.9278 103.929 71.8452 104.287 71.68C104.639 71.5147 104.948 71.2875 105.21 70.9915C105.472 70.6954 105.678 70.3374 105.83 69.9243C105.981 69.5112 106.05 69.0568 106.05 68.5611C106.05 68.0791 105.974 67.6316 105.83 67.2185C105.678 66.8054 105.472 66.4542 105.21 66.1513C104.948 65.8552 104.639 65.6212 104.287 65.4628C103.929 65.2976 103.551 65.2149 103.138 65.2149C102.724 65.2149 102.346 65.2976 101.988 65.4697C101.63 65.6418 101.327 65.8759 101.058 66.172C100.797 66.468 100.59 66.826 100.439 67.2391C100.294 67.6591 100.218 68.1066 100.218 68.5886Z" fill="#593EBF"/>
<path d="M117.527 65.4559C116.66 65.4697 115.889 65.6349 115.207 65.9585C114.525 66.2752 114.037 66.7572 113.741 67.3975V74.1448H110.89V62.9911H113.506V65.3733C113.706 64.9877 113.94 64.6435 114.209 64.3405C114.477 64.0376 114.766 63.7691 115.083 63.5419C115.393 63.3147 115.71 63.1425 116.033 63.0186C116.35 62.9016 116.66 62.8396 116.956 62.8396C117.114 62.8396 117.231 62.8396 117.307 62.8396C117.383 62.8396 117.458 62.8465 117.534 62.8603V65.4559H117.527Z" fill="#593EBF"/>
<path d="M134.492 72.4373C133.287 73.6422 131.883 74.248 130.278 74.248C129.287 74.248 128.351 74.0484 127.476 73.6491C126.602 73.2497 125.844 72.7058 125.197 72.0104C124.55 71.315 124.04 70.4957 123.662 69.5525C123.283 68.6092 123.097 67.5902 123.097 66.4955C123.097 65.4628 123.283 64.4851 123.662 63.5694C124.04 62.6537 124.557 61.855 125.218 61.1665C125.879 60.478 126.657 59.9341 127.552 59.5279C128.447 59.1217 129.418 58.922 130.471 58.922C131.889 58.922 133.108 59.218 134.12 59.817C135.132 60.416 135.897 61.2147 136.406 62.2199L134.217 63.8379C133.831 63.0874 133.301 62.5091 132.612 62.1166C131.924 61.7242 131.173 61.5176 130.368 61.5176C129.728 61.5176 129.142 61.6554 128.612 61.9239C128.082 62.1924 127.628 62.5642 127.249 63.0324C126.87 63.5005 126.581 64.0376 126.375 64.6503C126.168 65.2631 126.065 65.9034 126.065 66.585C126.065 67.2942 126.182 67.9551 126.409 68.5748C126.636 69.1944 126.946 69.7315 127.345 70.179C127.745 70.6334 128.213 70.9914 128.764 71.2531C129.308 71.5147 129.9 71.6455 130.54 71.6455C132 71.6455 133.322 70.957 134.499 69.58V68.5128H131.456V66.3716H136.929V74.1448H134.499V72.4373H134.492Z" fill="#593EBF"/>
<path d="M144.331 74.3583C143.436 74.3583 142.63 74.2068 141.907 73.897C141.184 73.5941 140.565 73.1741 140.055 72.6508C139.546 72.1275 139.153 71.5148 138.871 70.8194C138.589 70.124 138.458 69.3942 138.458 68.63C138.458 67.8382 138.595 67.0877 138.864 66.3854C139.132 65.6832 139.525 65.0635 140.034 64.5334C140.544 64.0032 141.164 63.5763 141.9 63.2665C142.637 62.9567 143.449 62.7983 144.358 62.7983C145.267 62.7983 146.079 62.9567 146.795 63.2665C147.512 63.5763 148.124 63.9963 148.627 64.5196C149.13 65.0429 149.515 65.6556 149.777 66.351C150.038 67.0464 150.169 67.7693 150.169 68.5198C150.169 68.7057 150.162 68.8847 150.155 69.0499C150.148 69.2221 150.128 69.3598 150.1 69.4768H141.48C141.522 69.9175 141.632 70.3099 141.797 70.6473C141.969 70.9915 142.189 71.2807 142.458 71.5217C142.726 71.7626 143.029 71.9485 143.374 72.0725C143.718 72.2033 144.069 72.2652 144.441 72.2652C145.005 72.2652 145.542 72.1275 146.045 71.8521C146.548 71.5767 146.892 71.2118 147.078 70.7574L149.529 71.439C149.116 72.2928 148.462 72.9882 147.56 73.539C146.651 74.0829 145.577 74.3583 144.331 74.3583ZM147.222 67.6316C147.154 66.7917 146.844 66.1238 146.3 65.6212C145.756 65.1186 145.088 64.8638 144.31 64.8638C143.924 64.8638 143.566 64.9327 143.236 65.0635C142.899 65.2012 142.609 65.3871 142.355 65.6281C142.1 65.8691 141.886 66.1582 141.728 66.5025C141.563 66.8467 141.466 67.2185 141.439 67.6316H147.222Z" fill="#593EBF"/>
<path d="M162.273 74.1448H159.423V67.8863C159.423 66.9913 159.264 66.3372 158.954 65.931C158.645 65.5179 158.211 65.3113 157.653 65.3113C157.371 65.3113 157.082 65.3664 156.779 65.4834C156.476 65.6005 156.2 65.7588 155.939 65.9654C155.677 66.1719 155.436 66.4129 155.223 66.7021C155.009 66.9844 154.851 67.3011 154.755 67.6385V74.1517H151.904V62.998H154.479V65.0635C154.892 64.3543 155.484 63.8035 156.269 63.4042C157.054 63.0048 157.929 62.8052 158.906 62.8052C159.602 62.8052 160.166 62.936 160.607 63.1907C161.048 63.4455 161.385 63.7829 161.626 64.1891C161.867 64.6022 162.032 65.0703 162.128 65.5936C162.218 66.1169 162.266 66.6539 162.266 67.1909V74.1448H162.273Z" fill="#593EBF"/>
<path d="M169.385 74.3582C168.621 74.3582 167.912 74.2067 167.258 73.9106C166.604 73.6146 166.046 73.2015 165.578 72.6782C165.11 72.155 164.745 71.5422 164.483 70.8399C164.221 70.1377 164.091 69.3803 164.091 68.5748C164.091 67.7623 164.215 67.0119 164.462 66.3165C164.71 65.6211 165.055 65.0083 165.495 64.4851C165.936 63.9618 166.459 63.5487 167.072 63.2526C167.685 62.9566 168.352 62.8051 169.075 62.8051C169.902 62.8051 170.638 63.0048 171.299 63.4041C171.96 63.8034 172.477 64.3198 172.842 64.9601V58.619H175.692V70.8812C175.692 71.1773 175.74 71.3907 175.843 71.5215C175.94 71.6524 176.112 71.7212 176.353 71.735V74.1585C175.857 74.2549 175.451 74.31 175.141 74.31C174.632 74.31 174.212 74.1792 173.888 73.9244C173.564 73.6697 173.379 73.3323 173.337 72.9261L173.275 72.2238C172.862 72.933 172.304 73.47 171.602 73.828C170.9 74.1861 170.149 74.3582 169.385 74.3582ZM170.129 71.9278C170.397 71.9278 170.673 71.8796 170.962 71.7901C171.244 71.7006 171.506 71.5697 171.747 71.3976C171.988 71.2255 172.201 71.0258 172.394 70.7986C172.587 70.5714 172.731 70.3236 172.828 70.055V67.3905C172.711 67.0807 172.552 66.7915 172.346 66.5299C172.139 66.2683 171.905 66.0411 171.644 65.8483C171.382 65.6555 171.106 65.504 170.81 65.387C170.514 65.2699 170.232 65.2149 169.95 65.2149C169.523 65.2149 169.13 65.3044 168.766 65.4903C168.401 65.6762 168.098 65.924 167.836 66.2476C167.574 66.5712 167.382 66.9361 167.237 67.3423C167.093 67.7486 167.024 68.1823 167.024 68.623C167.024 69.0911 167.099 69.5249 167.258 69.9242C167.416 70.3236 167.63 70.6678 167.898 70.9639C168.167 71.2599 168.49 71.494 168.869 71.6661C169.261 71.8451 169.674 71.9278 170.129 71.9278Z" fill="#593EBF"/>
<path d="M183.665 74.3583C182.77 74.3583 181.964 74.2068 181.241 73.897C180.518 73.5941 179.899 73.1741 179.389 72.6508C178.88 72.1275 178.487 71.5148 178.205 70.8194C177.923 70.124 177.792 69.3942 177.792 68.63C177.792 67.8382 177.93 67.0877 178.198 66.3854C178.467 65.6832 178.859 65.0635 179.369 64.5334C179.878 64.0032 180.498 63.5763 181.234 63.2665C181.971 62.9567 182.784 62.7983 183.692 62.7983C184.601 62.7983 185.414 62.9567 186.13 63.2665C186.846 63.5763 187.458 63.9963 187.961 64.5196C188.464 65.0429 188.849 65.6556 189.111 66.351C189.372 67.0464 189.503 67.7693 189.503 68.5198C189.503 68.7057 189.496 68.8847 189.49 69.0499C189.483 69.2221 189.462 69.3598 189.434 69.4768H180.814C180.856 69.9175 180.966 70.3099 181.131 70.6473C181.303 70.9915 181.524 71.2807 181.792 71.5217C182.061 71.7626 182.364 71.9485 182.708 72.0725C183.052 72.2033 183.403 72.2652 183.775 72.2652C184.34 72.2652 184.877 72.1275 185.379 71.8521C185.882 71.5767 186.226 71.2118 186.412 70.7574L188.863 71.439C188.45 72.2928 187.796 72.9882 186.894 73.539C185.992 74.0829 184.918 74.3583 183.665 74.3583ZM186.563 67.6316C186.495 66.7917 186.185 66.1238 185.641 65.6212C185.097 65.1186 184.429 64.8638 183.651 64.8638C183.265 64.8638 182.907 64.9327 182.577 65.0635C182.24 65.2012 181.95 65.3871 181.696 65.6281C181.441 65.8691 181.227 66.1582 181.069 66.5025C180.904 66.8467 180.808 67.2185 180.78 67.6316H186.563Z" fill="#593EBF"/>
<path d="M197.889 65.4559C197.022 65.4697 196.251 65.6349 195.569 65.9585C194.887 66.2821 194.399 66.7572 194.103 67.3975V74.1448H191.252V62.9911H193.868V65.3733C194.068 64.9877 194.302 64.6435 194.571 64.3405C194.839 64.0376 195.128 63.7691 195.445 63.5419C195.755 63.3147 196.072 63.1425 196.395 63.0186C196.719 62.8947 197.022 62.8396 197.318 62.8396C197.476 62.8396 197.593 62.8396 197.669 62.8396C197.745 62.8396 197.82 62.8465 197.896 62.8603V65.4559H197.889Z" fill="#593EBF"/>
<defs>
<linearGradient id="paint0_linear" x1="98.2654" y1="1.30807" x2="55.7116" y2="166.674" gradientUnits="userSpaceOnUse">
<stop stop-color="#FFDD94"/>
<stop offset="0.00253999" stop-color="#FFDD95"/>
<stop offset="0.1925" stop-color="#EED5B6"/>
<stop offset="0.3851" stop-color="#E1CED1"/>
<stop offset="0.5822" stop-color="#D8CAE4"/>
<stop offset="0.7845" stop-color="#D3C7EF"/>
<stop offset="1" stop-color="#D1C6F3"/>
</linearGradient>
<linearGradient id="paint1_linear" x1="4.02487" y1="91.2571" x2="96.5572" y2="29.5244" gradientUnits="userSpaceOnUse">
<stop stop-color="#FFDD94"/>
<stop offset="0.00253999" stop-color="#FFDD95"/>
<stop offset="0.1925" stop-color="#EED5B6"/>
<stop offset="0.3851" stop-color="#E1CED1"/>
<stop offset="0.5822" stop-color="#D8CAE4"/>
<stop offset="0.7845" stop-color="#D3C7EF"/>
<stop offset="1" stop-color="#D1C6F3"/>
</linearGradient>
</defs>
</svg>
