<svg width="1200" height="627" viewBox="0 0 1200 627" fill="none" xmlns="http://www.w3.org/2000/svg">
<g clip-path="url(#clip0)">
<rect width="1200" height="627" fill="url(#paint0_linear)"/>
<path opacity="0.3" d="M89.1709 272.413C92.47 274.549 94.3792 278.282 94.1794 282.207L90.6067 352.377C90.4069 356.302 88.1284 359.822 84.6295 361.611L22.0741 393.602C18.5752 395.391 14.3875 395.178 11.0884 393.043L-47.8943 354.864C-51.1934 352.728 -53.1027 348.995 -52.9028 345.07L-49.3302 274.9C-49.1303 270.975 -46.8518 267.455 -43.3529 265.666L19.2025 233.675C22.7014 231.885 26.8891 232.099 30.1882 234.234L89.1709 272.413Z" fill="#F9F8FF"/>
<path opacity="0.3" d="M1143.17 585.413C1146.47 587.549 1148.38 591.282 1148.18 595.207L1144.61 665.377C1144.41 669.302 1142.13 672.822 1138.63 674.611L1076.07 706.602C1072.58 708.391 1068.39 708.178 1065.09 706.043L1006.11 667.864C1002.81 665.728 1000.9 661.995 1001.1 658.07L1004.67 587.9C1004.87 583.975 1007.15 580.455 1010.65 578.666L1073.2 546.675C1076.7 544.885 1080.89 545.099 1084.19 547.234L1143.17 585.413Z" fill="#F9F8FF"/>
<path opacity="0.3" d="M1027.79 -105.339C1040.7 -114.922 1057.74 -116.89 1072.49 -110.503L1236.84 -39.3453C1251.6 -32.9576 1261.82 -19.1842 1263.67 -3.2135L1284.22 174.697C1286.06 190.667 1279.25 206.409 1266.34 215.992L1122.54 322.745C1109.63 332.328 1092.59 334.297 1077.84 327.909L913.488 256.752C898.734 250.364 888.509 236.591 886.664 220.62L866.113 42.7096C864.268 26.7388 871.084 10.997 883.993 1.41395L1027.79 -105.339Z" fill="#F9F8FF"/>
<path opacity="0.3" d="M181.757 493.224C192.618 481.37 208.977 476.21 224.673 479.688L356.26 508.846C371.956 512.325 384.604 523.912 389.44 539.245L429.982 667.781C434.818 683.114 431.107 699.861 420.246 711.716L329.201 811.094C318.341 822.948 301.981 828.108 286.285 824.63L154.698 795.471C139.002 791.993 126.354 780.405 121.518 765.073L80.9765 636.536C76.1406 621.204 79.8517 604.456 90.712 592.602L181.757 493.224Z" fill="#F9F8FF"/>
<path opacity="0.3" d="M108.57 18.8365C120.121 18.9809 130.717 25.2764 136.367 35.3515C142.017 45.4265 141.863 57.7506 135.962 67.6812C130.062 77.6118 119.312 83.6403 107.762 83.4958C96.2115 83.3514 85.6157 77.0559 79.9656 66.9808C74.3156 56.9058 74.4697 44.5817 80.37 34.6511C86.2702 24.7205 97.0202 18.692 108.57 18.8365Z" fill="#F9F8FF"/>
<path opacity="0.3" d="M411.571 533.836C423.121 533.981 433.717 540.276 439.367 550.351C445.017 560.427 444.863 572.751 438.962 582.681C433.062 592.612 422.312 598.64 410.762 598.496C399.212 598.351 388.616 592.056 382.966 581.981C377.316 571.906 377.47 559.582 383.37 549.651C389.27 539.721 400.02 533.692 411.571 533.836Z" fill="#F9F8FF"/>
<path opacity="0.3" d="M1134.26 513.784C1141.49 513.874 1148.12 517.813 1151.65 524.116C1155.19 530.419 1155.09 538.129 1151.4 544.341C1147.71 550.554 1140.98 554.325 1133.76 554.235C1126.53 554.144 1119.9 550.206 1116.37 543.903C1112.83 537.6 1112.93 529.89 1116.62 523.678C1120.31 517.465 1127.04 513.694 1134.26 513.784Z" fill="#F9F8FF"/>
<path opacity="0.3" d="M565.4 227.93C573.328 228.029 580.601 232.351 584.48 239.266C588.358 246.182 588.252 254.642 584.202 261.459C580.152 268.275 572.773 272.413 564.845 272.314C556.916 272.215 549.643 267.894 545.764 260.978C541.886 254.062 541.992 245.602 546.042 238.786C550.092 231.969 557.471 227.831 565.4 227.93Z" fill="#F9F8FF"/>
<path opacity="0.3" d="M885.4 157.93C893.328 158.029 900.601 162.351 904.48 169.266C908.358 176.182 908.252 184.642 904.202 191.459C900.152 198.275 892.773 202.413 884.845 202.314C876.916 202.215 869.643 197.894 865.764 190.978C861.886 184.062 861.992 175.602 866.042 168.786C870.092 161.969 877.471 157.831 885.4 157.93Z" fill="#F9F8FF"/>
<path opacity="0.8" d="M656.802 392.981L683.563 288.705C686.684 276.561 683.096 263.667 674.163 254.878L597.505 179.5C588.572 170.711 575.64 167.375 563.605 170.748L460.149 199.647C448.095 203.021 438.751 212.579 435.63 224.723L408.888 328.999C405.767 341.143 409.355 354.037 418.288 362.827L494.964 438.204C503.897 446.994 516.829 450.33 528.864 446.956L632.302 418.057C644.356 414.684 653.699 405.126 656.802 392.981Z" fill="url(#paint1_linear)"/>
<path opacity="0.8" d="M380.913 276.467L331.128 309.771C321.354 316.311 315.804 327.593 316.551 339.344L320.42 399.241C321.186 411.011 328.138 421.468 338.678 426.678L392.331 453.272C402.871 458.501 415.392 457.676 425.166 451.135L474.95 417.832C484.724 411.292 490.274 400.009 489.527 388.259L485.658 328.362C484.892 316.592 477.94 306.135 467.4 300.925L413.747 274.331C403.207 269.102 390.705 269.927 380.913 276.467Z" fill="url(#paint2_linear)"/>
<path d="M575.434 279.346C575.159 279.071 574.648 278.698 573.902 278.226C573.194 277.755 572.31 277.304 571.25 276.872C570.228 276.4 569.108 276.008 567.89 275.693C566.672 275.379 565.435 275.222 564.178 275.222C561.938 275.222 560.268 275.635 559.168 276.459C558.068 277.284 557.518 278.442 557.518 279.935C557.518 280.799 557.714 281.525 558.107 282.114C558.539 282.664 559.148 283.155 559.934 283.587C560.72 284.019 561.702 284.412 562.881 284.765C564.099 285.118 565.494 285.491 567.065 285.884C569.108 286.434 570.955 287.023 572.605 287.651C574.295 288.28 575.709 289.065 576.848 290.008C578.027 290.95 578.931 292.089 579.559 293.424C580.188 294.72 580.502 296.33 580.502 298.254C580.502 300.493 580.07 302.417 579.206 304.027C578.381 305.598 577.241 306.874 575.788 307.856C574.373 308.838 572.723 309.564 570.837 310.035C568.99 310.467 567.046 310.683 565.003 310.683C561.859 310.683 558.756 310.212 555.691 309.27C552.626 308.327 549.876 306.992 547.44 305.264L551.035 298.254C551.389 298.608 552.017 299.079 552.921 299.668C553.864 300.218 554.964 300.787 556.221 301.376C557.479 301.926 558.873 302.397 560.406 302.79C561.938 303.183 563.51 303.379 565.12 303.379C569.599 303.379 571.839 301.946 571.839 299.079C571.839 298.176 571.584 297.41 571.073 296.782C570.562 296.153 569.835 295.604 568.892 295.132C567.949 294.661 566.81 294.229 565.474 293.836C564.138 293.444 562.645 293.012 560.995 292.54C558.991 291.991 557.243 291.402 555.75 290.773C554.296 290.106 553.078 289.34 552.096 288.476C551.114 287.573 550.367 286.552 549.856 285.413C549.385 284.235 549.149 282.841 549.149 281.231C549.149 279.11 549.542 277.225 550.328 275.576C551.114 273.926 552.194 272.552 553.569 271.452C554.984 270.353 556.614 269.528 558.461 268.978C560.308 268.389 562.292 268.095 564.413 268.095C567.36 268.095 570.071 268.566 572.546 269.508C575.021 270.412 577.182 271.492 579.029 272.748L575.434 279.346Z" fill="#593EBF"/>
<path d="M613.905 310.212H606.008V292.894C606.008 290.459 605.556 288.672 604.653 287.533C603.749 286.355 602.472 285.766 600.822 285.766C600.115 285.766 599.368 285.923 598.582 286.238C597.796 286.552 597.05 287.003 596.343 287.592C595.636 288.142 594.987 288.81 594.398 289.595C593.809 290.381 593.376 291.245 593.101 292.187V310.212H585.204V267.211H593.101V285.059C594.241 283.057 595.773 281.525 597.698 280.465C599.663 279.365 601.824 278.815 604.181 278.815C606.185 278.815 607.815 279.169 609.073 279.876C610.33 280.543 611.312 281.447 612.019 282.585C612.727 283.724 613.218 285.02 613.493 286.473C613.768 287.926 613.905 289.418 613.905 290.95V310.212Z" fill="#593EBF"/>
<path d="M634.356 310.801C631.842 310.801 629.583 310.369 627.579 309.505C625.575 308.641 623.866 307.483 622.452 306.03C621.076 304.538 620.016 302.829 619.269 300.905C618.523 298.981 618.149 296.958 618.149 294.838C618.149 292.678 618.523 290.636 619.269 288.712C620.016 286.787 621.076 285.099 622.452 283.646C623.866 282.153 625.575 280.975 627.579 280.111C629.583 279.247 631.842 278.815 634.356 278.815C636.871 278.815 639.11 279.247 641.075 280.111C643.079 280.975 644.768 282.153 646.143 283.646C647.558 285.099 648.638 286.787 649.385 288.712C650.131 290.636 650.504 292.678 650.504 294.838C650.504 296.958 650.131 298.981 649.385 300.905C648.638 302.829 647.577 304.538 646.202 306.03C644.827 307.483 643.138 308.641 641.134 309.505C639.13 310.369 636.871 310.801 634.356 310.801ZM626.282 294.838C626.282 296.212 626.479 297.469 626.872 298.608C627.304 299.707 627.874 300.669 628.581 301.494C629.327 302.319 630.192 302.967 631.174 303.438C632.156 303.87 633.217 304.086 634.356 304.086C635.496 304.086 636.557 303.87 637.539 303.438C638.521 302.967 639.366 302.319 640.073 301.494C640.819 300.669 641.389 299.688 641.782 298.549C642.214 297.41 642.43 296.153 642.43 294.779C642.43 293.444 642.214 292.207 641.782 291.068C641.389 289.929 640.819 288.947 640.073 288.123C639.366 287.298 638.521 286.67 637.539 286.238C636.557 285.766 635.496 285.531 634.356 285.531C633.217 285.531 632.156 285.766 631.174 286.238C630.192 286.709 629.327 287.357 628.581 288.181C627.874 289.006 627.304 289.988 626.872 291.127C626.479 292.266 626.282 293.503 626.282 294.838Z" fill="#593EBF"/>
<path d="M664.586 310.801C661.404 310.801 658.988 309.78 657.337 307.738C655.687 305.696 654.862 302.672 654.862 298.667V279.346H662.759V296.958C662.759 301.71 664.469 304.086 667.887 304.086C669.419 304.086 670.892 303.634 672.307 302.731C673.761 301.789 674.939 300.375 675.843 298.49V279.346H683.74V301.141C683.74 301.965 683.878 302.554 684.153 302.908C684.467 303.261 684.958 303.458 685.626 303.497V310.212C684.84 310.369 684.172 310.467 683.622 310.507C683.111 310.546 682.64 310.566 682.208 310.566C680.793 310.566 679.634 310.251 678.731 309.623C677.866 308.955 677.355 308.052 677.198 306.913L677.022 304.439C675.646 306.56 673.878 308.15 671.717 309.211C669.557 310.271 667.18 310.801 664.586 310.801Z" fill="#593EBF"/>
<path d="M690.851 267.211H698.749V300.316C698.749 301.455 699.024 302.338 699.574 302.967C700.124 303.595 700.909 303.909 701.931 303.909C702.402 303.909 702.913 303.831 703.463 303.674C704.053 303.517 704.603 303.32 705.113 303.085L706.174 309.093C705.113 309.603 703.876 309.996 702.461 310.271C701.047 310.546 699.77 310.683 698.631 310.683C696.155 310.683 694.23 310.035 692.855 308.74C691.519 307.404 690.851 305.519 690.851 303.085V267.211Z" fill="#593EBF"/>
<path d="M721.726 310.801C719.604 310.801 717.64 310.389 715.833 309.564C714.025 308.74 712.473 307.601 711.177 306.148C709.88 304.695 708.859 303.006 708.112 301.082C707.405 299.118 707.051 297.017 707.051 294.779C707.051 292.54 707.385 290.459 708.053 288.535C708.76 286.611 709.723 284.922 710.941 283.469C712.159 282.016 713.613 280.877 715.302 280.052C716.992 279.228 718.838 278.815 720.842 278.815C723.121 278.815 725.164 279.365 726.971 280.465C728.818 281.564 730.252 282.998 731.273 284.765V267.211H739.171V301.141C739.171 301.965 739.308 302.554 739.583 302.908C739.858 303.261 740.33 303.458 740.997 303.497V310.212C739.622 310.487 738.503 310.624 737.638 310.624C736.224 310.624 735.065 310.271 734.161 309.564C733.257 308.857 732.747 307.934 732.629 306.796L732.452 304.852C731.313 306.815 729.761 308.308 727.796 309.329C725.871 310.31 723.848 310.801 721.726 310.801ZM723.789 304.086C724.535 304.086 725.301 303.968 726.087 303.733C726.873 303.458 727.6 303.085 728.268 302.613C728.936 302.142 729.525 301.592 730.036 300.964C730.586 300.336 730.998 299.648 731.273 298.902V291.539C730.959 290.675 730.507 289.89 729.918 289.183C729.368 288.437 728.72 287.808 727.973 287.298C727.266 286.748 726.5 286.316 725.675 286.002C724.889 285.688 724.103 285.531 723.317 285.531C722.139 285.531 721.038 285.786 720.017 286.296C719.035 286.807 718.19 287.514 717.483 288.417C716.775 289.281 716.225 290.282 715.833 291.421C715.44 292.56 715.243 293.738 715.243 294.956C715.243 296.252 715.459 297.449 715.891 298.549C716.324 299.648 716.913 300.611 717.66 301.435C718.406 302.26 719.29 302.908 720.312 303.379C721.372 303.85 722.531 304.086 723.789 304.086Z" fill="#593EBF"/>
<path d="M760.491 310.212V268.389H768.624V310.212H760.491Z" fill="#593EBF"/>
<path d="M800.22 268.389H807.41L823.322 310.212H814.953L811.063 299.786H796.448L792.617 310.212H784.248L800.22 268.389ZM809.59 294.072L803.815 277.637L797.803 294.072H809.59Z" fill="#593EBF"/>
<path d="M837.791 310.801C835.198 310.801 832.664 310.389 830.189 309.564C827.713 308.74 825.592 307.561 823.824 306.03L826.77 301.082C828.656 302.417 830.483 303.438 832.251 304.145C834.059 304.812 835.846 305.146 837.614 305.146C839.186 305.146 840.423 304.852 841.327 304.263C842.231 303.674 842.683 302.829 842.683 301.73C842.683 300.63 842.152 299.825 841.091 299.315C840.031 298.804 838.302 298.215 835.905 297.547C833.901 296.998 832.192 296.468 830.778 295.957C829.363 295.446 828.224 294.877 827.36 294.249C826.495 293.581 825.867 292.835 825.474 292.01C825.081 291.146 824.884 290.125 824.884 288.947C824.884 287.376 825.179 285.963 825.768 284.706C826.397 283.449 827.262 282.389 828.362 281.525C829.462 280.622 830.739 279.935 832.192 279.463C833.685 278.992 835.296 278.757 837.025 278.757C839.343 278.757 841.504 279.09 843.508 279.758C845.551 280.426 847.417 281.505 849.106 282.998L845.924 287.769C844.352 286.591 842.82 285.727 841.327 285.177C839.873 284.627 838.42 284.353 836.966 284.353C835.63 284.353 834.51 284.627 833.607 285.177C832.703 285.727 832.251 286.611 832.251 287.828C832.251 288.378 832.35 288.829 832.546 289.183C832.782 289.536 833.135 289.85 833.607 290.125C834.078 290.4 834.687 290.675 835.434 290.95C836.22 291.186 837.182 291.441 838.322 291.716C840.443 292.266 842.25 292.815 843.743 293.365C845.276 293.915 846.513 294.543 847.456 295.25C848.439 295.957 849.146 296.782 849.578 297.724C850.049 298.627 850.285 299.727 850.285 301.023C850.285 304.047 849.165 306.442 846.926 308.209C844.686 309.937 841.641 310.801 837.791 310.801Z" fill="#593EBF"/>
<path d="M875.837 310.212L866.879 296.841L862.636 301.023V310.212H854.739V267.211H862.636V293.306L875.012 279.405H883.44L871.948 292.482L884.265 310.212H875.837Z" fill="#593EBF"/>
<path d="M550.505 369.118V327.295H578.616V334.422H558.638V345.202H575.257V351.799H558.638V369.118H550.505Z" fill="#593EBF"/>
<path d="M595.15 369.707C592.635 369.707 590.376 369.275 588.372 368.411C586.369 367.547 584.66 366.388 583.245 364.935C581.87 363.443 580.809 361.735 580.063 359.811C579.316 357.886 578.943 355.864 578.943 353.743C578.943 351.584 579.316 349.541 580.063 347.617C580.809 345.693 581.87 344.004 583.245 342.551C584.66 341.059 586.369 339.881 588.372 339.017C590.376 338.153 592.635 337.721 595.15 337.721C597.664 337.721 599.904 338.153 601.868 339.017C603.872 339.881 605.562 341.059 606.937 342.551C608.351 344.004 609.432 345.693 610.178 347.617C610.925 349.541 611.298 351.584 611.298 353.743C611.298 355.864 610.925 357.886 610.178 359.811C609.432 361.735 608.371 363.443 606.996 364.935C605.62 366.388 603.931 367.547 601.927 368.411C599.923 369.275 597.664 369.707 595.15 369.707ZM587.076 353.743C587.076 355.118 587.272 356.374 587.665 357.513C588.097 358.613 588.667 359.575 589.374 360.4C590.121 361.224 590.985 361.872 591.967 362.344C592.95 362.776 594.01 362.992 595.15 362.992C596.289 362.992 597.35 362.776 598.332 362.344C599.315 361.872 600.159 361.224 600.866 360.4C601.613 359.575 602.183 358.593 602.576 357.454C603.008 356.316 603.224 355.059 603.224 353.684C603.224 352.349 603.008 351.112 602.576 349.973C602.183 348.835 601.613 347.853 600.866 347.028C600.159 346.203 599.315 345.575 598.332 345.143C597.35 344.672 596.289 344.436 595.15 344.436C594.01 344.436 592.95 344.672 591.967 345.143C590.985 345.614 590.121 346.262 589.374 347.087C588.667 347.912 588.097 348.893 587.665 350.032C587.272 351.171 587.076 352.408 587.076 353.743Z" fill="#593EBF"/>
<path d="M634.338 345.084C631.941 345.124 629.8 345.595 627.914 346.498C626.028 347.362 624.673 348.677 623.848 350.445V369.118H615.95V338.251H623.199V344.849C623.749 343.788 624.398 342.846 625.144 342.021C625.891 341.157 626.696 340.411 627.56 339.783C628.425 339.154 629.289 338.683 630.154 338.369C631.057 338.016 631.922 337.839 632.747 337.839C633.179 337.839 633.493 337.839 633.69 337.839C633.925 337.839 634.141 337.859 634.338 337.898V345.084Z" fill="#593EBF"/>
<path d="M679.926 364.405C676.586 367.743 672.697 369.412 668.257 369.412C665.507 369.412 662.914 368.862 660.478 367.763C658.081 366.663 655.979 365.151 654.172 363.227C652.404 361.303 650.989 359.045 649.928 356.453C648.907 353.822 648.396 350.994 648.396 347.971C648.396 345.104 648.907 342.414 649.928 339.901C650.989 337.348 652.423 335.129 654.231 333.244C656.077 331.32 658.238 329.808 660.713 328.709C663.189 327.57 665.88 327 668.787 327C672.716 327 676.076 327.825 678.865 329.474C681.694 331.124 683.816 333.342 685.23 336.131L679.16 340.607C678.099 338.526 676.606 336.936 674.681 335.836C672.795 334.737 670.732 334.187 668.493 334.187C666.725 334.187 665.094 334.56 663.601 335.306C662.147 336.052 660.89 337.073 659.829 338.369C658.808 339.665 658.002 341.157 657.413 342.846C656.863 344.534 656.588 346.321 656.588 348.206C656.588 350.17 656.902 352.015 657.531 353.743C658.159 355.432 659.024 356.905 660.124 358.161C661.224 359.418 662.521 360.419 664.014 361.165C665.546 361.872 667.196 362.226 668.964 362.226C673.011 362.226 676.665 360.321 679.926 356.512V353.567H671.498V347.617H686.644V369.118H679.926V364.405Z" fill="#593EBF"/>
<path d="M706.453 369.707C703.978 369.707 701.738 369.294 699.734 368.47C697.73 367.606 696.021 366.447 694.607 364.994C693.193 363.541 692.092 361.853 691.307 359.928C690.56 358.004 690.187 355.982 690.187 353.861C690.187 351.662 690.56 349.6 691.307 347.676C692.053 345.713 693.134 344.004 694.548 342.551C695.962 341.059 697.672 339.881 699.675 339.017C701.718 338.153 703.997 337.721 706.512 337.721C709.026 337.721 711.266 338.153 713.23 339.017C715.234 339.881 716.923 341.039 718.299 342.492C719.713 343.945 720.774 345.634 721.481 347.558C722.228 349.483 722.601 351.485 722.601 353.567C722.601 354.077 722.581 354.568 722.542 355.039C722.542 355.511 722.503 355.903 722.424 356.217H698.556C698.673 357.435 698.968 358.515 699.44 359.457C699.911 360.4 700.52 361.205 701.267 361.872C702.013 362.54 702.858 363.05 703.801 363.404C704.744 363.757 705.726 363.934 706.747 363.934C708.319 363.934 709.792 363.561 711.168 362.815C712.582 362.029 713.545 361.008 714.055 359.752L720.833 361.637C719.693 363.993 717.866 365.937 715.352 367.468C712.877 368.961 709.91 369.707 706.453 369.707ZM714.468 351.093C714.271 348.776 713.407 346.93 711.875 345.556C710.382 344.142 708.555 343.435 706.394 343.435C705.333 343.435 704.331 343.631 703.388 344.024C702.485 344.377 701.679 344.888 700.972 345.556C700.265 346.223 699.675 347.028 699.204 347.971C698.772 348.913 698.516 349.954 698.438 351.093H714.468Z" fill="#593EBF"/>
<path d="M755.435 369.118H747.538V351.799C747.538 349.325 747.106 347.519 746.241 346.38C745.377 345.241 744.179 344.672 742.646 344.672C741.86 344.672 741.055 344.829 740.23 345.143C739.405 345.457 738.619 345.909 737.873 346.498C737.165 347.048 736.517 347.715 735.928 348.501C735.338 349.286 734.906 350.15 734.631 351.093V369.118H726.734V338.251H733.865V343.965C735.004 342.002 736.655 340.47 738.816 339.37C740.976 338.271 743.412 337.721 746.123 337.721C748.049 337.721 749.62 338.074 750.838 338.781C752.056 339.488 752.999 340.411 753.667 341.55C754.335 342.689 754.787 343.985 755.022 345.438C755.298 346.891 755.435 348.363 755.435 349.856V369.118Z" fill="#593EBF"/>
<path d="M774.413 369.707C772.291 369.707 770.327 369.294 768.519 368.47C766.712 367.645 765.16 366.506 763.864 365.053C762.567 363.6 761.545 361.912 760.799 359.987C760.092 358.024 759.738 355.923 759.738 353.684C759.738 351.446 760.072 349.365 760.74 347.44C761.447 345.516 762.41 343.828 763.628 342.375C764.846 340.922 766.299 339.783 767.989 338.958C769.678 338.133 771.525 337.721 773.529 337.721C775.808 337.721 777.851 338.271 779.658 339.37C781.505 340.47 782.939 341.903 783.96 343.671V326.117H791.857V360.046C791.857 360.871 791.995 361.46 792.27 361.813C792.545 362.167 793.016 362.363 793.684 362.403V369.118C792.309 369.393 791.189 369.53 790.325 369.53C788.911 369.53 787.752 369.177 786.848 368.47C785.944 367.763 785.434 366.84 785.316 365.701L785.139 363.757C783.999 365.721 782.447 367.213 780.483 368.234C778.558 369.216 776.534 369.707 774.413 369.707ZM776.475 362.992C777.222 362.992 777.988 362.874 778.774 362.638C779.56 362.363 780.287 361.99 780.954 361.519C781.622 361.048 782.212 360.498 782.723 359.87C783.273 359.241 783.685 358.554 783.96 357.808V350.445C783.646 349.581 783.194 348.795 782.605 348.088C782.055 347.342 781.406 346.714 780.66 346.203C779.953 345.654 779.186 345.222 778.361 344.908C777.576 344.593 776.79 344.436 776.004 344.436C774.825 344.436 773.725 344.692 772.704 345.202C771.721 345.713 770.877 346.419 770.17 347.323C769.462 348.187 768.912 349.188 768.519 350.327C768.126 351.466 767.93 352.644 767.93 353.861C767.93 355.157 768.146 356.355 768.578 357.454C769.01 358.554 769.6 359.516 770.346 360.341C771.093 361.165 771.977 361.813 772.998 362.285C774.059 362.756 775.218 362.992 776.475 362.992Z" fill="#593EBF"/>
<path d="M813.252 369.707C810.777 369.707 808.538 369.294 806.534 368.47C804.53 367.606 802.821 366.447 801.407 364.994C799.992 363.541 798.892 361.853 798.106 359.928C797.36 358.004 796.986 355.982 796.986 353.861C796.986 351.662 797.36 349.6 798.106 347.676C798.853 345.713 799.933 344.004 801.348 342.551C802.762 341.059 804.471 339.881 806.475 339.017C808.518 338.153 810.797 337.721 813.311 337.721C815.826 337.721 818.065 338.153 820.03 339.017C822.034 339.881 823.723 341.039 825.098 342.492C826.513 343.945 827.573 345.634 828.281 347.558C829.027 349.483 829.4 351.485 829.4 353.567C829.4 354.077 829.381 354.568 829.341 355.039C829.341 355.511 829.302 355.903 829.224 356.217H805.355C805.473 357.435 805.768 358.515 806.239 359.457C806.711 360.4 807.32 361.205 808.066 361.872C808.813 362.54 809.657 363.05 810.6 363.404C811.543 363.757 812.525 363.934 813.547 363.934C815.119 363.934 816.592 363.561 817.967 362.815C819.382 362.029 820.344 361.008 820.855 359.752L827.632 361.637C826.493 363.993 824.666 365.937 822.151 367.468C819.676 368.961 816.71 369.707 813.252 369.707ZM821.267 351.093C821.071 348.776 820.207 346.93 818.674 345.556C817.181 344.142 815.354 343.435 813.193 343.435C812.133 343.435 811.131 343.631 810.188 344.024C809.284 344.377 808.479 344.888 807.771 345.556C807.064 346.223 806.475 347.028 806.003 347.971C805.571 348.913 805.316 349.954 805.237 351.093H821.267Z" fill="#593EBF"/>
<path d="M851.921 345.084C849.524 345.124 847.383 345.595 845.497 346.498C843.611 347.362 842.256 348.677 841.431 350.445V369.118H833.534V338.251H840.782V344.849C841.333 343.788 841.981 342.846 842.727 342.021C843.474 341.157 844.279 340.411 845.144 339.783C846.008 339.154 846.872 338.683 847.737 338.369C848.64 338.016 849.505 337.839 850.33 337.839C850.762 337.839 851.076 337.839 851.273 337.839C851.509 337.839 851.725 337.859 851.921 337.898V345.084Z" fill="#593EBF"/>
<path d="M859.242 355.393C859.242 353.468 859.556 351.741 860.185 350.209C860.813 348.678 862.11 347.342 864.074 346.203C864.664 345.85 865.391 345.457 866.255 345.025C867.119 344.554 867.964 344.004 868.789 343.376C869.614 342.748 870.302 342.021 870.852 341.196C871.441 340.333 871.736 339.351 871.736 338.251C871.736 337.427 871.579 336.7 871.264 336.072C870.95 335.443 870.538 334.913 870.027 334.481C869.516 334.049 868.907 333.735 868.2 333.539C867.532 333.303 866.844 333.185 866.137 333.185C865.273 333.185 864.487 333.342 863.78 333.657C863.073 333.931 862.424 334.305 861.835 334.776C861.285 335.208 860.774 335.718 860.303 336.307C859.87 336.857 859.497 337.387 859.183 337.898L854.056 334.363C854.566 333.146 855.234 332.066 856.059 331.124C856.924 330.181 857.886 329.396 858.947 328.767C860.047 328.1 861.226 327.609 862.483 327.295C863.74 326.941 865.037 326.765 866.373 326.765C867.866 326.765 869.339 326.981 870.793 327.413C872.247 327.845 873.543 328.532 874.683 329.474C875.861 330.417 876.804 331.634 877.511 333.126C878.258 334.579 878.631 336.327 878.631 338.369C878.631 339.626 878.474 340.745 878.16 341.727C877.885 342.669 877.472 343.533 876.922 344.318C876.372 345.104 875.724 345.811 874.977 346.439C874.231 347.067 873.386 347.676 872.443 348.265C871.657 348.736 870.872 349.188 870.086 349.62C869.3 350.052 868.573 350.543 867.905 351.093C867.277 351.603 866.746 352.212 866.314 352.919C865.921 353.586 865.725 354.411 865.725 355.393H859.242ZM859.36 369.118V360.989H865.901V369.118H859.36Z" fill="#593EBF"/>
</g>
<defs>
<linearGradient id="paint0_linear" x1="0" y1="0" x2="1294.53" y2="1785.31" gradientUnits="userSpaceOnUse">
<stop stop-color="#FFF4DC"/>
<stop offset="1" stop-color="#D4C7FF"/>
</linearGradient>
<linearGradient id="paint1_linear" x1="581.72" y1="170.561" x2="465.599" y2="620.531" gradientUnits="userSpaceOnUse">
<stop stop-color="#FFDD94"/>
<stop offset="0.00253999" stop-color="#FFDD95"/>
<stop offset="0.1925" stop-color="#EED5B6"/>
<stop offset="0.3851" stop-color="#E1CED1"/>
<stop offset="0.5822" stop-color="#D8CAE4"/>
<stop offset="0.7845" stop-color="#D3C7EF"/>
<stop offset="1" stop-color="#D1C6F3"/>
</linearGradient>
<linearGradient id="paint2_linear" x1="325.925" y1="415.404" x2="577.524" y2="248.028" gradientUnits="userSpaceOnUse">
<stop stop-color="#FFDD94"/>
<stop offset="0.00253999" stop-color="#FFDD95"/>
<stop offset="0.1925" stop-color="#EED5B6"/>
<stop offset="0.3851" stop-color="#E1CED1"/>
<stop offset="0.5822" stop-color="#D8CAE4"/>
<stop offset="0.7845" stop-color="#D3C7EF"/>
<stop offset="1" stop-color="#D1C6F3"/>
</linearGradient>
<clipPath id="clip0">
<rect width="1200" height="627" fill="white"/>
</clipPath>
</defs>
</svg>
