<svg width="32" height="32" viewBox="0 0 32 32" fill="none" xmlns="http://www.w3.org/2000/svg">
<path fill-rule="evenodd" clip-rule="evenodd" d="M16.4444 0.315789C16.0494 -0.105263 15.3809 -0.105263 14.9858 0.31579L0.272699 15.9982C-0.326407 16.6368 0.126368 17.6824 1.00198 17.6824H4.51012V30.9901C4.51012 31.5423 4.95784 31.9901 5.51012 31.9901H12.2813L12.2813 31.9901H18.8253L18.8254 31.9901H26.0055C26.5578 31.9901 27.0055 31.5423 27.0055 30.9901V17.6824H30.4283C31.3039 17.6824 31.7566 16.6368 31.1575 15.9982L16.4444 0.315789ZM18.8254 31.9901H12.2813V24.4302C12.2813 23.878 12.729 23.4302 13.2813 23.4302H17.8254C18.3777 23.4302 18.8254 23.878 18.8254 24.4302V31.9901Z" fill="#593EBF"/>
</svg>
