<svg width="155" height="83" viewBox="0 0 155 83" fill="none" xmlns="http://www.w3.org/2000/svg">
<path d="M21.3833 25.2899C23.7655 25.2899 25.6966 23.3588 25.6966 20.9767C25.6966 18.5945 23.7655 16.6635 21.3833 16.6635C19.0012 16.6635 17.0701 18.5945 17.0701 20.9767C17.0701 23.3588 19.0012 25.2899 21.3833 25.2899Z" fill="#19142D"/>
<path d="M35.0622 25.2899C37.4444 25.2899 39.3755 23.3588 39.3755 20.9767C39.3755 18.5945 37.4444 16.6635 35.0622 16.6635C32.6801 16.6635 30.749 18.5945 30.749 20.9767C30.749 23.3588 32.6801 25.2899 35.0622 25.2899Z" fill="#19142D"/>
<path d="M54.102 54.102C54.102 49.3867 52.843 44.9679 50.6377 41.1623C49.2933 38.8392 47.5997 36.7476 45.6259 34.9524C45.6259 34.9524 45.6259 34.9524 45.6259 34.9484C45.5853 34.9118 45.5406 34.8753 45.5 34.8387C45.3131 34.6722 45.1223 34.5057 44.9314 34.3432C44.8705 34.2904 44.8095 34.2417 44.7486 34.1889C44.6593 34.1158 44.574 34.0427 44.4846 33.9696V33.9736V33.9696C44.4196 33.9168 44.3506 33.864 44.2856 33.8112C44.2247 33.7624 44.1028 33.669 44.1028 33.669C40.8293 31.1185 36.9263 29.3396 32.6659 28.6004C32.0689 28.4989 31.4638 28.7222 31.0739 29.1812L28.2187 32.5278L25.3635 29.1812C24.9695 28.7222 24.3644 28.4948 23.7714 28.6004C19.3445 29.368 15.3034 31.2566 11.9527 33.9696C11.2664 32.0363 10.9171 29.9488 10.9699 27.7719C11.2095 18.4591 18.8896 10.9739 28.2065 10.9658C37.7224 10.9617 45.4715 18.7027 45.4715 28.2186C45.4715 29.1081 45.4025 29.9853 45.2725 30.8382C45.1872 31.3906 45.4066 31.9429 45.8411 32.2922C47.5672 33.6893 49.1105 35.2692 50.4468 37.0116C51.0763 37.8279 52.3597 37.6127 52.6927 36.6379C53.6025 33.998 54.0939 31.1672 54.0939 28.2186C54.0939 21.7447 51.7139 15.8273 47.7865 11.2866C47.3682 10.8033 47.3601 10.0844 47.7744 9.59706L51.0519 5.75091C51.5311 5.19043 51.1331 4.32942 50.394 4.32942H42.4417C40.0455 4.32942 37.6615 4.00044 35.3586 3.34249C33.0883 2.69267 30.688 2.34338 28.2105 2.34338C25.729 2.34338 23.3328 2.69267 21.0625 3.34249C18.7597 4.0045 16.3756 4.32942 13.9794 4.32942H6.04338C5.30827 4.32942 4.91025 5.19043 5.38544 5.75091L8.663 9.59706C9.08132 10.0844 9.0732 10.8033 8.65081 11.2866C4.71937 15.8232 2.34344 21.7447 2.34344 28.2186C2.34344 32.1622 3.22883 35.8947 4.80466 39.2372C4.93056 39.5053 5.06053 39.7693 5.19861 40.0333C5.24329 40.1185 5.28391 40.1998 5.32858 40.2851C5.37732 40.3785 5.42605 40.4678 5.47479 40.5612C5.58445 40.7602 5.69411 40.9593 5.80783 41.1542C5.68192 41.3695 5.56008 41.5888 5.4423 41.8121C5.36513 41.9543 5.29202 42.0964 5.21892 42.2427C5.18236 42.3117 5.14582 42.3807 5.10926 42.4539C5.01585 42.6407 4.92244 42.8316 4.83309 43.0224C4.82497 43.0428 4.81278 43.0631 4.80466 43.0834C4.70718 43.2946 4.60971 43.5058 4.5163 43.717C3.12324 46.893 2.3475 50.4061 2.3475 54.0979C2.3475 60.2997 4.53255 65.9938 8.17157 70.4532C8.17157 70.4532 8.17156 70.4532 8.17562 70.4491C8.17562 70.4491 8.17563 70.4491 8.17157 70.4532C12.9153 76.261 20.1283 79.9731 28.2105 79.9772C29.3315 79.9772 30.4362 79.9082 31.5206 79.766C32.7431 79.6076 33.068 77.9912 31.9998 77.3698C29.3681 75.8386 26.9434 73.9744 24.7624 71.7894C24.7584 71.7853 24.7543 71.7813 24.7543 71.7813C24.1451 71.1721 23.4181 70.6888 22.6058 70.4085C19.442 69.316 16.6924 67.3259 14.6617 64.7429C12.3548 61.8105 10.978 58.1106 10.978 54.0979C10.978 52.0835 11.3273 50.1462 11.9649 48.347C11.9365 48.3266 11.9121 48.3023 11.8877 48.282C11.9121 48.3023 11.9405 48.3266 11.9649 48.347C12.9559 45.5527 14.6495 43.0834 16.8305 41.1583C19.8725 38.4737 23.8649 36.8451 28.2268 36.8451C32.5928 36.8451 36.5811 38.4737 39.6231 41.1583C41.8041 43.0834 43.4977 45.5486 44.4887 48.347C45.1263 50.1462 45.4756 52.0835 45.4756 54.0979V54.102V70.9406C40.5694 70.0552 35.9963 67.7321 32.4222 64.1661C27.7638 59.5199 25.201 53.3344 25.201 46.7589C25.201 44.7973 25.4325 42.86 25.8834 40.9796C26.1027 40.0698 25.2579 39.2535 24.3522 39.4931C22.1103 40.0901 20.0146 41.2029 18.2439 42.7625C18.118 42.8722 17.9921 42.9859 17.8702 43.1037C17.0742 43.855 16.6071 44.8988 16.5827 45.9954C16.5787 46.2472 16.5746 46.5031 16.5746 46.7549C16.5746 51.2387 17.4519 55.5884 19.1861 59.6864C20.8594 63.6422 23.2516 67.1919 26.3017 70.242C29.3518 73.2921 32.9015 75.6843 36.8573 77.3576C40.9553 79.0918 45.305 79.9691 49.7888 79.9691H52.8064C53.5212 79.9691 54.102 79.3883 54.102 78.6735V54.102Z" fill="#19142D"/>
<path d="M54.1389 54.1383C54.1389 49.4024 52.8714 44.9711 50.6606 41.1489C49.3145 38.8203 47.6049 36.7176 45.63 34.9097C45.5907 34.8704 45.5415 34.841 45.5022 34.8017C45.3156 34.6346 45.1289 34.4676 44.9324 34.3006C44.8734 34.2514 44.8046 34.2023 44.7457 34.1433C44.6572 34.0746 44.5688 33.996 44.4804 33.9272C44.4116 33.8781 44.3428 33.8191 44.2839 33.77C44.2249 33.7208 44.0972 33.6226 44.0972 33.6226C40.8056 31.0581 36.8951 29.2699 32.6111 28.533C32.0118 28.4249 31.4026 28.6607 31.0096 29.1225L28.1405 32.4828L25.2715 29.1225C24.8784 28.6607 24.2693 28.4347 23.6699 28.533C19.2288 29.2994 15.1708 31.2055 11.8007 33.9272C11.1129 31.9817 10.7591 29.8889 10.8181 27.6978C11.0539 18.3439 18.767 10.8273 28.1307 10.8273C37.6909 10.8175 45.4629 18.5993 45.4629 28.1498C45.4629 29.0439 45.3942 29.9184 45.2664 30.783C45.178 31.3332 45.404 31.8933 45.8363 32.247C47.5656 33.6521 49.118 35.234 50.4641 36.9829C51.093 37.7984 52.3801 37.5823 52.724 36.6096C53.6378 33.9567 54.1291 31.1171 54.1291 28.1498C54.1291 21.6453 51.7414 15.7008 47.7916 11.1516C47.3691 10.6603 47.3593 9.94305 47.7818 9.45177L51.0733 5.59034C51.5548 5.03028 51.1519 4.16563 50.415 4.16563H42.4268C40.0196 4.16563 37.6222 3.83157 35.3132 3.17326C33.0336 2.51494 30.6264 2.17105 28.1307 2.17105C25.635 2.17105 23.2277 2.52477 20.9482 3.17326C18.6392 3.84139 16.2418 4.16563 13.8345 4.16563H5.87586C5.13894 4.16563 4.73609 5.03028 5.21755 5.59034L8.5091 9.45177C8.9316 9.94305 8.92177 10.6603 8.49927 11.1516C4.54941 15.7008 2.1618 21.6453 2.1618 28.1498C2.1618 32.1095 3.0461 35.853 4.62801 39.2133C4.75575 39.4786 4.88348 39.7439 5.02103 40.0092C5.06034 40.0976 5.10946 40.1762 5.14877 40.2646C5.19789 40.3531 5.24702 40.4513 5.29615 40.5398C5.40423 40.7363 5.51231 40.9426 5.63022 41.1391C5.50249 41.3553 5.38458 41.5813 5.26667 41.7974C5.18807 41.935 5.11929 42.0824 5.04069 42.2298C5.00138 42.2985 4.97191 42.3673 4.9326 42.4361C4.83435 42.6228 4.74592 42.8193 4.65749 43.006C4.64766 43.0256 4.63784 43.0453 4.62801 43.0649C4.52976 43.2713 4.4315 43.4874 4.34307 43.7036C2.93802 46.9067 2.1618 50.4243 2.1618 54.1383C2.1618 60.3677 4.3529 66.0862 8.008 70.5568C12.7734 76.3931 20.0148 80.117 28.1307 80.117C29.2606 80.117 30.3611 80.0482 31.4517 79.9107C32.6799 79.7535 33.0042 78.1224 31.9332 77.5034C29.2901 75.9706 26.8534 74.094 24.6623 71.9029L24.6525 71.893C24.0433 71.2839 23.3064 70.7926 22.4908 70.5175C19.3172 69.417 16.5562 67.4224 14.5125 64.8285C12.1937 61.8808 10.8083 58.1668 10.8083 54.1383C10.8083 52.1142 11.162 50.1688 11.8007 48.3609C11.7712 48.3412 11.7515 48.3216 11.722 48.2921C11.7515 48.3118 11.7712 48.3314 11.8007 48.3609C12.793 45.5508 14.4928 43.0748 16.6839 41.1391C19.7397 38.4469 23.7485 36.8061 28.1307 36.8061C32.5129 36.8061 36.5217 38.4469 39.5774 41.1391C41.7685 43.0748 43.4683 45.5508 44.4607 48.3609C45.0994 50.1688 45.4531 52.1142 45.4531 54.1383C45.4531 54.1383 45.4531 54.1383 45.4531 54.1481V71.0579C40.5305 70.1637 35.9322 67.8351 32.3458 64.2586C27.6689 59.5915 25.0946 53.3817 25.0946 46.779C25.0946 44.804 25.3206 42.8684 25.7824 40.9721C25.9985 40.0583 25.1536 39.2428 24.2496 39.4786C21.9996 40.078 19.8969 41.1981 18.1185 42.7603C17.9907 42.8684 17.863 42.9863 17.7451 43.1042C16.9394 43.8608 16.4776 44.9121 16.4481 46.0126C16.4383 46.2681 16.4383 46.5235 16.4383 46.779C16.4383 51.2791 17.3226 55.6514 19.0617 59.7585C20.7419 63.728 23.1491 67.2947 26.2049 70.3603C29.2705 73.4258 32.8371 75.8233 36.8066 77.5034C40.9235 79.2425 45.2861 80.1268 49.7862 80.1268H52.8223C53.5395 80.1268 54.1192 79.5471 54.1192 78.8299L54.1389 54.1383Z" fill="#19142D"/>
<path d="M21.2823 25.2024C23.6754 25.2024 25.6154 23.2625 25.6154 20.8694C25.6154 18.4763 23.6754 16.5363 21.2823 16.5363C18.8893 16.5363 16.9493 18.4763 16.9493 20.8694C16.9493 23.2625 18.8893 25.2024 21.2823 25.2024Z" fill="#19142D"/>
<path d="M35.0185 25.2024C37.4116 25.2024 39.3516 23.2625 39.3516 20.8694C39.3516 18.4763 37.4116 16.5363 35.0185 16.5363C32.6255 16.5363 30.6855 18.4763 30.6855 20.8694C30.6855 23.2625 32.6255 25.2024 35.0185 25.2024Z" fill="#19142D"/>
<path d="M66.6254 52L67.3931 49.7866H70.6602L71.4238 52H72.7633L69.7536 43.6364H68.2956L65.2859 52H66.6254ZM67.7607 48.7248L68.994 45.1555H69.0593L70.2926 48.7248H67.7607ZM76.9165 54.3523H78.1376V51.024H78.2111C78.4316 51.4242 78.8809 52.1225 80.0243 52.1225C81.5435 52.1225 82.6461 50.9055 82.6461 48.8759C82.6461 46.8422 81.5272 45.6456 80.0121 45.6456C78.8482 45.6456 78.4276 46.3562 78.2111 46.7441H78.109V45.7273H76.9165V54.3523ZM78.1131 48.8636C78.1131 47.5527 78.6848 46.6829 79.7507 46.6829C80.8574 46.6829 81.4128 47.6181 81.4128 48.8636C81.4128 50.1214 80.8411 51.0811 79.7507 51.0811C78.7012 51.0811 78.1131 50.1827 78.1131 48.8636ZM85.2353 43.6364H84.0142V52H85.2353V43.6364ZM88.7034 52.1388C89.7407 52.1388 90.3247 51.612 90.5575 51.1424H90.6065V52H91.799V47.8345C91.799 46.0091 90.3615 45.6456 89.365 45.6456C88.2297 45.6456 87.1843 46.103 86.7759 47.2464L87.9234 47.5078C88.1031 47.0627 88.5605 46.6339 89.3813 46.6339C90.1695 46.6339 90.5738 47.0463 90.5738 47.7569V47.7855C90.5738 48.2306 90.1164 48.2225 88.9893 48.3532C87.8009 48.492 86.5839 48.8024 86.5839 50.2276C86.5839 51.4609 87.511 52.1388 88.7034 52.1388ZM88.9689 51.1587C88.2787 51.1587 87.7805 50.8484 87.7805 50.244C87.7805 49.5906 88.3604 49.3578 89.0669 49.2638C89.463 49.2108 90.4023 49.1046 90.5779 48.929V49.7376C90.5779 50.4808 89.9858 51.1587 88.9689 51.1587ZM96.0676 52.1266C97.55 52.1266 98.5097 51.2363 98.6444 50.0153H97.4561C97.3009 50.6932 96.7741 51.0934 96.0757 51.0934C95.0425 51.0934 94.3769 50.2317 94.3769 48.8636C94.3769 47.5201 95.0548 46.6747 96.0757 46.6747C96.8517 46.6747 97.3254 47.1648 97.4561 47.7528H98.6444C98.5138 46.4869 97.4806 45.6456 96.0553 45.6456C94.287 45.6456 93.1436 46.9769 93.1436 48.8922C93.1436 50.783 94.2462 52.1266 96.0676 52.1266ZM102.654 52.1266C104.022 52.1266 104.99 51.4528 105.267 50.4318L104.112 50.2235C103.891 50.8157 103.36 51.1179 102.666 51.1179C101.621 51.1179 100.918 50.44 100.885 49.2312H105.345V48.7983C105.345 46.5318 103.989 45.6456 102.568 45.6456C100.82 45.6456 99.6685 46.9769 99.6685 48.9045C99.6685 50.8525 100.804 52.1266 102.654 52.1266ZM100.89 48.3164C100.939 47.4261 101.584 46.6543 102.576 46.6543C103.524 46.6543 104.144 47.3567 104.148 48.3164H100.89ZM112.728 45.7273H111.377V45.1637C111.377 44.6083 111.605 44.3061 112.202 44.3061C112.455 44.3061 112.635 44.3633 112.749 44.4L113.035 43.4118C112.863 43.3464 112.508 43.2443 112.014 43.2443C111.021 43.2443 110.152 43.8242 110.152 45.0004V45.7273H109.184V46.7074H110.152V52H111.377V46.7074H112.728V45.7273ZM116.383 52.1266C118.152 52.1266 119.307 50.832 119.307 48.8922C119.307 46.9402 118.152 45.6456 116.383 45.6456C114.615 45.6456 113.459 46.9402 113.459 48.8922C113.459 50.832 114.615 52.1266 116.383 52.1266ZM116.388 51.1016C115.232 51.1016 114.693 50.0929 114.693 48.8881C114.693 47.6875 115.232 46.6665 116.388 46.6665C117.535 46.6665 118.074 47.6875 118.074 48.8881C118.074 50.0929 117.535 51.1016 116.388 51.1016ZM120.67 52H121.892V48.1694C121.892 47.3485 122.525 46.7564 123.39 46.7564C123.643 46.7564 123.929 46.8013 124.027 46.8299V45.6619C123.905 45.6456 123.664 45.6333 123.509 45.6333C122.774 45.6333 122.145 46.0499 121.916 46.7237H121.851V45.7273H120.67V52ZM68.5243 66.1266C69.8924 66.1266 70.8603 65.4528 71.138 64.4318L69.9822 64.2235C69.7617 64.8157 69.2308 65.1179 68.5366 65.1179C67.4911 65.1179 66.7887 64.44 66.756 63.2312H71.2156V62.7983C71.2156 60.5318 69.8597 59.6456 68.4386 59.6456C66.6907 59.6456 65.5391 60.9769 65.5391 62.9045C65.5391 64.8525 66.6744 66.1266 68.5243 66.1266ZM66.7601 62.3164C66.8091 61.4261 67.4544 60.6543 68.4467 60.6543C69.3942 60.6543 70.0149 61.3567 70.019 62.3164H66.7601ZM73.3881 59.7273H72.0487L73.9762 62.8636L72.0241 66H73.3636L74.7725 63.6559L76.1855 66H77.521L75.5485 62.8636L77.5046 59.7273H76.1692L74.7725 62.1694L73.3881 59.7273ZM78.7583 68.3523H79.9794V65.024H80.0529C80.2734 65.4242 80.7227 66.1225 81.8661 66.1225C83.3853 66.1225 84.4879 64.9055 84.4879 62.8759C84.4879 60.8422 83.369 59.6456 81.8539 59.6456C80.69 59.6456 80.2694 60.3562 80.0529 60.7441H79.9508V59.7273H78.7583V68.3523ZM79.9549 62.8636C79.9549 61.5527 80.5266 60.6829 81.5925 60.6829C82.6992 60.6829 83.2546 61.6181 83.2546 62.8636C83.2546 64.1214 82.6829 65.0811 81.5925 65.0811C80.543 65.0811 79.9549 64.1827 79.9549 62.8636ZM88.5595 66.1266C89.9276 66.1266 90.8954 65.4528 91.1731 64.4318L90.0174 64.2235C89.7969 64.8157 89.266 65.1179 88.5717 65.1179C87.5263 65.1179 86.8239 64.44 86.7912 63.2312H91.2507V62.7983C91.2507 60.5318 89.8949 59.6456 88.4737 59.6456C86.7259 59.6456 85.5742 60.9769 85.5742 62.9045C85.5742 64.8525 86.7095 66.1266 88.5595 66.1266ZM86.7953 62.3164C86.8443 61.4261 87.4895 60.6543 88.4819 60.6543C89.4293 60.6543 90.0501 61.3567 90.0542 62.3164H86.7953ZM92.6055 66H93.8266V62.1694C93.8266 61.3485 94.4596 60.7564 95.3253 60.7564C95.5785 60.7564 95.8644 60.8013 95.9624 60.8299V59.6619C95.8399 59.6456 95.5989 59.6333 95.4438 59.6333C94.7087 59.6333 94.0798 60.0499 93.8511 60.7237H93.7857V59.7273H92.6055V66ZM97.0191 66H98.2401V59.7273H97.0191V66ZM97.6357 58.7594C98.0564 58.7594 98.4076 58.4327 98.4076 58.0325C98.4076 57.6323 98.0564 57.3015 97.6357 57.3015C97.211 57.3015 96.8639 57.6323 96.8639 58.0325C96.8639 58.4327 97.211 58.7594 97.6357 58.7594ZM99.8829 66H101.104V62.1326C101.104 61.2873 101.696 60.6992 102.39 60.6992C103.068 60.6992 103.538 61.1484 103.538 61.8304V66H104.755V62.002C104.755 61.2464 105.216 60.6992 106.013 60.6992C106.658 60.6992 107.189 61.0586 107.189 61.908V66H108.41V61.7937C108.41 60.3603 107.609 59.6456 106.474 59.6456C105.572 59.6456 104.894 60.0785 104.591 60.7482H104.526C104.253 60.0621 103.677 59.6456 102.84 59.6456C102.011 59.6456 101.394 60.0581 101.133 60.7482H101.055V59.7273H99.8829V66ZM112.75 66.1266C114.118 66.1266 115.086 65.4528 115.364 64.4318L114.208 64.2235C113.987 64.8157 113.456 65.1179 112.762 65.1179C111.717 65.1179 111.014 64.44 110.982 63.2312H115.441V62.7983C115.441 60.5318 114.085 59.6456 112.664 59.6456C110.916 59.6456 109.765 60.9769 109.765 62.9045C109.765 64.8525 110.9 66.1266 112.75 66.1266ZM110.986 62.3164C111.035 61.4261 111.68 60.6543 112.672 60.6543C113.62 60.6543 114.241 61.3567 114.245 62.3164H110.986ZM118.017 62.2756C118.017 61.275 118.63 60.7033 119.479 60.7033C120.308 60.7033 120.81 61.2464 120.81 62.1571V66H122.031V62.0101C122.031 60.4583 121.178 59.6456 119.896 59.6456C118.952 59.6456 118.336 60.0826 118.046 60.7482H117.968V59.7273H116.796V66H118.017V62.2756ZM126.597 59.7273H125.311V58.2244H124.09V59.7273H123.171V60.7074H124.09V64.4114C124.086 65.5508 124.955 66.1021 125.919 66.0817C126.307 66.0776 126.568 66.0041 126.711 65.951L126.491 64.9423C126.409 64.9586 126.258 64.9954 126.062 64.9954C125.666 64.9954 125.311 64.8647 125.311 64.1582V60.7074H126.597V59.7273ZM129.773 66.1388C130.811 66.1388 131.395 65.612 131.627 65.1424H131.676V66H132.869V61.8345C132.869 60.0091 131.431 59.6456 130.435 59.6456C129.3 59.6456 128.254 60.103 127.846 61.2464L128.993 61.5078C129.173 61.0627 129.63 60.6339 130.451 60.6339C131.239 60.6339 131.644 61.0463 131.644 61.7569V61.7855C131.644 62.2306 131.186 62.2225 130.059 62.3532C128.871 62.492 127.654 62.8024 127.654 64.2276C127.654 65.4609 128.581 66.1388 129.773 66.1388ZM130.039 65.1587C129.349 65.1587 128.85 64.8484 128.85 64.244C128.85 63.5906 129.43 63.3578 130.137 63.2638C130.533 63.2108 131.472 63.1046 131.648 62.929V63.7376C131.648 64.4808 131.056 65.1587 130.039 65.1587ZM137.423 59.7273H136.137V58.2244H134.916V59.7273H133.997V60.7074H134.916V64.4114C134.912 65.5508 135.782 66.1021 136.745 66.0817C137.133 66.0776 137.395 66.0041 137.538 65.951L137.317 64.9423C137.235 64.9586 137.084 64.9954 136.888 64.9954C136.492 64.9954 136.137 64.8647 136.137 64.1582V60.7074H137.423V59.7273ZM138.774 66H139.995V59.7273H138.774V66ZM139.391 58.7594C139.811 58.7594 140.162 58.4327 140.162 58.0325C140.162 57.6323 139.811 57.3015 139.391 57.3015C138.966 57.3015 138.619 57.6323 138.619 58.0325C138.619 58.4327 138.966 58.7594 139.391 58.7594ZM144.28 66.1266C146.048 66.1266 147.204 64.832 147.204 62.8922C147.204 60.9402 146.048 59.6456 144.28 59.6456C142.512 59.6456 141.356 60.9402 141.356 62.8922C141.356 64.832 142.512 66.1266 144.28 66.1266ZM144.284 65.1016C143.128 65.1016 142.589 64.0929 142.589 62.8881C142.589 61.6875 143.128 60.6665 144.284 60.6665C145.432 60.6665 145.971 61.6875 145.971 62.8881C145.971 64.0929 145.432 65.1016 144.284 65.1016ZM149.788 62.2756C149.788 61.275 150.401 60.7033 151.25 60.7033C152.079 60.7033 152.581 61.2464 152.581 62.1571V66H153.802V62.0101C153.802 60.4583 152.949 59.6456 151.667 59.6456C150.723 59.6456 150.107 60.0826 149.817 60.7482H149.739V59.7273H148.567V66H149.788V62.2756ZM67.6463 80.1388C68.6836 80.1388 69.2676 79.612 69.5004 79.1424H69.5494V80H70.7418V75.8345C70.7418 74.0091 69.3043 73.6456 68.3079 73.6456C67.1726 73.6456 66.1271 74.103 65.7188 75.2464L66.8663 75.5078C67.046 75.0627 67.5034 74.6339 68.3242 74.6339C69.1124 74.6339 69.5167 75.0463 69.5167 75.7569V75.7855C69.5167 76.2306 69.0593 76.2225 67.9322 76.3532C66.7438 76.492 65.5268 76.8024 65.5268 78.2276C65.5268 79.4609 66.4538 80.1388 67.6463 80.1388ZM67.9118 79.1587C67.2216 79.1587 66.7234 78.8484 66.7234 78.244C66.7234 77.5906 67.3033 77.3578 68.0098 77.2638C68.4059 77.2108 69.3452 77.1046 69.5208 76.929V77.7376C69.5208 78.4808 68.9286 79.1587 67.9118 79.1587ZM75.2963 73.7273H74.0099V72.2244H72.7888V73.7273H71.87V74.7074H72.7888V78.4114C72.7848 79.5508 73.6546 80.1021 74.6184 80.0817C75.0063 80.0776 75.2677 80.0041 75.4106 79.951L75.1901 78.9423C75.1084 78.9586 74.9573 78.9954 74.7613 78.9954C74.3652 78.9954 74.0099 78.8647 74.0099 78.1582V74.7074H75.2963V73.7273ZM84.3501 73.8335H85.5671C85.5303 72.494 84.346 71.522 82.6472 71.522C80.9687 71.522 79.6823 72.4817 79.6823 73.9233C79.6823 75.0872 80.5154 75.7692 81.859 76.1326L82.8473 76.4022C83.7416 76.639 84.4318 76.9331 84.4318 77.6763C84.4318 78.4931 83.6518 79.0321 82.5777 79.0321C81.6058 79.0321 80.7972 78.5993 80.7237 77.6886H79.4577C79.5394 79.2037 80.7114 80.1388 82.5859 80.1388C84.5502 80.1388 85.6814 79.1056 85.6814 77.6886C85.6814 76.1816 84.3378 75.5977 83.2761 75.3363L82.4593 75.1239C81.8059 74.9565 80.936 74.6502 80.9401 73.8498C80.9401 73.1392 81.5894 72.6124 82.6186 72.6124C83.5783 72.6124 84.2603 73.0616 84.3501 73.8335ZM88.9168 80.1388C89.9541 80.1388 90.5381 79.612 90.7709 79.1424H90.8199V80H92.0123V75.8345C92.0123 74.0091 90.5748 73.6456 89.5784 73.6456C88.4431 73.6456 87.3976 74.103 86.9893 75.2464L88.1368 75.5078C88.3165 75.0627 88.7739 74.6339 89.5947 74.6339C90.3829 74.6339 90.7872 75.0463 90.7872 75.7569V75.7855C90.7872 76.2306 90.3298 76.2225 89.2027 76.3532C88.0143 76.492 86.7973 76.8024 86.7973 78.2276C86.7973 79.4609 87.7243 80.1388 88.9168 80.1388ZM89.1823 79.1587C88.4921 79.1587 87.9939 78.8484 87.9939 78.244C87.9939 77.5906 88.5738 77.3578 89.2803 77.2638C89.6764 77.2108 90.6157 77.1046 90.7913 76.929V77.7376C90.7913 78.4808 90.1991 79.1587 89.1823 79.1587ZM98.7802 73.7273H97.4693L95.8848 78.5543H95.8195L94.2309 73.7273H92.92L95.1987 80H96.5055L98.7802 73.7273ZM101.562 80.1388C102.6 80.1388 103.184 79.612 103.416 79.1424H103.465V80H104.658V75.8345C104.658 74.0091 103.22 73.6456 102.224 73.6456C101.089 73.6456 100.043 74.103 99.6348 75.2464L100.782 75.5078C100.962 75.0627 101.419 74.6339 102.24 74.6339C103.028 74.6339 103.433 75.0463 103.433 75.7569V75.7855C103.433 76.2306 102.975 76.2225 101.848 76.3532C100.66 76.492 99.4428 76.8024 99.4428 78.2276C99.4428 79.4609 100.37 80.1388 101.562 80.1388ZM101.828 79.1587C101.138 79.1587 100.639 78.8484 100.639 78.244C100.639 77.5906 101.219 77.3578 101.926 77.2638C102.322 77.2108 103.261 77.1046 103.437 76.929V77.7376C103.437 78.4808 102.845 79.1587 101.828 79.1587ZM110.985 75.2587C110.731 74.2827 109.968 73.6456 108.612 73.6456C107.195 73.6456 106.19 74.3929 106.19 75.5037C106.19 76.394 106.729 76.9862 107.905 77.2475L108.967 77.4803C109.572 77.6151 109.853 77.8846 109.853 78.2766C109.853 78.7626 109.335 79.1424 108.534 79.1424C107.803 79.1424 107.334 78.8279 107.187 78.2113L106.007 78.391C106.211 79.5018 107.134 80.1266 108.543 80.1266C110.058 80.1266 111.107 79.3221 111.107 78.1868C111.107 77.3006 110.544 76.7534 109.392 76.4879L108.396 76.2592C107.705 76.0959 107.407 75.8631 107.411 75.4384C107.407 74.9565 107.93 74.6135 108.624 74.6135C109.384 74.6135 109.735 75.0341 109.878 75.4547L110.985 75.2587ZM115.591 80H120.643V78.9137H116.853V71.6364H115.591V80ZM123.81 80.1388C124.847 80.1388 125.431 79.612 125.664 79.1424H125.713V80H126.905V75.8345C126.905 74.0091 125.468 73.6456 124.471 73.6456C123.336 73.6456 122.291 74.103 121.882 75.2464L123.03 75.5078C123.21 75.0627 123.667 74.6339 124.488 74.6339C125.276 74.6339 125.68 75.0463 125.68 75.7569V75.7855C125.68 76.2306 125.223 76.2225 124.096 76.3532C122.907 76.492 121.69 76.8024 121.69 78.2276C121.69 79.4609 122.617 80.1388 123.81 80.1388ZM124.075 79.1587C123.385 79.1587 122.887 78.8484 122.887 78.244C122.887 77.5906 123.467 77.3578 124.173 77.2638C124.569 77.2108 125.509 77.1046 125.684 76.929V77.7376C125.684 78.4808 125.092 79.1587 124.075 79.1587ZM128.63 80H129.822V79.024H129.924C130.145 79.4242 130.594 80.1225 131.738 80.1225C133.257 80.1225 134.359 78.9055 134.359 76.8759C134.359 74.8422 133.24 73.6456 131.725 73.6456C130.561 73.6456 130.141 74.3562 129.924 74.7441H129.851V71.6364H128.63V80ZM129.826 76.8636C129.826 75.5527 130.398 74.6829 131.464 74.6829C132.571 74.6829 133.126 75.6181 133.126 76.8636C133.126 78.1214 132.554 79.0811 131.464 79.0811C130.414 79.0811 129.826 78.1827 129.826 76.8636ZM140.431 75.2587C140.178 74.2827 139.414 73.6456 138.058 73.6456C136.641 73.6456 135.637 74.3929 135.637 75.5037C135.637 76.394 136.176 76.9862 137.352 77.2475L138.414 77.4803C139.018 77.6151 139.3 77.8846 139.3 78.2766C139.3 78.7626 138.781 79.1424 137.981 79.1424C137.25 79.1424 136.78 78.8279 136.633 78.2113L135.453 78.391C135.657 79.5018 136.58 80.1266 137.989 80.1266C139.504 80.1266 140.553 79.3221 140.553 78.1868C140.553 77.3006 139.99 76.7534 138.838 76.4879L137.842 76.2592C137.152 76.0959 136.854 75.8631 136.858 75.4384C136.854 74.9565 137.376 74.6135 138.071 74.6135C138.83 74.6135 139.181 75.0341 139.324 75.4547L140.431 75.2587Z" fill="#19142D"/>
<path d="M104.974 18.6055V33.9829C104.974 34.4346 104.61 34.8016 104.161 34.8016H99.1635C98.7151 34.8016 98.3507 34.4346 98.3507 33.9829V33.3524C96.8187 34.604 94.8008 35.3851 92.5494 35.3851C87.6542 35.3851 83.824 31.856 83.824 27.2165C83.824 22.5299 87.6636 19.0008 92.5494 19.0008C94.614 19.0008 96.4823 19.6313 97.9677 20.7418V18.662C97.9677 16.6763 96.7252 15.4247 94.8008 15.4247C93.3808 15.4247 92.2972 16.0834 91.8861 17.1374C91.746 17.5045 91.4097 17.7397 91.0173 17.7397H85.7952C85.1786 17.7397 84.7115 17.1374 84.8797 16.5351C86.0287 12.432 89.7188 9.57111 94.8849 9.57111C100.705 9.57111 104.974 13.2413 104.974 18.6055ZM97.9677 27.2071C97.9677 25.6166 96.4356 24.3556 94.4645 24.3556C92.5494 24.3556 91.008 25.6072 91.008 27.2071C91.008 28.7505 92.5401 30.0115 94.4645 30.0115C96.4356 30.0115 97.9677 28.7505 97.9677 27.2071Z" fill="#19142D"/>
<path d="M137.325 27.3009H141.959C142.501 27.3009 142.977 27.6491 143.173 28.1573C143.537 29.0889 144.481 29.7571 145.602 29.7571C146.947 29.7571 148.003 28.9384 148.003 27.8749C148.003 26.3316 146.088 25.6069 144.07 25.1646C140.38 24.2988 136.344 22.4072 136.344 17.3348C136.344 12.2623 140.613 9.55197 145.462 9.55197C150.114 9.55197 153.729 12.2247 154.514 15.8008C154.682 16.5537 154.113 17.2783 153.346 17.2783H148.582C148.134 17.2783 147.704 17.0242 147.554 16.6007C147.265 15.7631 146.443 15.1514 145.415 15.1514C144.266 15.1514 143.351 15.9231 143.351 16.8454C143.351 18.2476 145.032 19.0193 147.424 19.6028C151.114 20.525 155 22.2566 155 27.235C155 32.4016 150.731 35.3566 145.546 35.3566C140.66 35.3566 136.933 32.5051 136.148 28.7596C135.999 28.0161 136.559 27.3009 137.325 27.3009Z" fill="#19142D"/>
<path d="M82.8804 28.6845V33.8511C82.8804 34.3687 82.4601 34.7921 81.9462 34.7921H65.9342C65.4204 34.7921 65 34.3687 65 33.8511V2.39052C65 1.87292 65.4204 1.44943 65.9342 1.44943H71.4926C72.0064 1.44943 72.4268 1.87292 72.4268 2.39052V27.734H81.9462C82.4601 27.734 82.8804 28.1575 82.8804 28.6845Z" fill="#19142D"/>
<path d="M134.915 22.4732C134.915 29.8136 129.88 35.3755 123.116 35.3755C120.09 35.3755 117.549 34.1238 115.727 32.044V33.5686C115.727 34.2462 115.176 34.8014 114.503 34.8014H109.944C109.272 34.8014 108.72 34.2462 108.72 33.5686V1.23283C108.72 0.555243 109.272 0 109.944 0H114.494C115.166 0 115.718 0.555243 115.718 1.23283V12.9023C117.539 10.8225 120.08 9.57086 123.107 9.57086C129.88 9.57086 134.915 15.1233 134.915 22.4732ZM127.722 22.4732C127.722 18.9911 125.181 16.3843 121.724 16.3843C118.268 16.3843 115.727 18.9911 115.727 22.4732C115.727 25.9552 118.268 28.562 121.724 28.562C125.181 28.562 127.722 25.9458 127.722 22.4732Z" fill="#19142D"/>
</svg>
