<svg width="158" height="83" viewBox="0 0 158 83" fill="none" xmlns="http://www.w3.org/2000/svg">
<path d="M105.066 21.6668V37.7051C105.066 38.1893 104.703 38.5524 104.219 38.5524H98.9535C98.4694 38.5524 98.1062 38.1893 98.1062 37.7051V37.0394C96.4721 38.3709 94.3539 39.1576 91.9935 39.1576C86.8491 39.1576 82.7942 35.4658 82.7942 30.624C82.7942 25.7218 86.8491 22.0299 91.9935 22.0299C94.1723 22.0299 96.109 22.6957 97.6826 23.8456V21.6668C97.6826 19.609 96.3511 18.2775 94.3539 18.2775C92.8408 18.2775 91.7514 18.9433 91.2673 20.0932C91.1462 20.4563 90.7831 20.6984 90.3594 20.6984H84.8519C84.1862 20.6984 83.702 20.0932 83.8836 19.4275C85.094 15.1304 88.9674 12.1648 94.4144 12.1648C100.588 12.2253 105.066 16.0987 105.066 21.6668ZM97.6826 30.6846C97.6826 29.0505 96.0485 27.719 93.9907 27.719C91.9935 27.719 90.3594 29.0505 90.3594 30.6846C90.3594 32.3187 91.9935 33.5896 93.9907 33.5896C96.109 33.5896 97.6826 32.2581 97.6826 30.6846ZM139.08 30.7451H143.921C144.466 30.7451 145.011 31.1082 145.192 31.6529C145.556 32.6213 146.584 33.3475 147.734 33.3475C149.126 33.3475 150.276 32.5002 150.276 31.3503C150.276 29.7162 148.279 28.9899 146.161 28.5058C142.287 27.5979 138.051 25.6612 138.051 20.3353C138.051 15.0699 142.529 12.2253 147.613 12.2253C152.516 12.2253 156.328 15.0093 157.115 18.7617C157.297 19.5485 156.692 20.3353 155.905 20.3353H150.881C150.397 20.3353 149.974 20.0932 149.792 19.609C149.489 18.7617 148.642 18.096 147.553 18.096C146.342 18.096 145.374 18.8828 145.374 19.8511C145.374 21.3036 147.129 22.0904 149.671 22.6956C153.544 23.664 157.66 25.4797 157.66 30.6846C157.66 36.071 153.181 39.1576 147.734 39.1576C142.59 39.1576 138.656 36.1921 137.869 32.2581C137.688 31.5319 138.293 30.7451 139.08 30.7451ZM81.8258 32.1976V37.5841C81.8258 38.1288 81.4022 38.5524 80.8575 38.5524H64.0323C63.4876 38.5524 63.064 38.1288 63.064 37.5841V4.78112C63.064 4.23642 63.4876 3.81276 64.0323 3.81276H69.903C70.4477 3.81276 70.8713 4.23642 70.8713 4.78112V31.2293H80.8575C81.4022 31.2293 81.8258 31.6529 81.8258 32.1976ZM136.538 25.7218C136.538 33.4081 131.272 39.1576 124.131 39.1576C120.984 39.1576 118.26 37.8262 116.384 35.7079V37.2815C116.384 38.0077 115.779 38.5524 115.113 38.5524H110.332C109.605 38.5524 109.061 37.9472 109.061 37.2815V3.57068C109.061 2.84441 109.666 2.29971 110.332 2.29971H115.113C115.839 2.29971 116.384 2.90493 116.384 3.57068V15.7356C118.321 13.5568 120.984 12.2859 124.131 12.2859C131.272 12.2253 136.538 18.0354 136.538 25.7218ZM128.972 25.7218C128.972 22.0904 126.31 19.3669 122.678 19.3669C119.047 19.3669 116.384 22.0904 116.384 25.7218C116.384 29.3531 119.047 32.0766 122.678 32.0766C126.31 32.0766 128.972 29.3531 128.972 25.7218Z" fill="#635685"/>
<path d="M63.064 55.7407L66.2111 46.965H67.7242L70.8713 55.7407H69.4793L68.6925 53.4409H65.2428L64.456 55.7407H63.064ZM68.2689 52.291L66.9979 48.5386H66.9374L65.6664 52.291H68.2689ZM75.2894 49.1438H76.5604V50.2332H76.6814C76.9235 49.8095 77.3472 49.0833 78.5576 49.0833C80.1312 49.0833 81.3416 50.3542 81.3416 52.4725C81.3416 54.5908 80.1917 55.8618 78.5576 55.8618C77.3472 55.8618 76.863 55.1355 76.6209 54.7118H76.5604V58.2221H75.2894V49.1438ZM78.255 54.7724C79.4049 54.7724 80.0101 53.7435 80.0101 52.412C80.0101 51.0805 79.4049 50.1122 78.255 50.1122C77.1051 50.1122 76.5604 51.02 76.5604 52.412C76.5604 53.804 77.1656 54.7724 78.255 54.7724ZM84.0046 55.7407H82.7336V46.965H84.0046V55.7407ZM85.4571 53.8645C85.4571 52.3515 86.7281 52.0489 87.9991 51.8673C89.2095 51.7463 89.6937 51.7463 89.6937 51.2621C89.6937 50.5358 89.27 50.0516 88.4227 50.0516C87.5754 50.0516 87.0912 50.4753 86.9097 50.9595L85.6992 50.6569C86.1229 49.4464 87.2123 48.9622 88.4227 48.9622C89.4516 48.9622 90.9646 49.3254 90.9646 51.2621V55.6197H89.6937V54.7118H89.6332C89.3911 55.196 88.7858 55.7407 87.6964 55.7407C86.4255 55.8618 85.4571 55.1355 85.4571 53.8645ZM89.6332 53.3803V52.533C89.4516 52.7146 88.4832 52.8357 88.0596 52.8962C87.3333 53.0172 86.7281 53.2593 86.7281 53.925C86.7281 54.5303 87.2728 54.8934 87.9991 54.8934C89.0279 54.8329 89.6332 54.1066 89.6332 53.3803ZM92.3566 52.4725C92.3566 50.4753 93.5671 49.0833 95.4433 49.0833C96.9563 49.0833 98.0457 49.9911 98.1668 51.3226H96.8958C96.7748 50.7174 96.2301 50.1727 95.4433 50.1727C94.3539 50.1727 93.6276 51.0805 93.6276 52.4725C93.6276 53.925 94.3539 54.8329 95.4433 54.8329C96.1695 54.8329 96.7142 54.4092 96.8958 53.683H98.1668C98.0457 54.9539 97.0168 55.9223 95.4433 55.9223C93.5066 55.8618 92.3566 54.4697 92.3566 52.4725ZM99.2562 52.4725C99.2562 50.4753 100.467 49.0228 102.282 49.0228C103.795 49.0228 105.187 49.9306 105.187 52.3515V52.8357H100.527C100.588 54.1066 101.314 54.8329 102.403 54.8329C103.13 54.8329 103.674 54.5303 103.916 53.8645L105.127 54.1066C104.824 55.196 103.795 55.8618 102.403 55.8618C100.406 55.8618 99.2562 54.5303 99.2562 52.4725ZM103.916 51.8673C103.916 50.8384 103.251 50.1122 102.282 50.1122C101.253 50.1122 100.588 50.8989 100.527 51.8673H103.916ZM112.995 50.1727H111.603V55.7407H110.332V50.1727H109.303V49.1438H110.332V48.357C110.332 47.1466 111.24 46.4808 112.268 46.4808C112.813 46.4808 113.176 46.6019 113.358 46.6624L113.055 47.6913C112.934 47.6308 112.753 47.5702 112.45 47.5702C111.845 47.5702 111.603 47.8728 111.603 48.4781V49.0833H112.995V50.1727ZM113.721 52.4725C113.721 50.4148 114.931 49.0833 116.808 49.0833C118.684 49.0833 119.894 50.4148 119.894 52.4725C119.894 54.5303 118.684 55.8618 116.808 55.8618C114.931 55.8618 113.721 54.5303 113.721 52.4725ZM118.623 52.4725C118.623 51.2016 118.079 50.1122 116.868 50.1122C115.658 50.1122 115.113 51.2016 115.113 52.4725C115.113 53.7435 115.658 54.7724 116.868 54.7724C118.018 54.7724 118.623 53.7435 118.623 52.4725ZM121.347 49.1438H122.618V50.1727H122.678C122.92 49.4464 123.586 49.0228 124.373 49.0228C124.554 49.0228 124.796 49.0228 124.918 49.0228V50.2332C124.796 50.2332 124.494 50.1727 124.252 50.1727C123.344 50.1727 122.678 50.7779 122.678 51.6857V55.7407H121.407V49.1438H121.347ZM63.3061 64.5769C63.3061 62.5797 64.5165 61.1272 66.3322 61.1272C67.8452 61.1272 69.2372 62.035 69.2372 64.4559V64.9401H64.577C64.6375 66.211 65.3638 66.9373 66.4532 66.9373C67.1795 66.9373 67.7242 66.6347 67.9663 65.9689L69.1767 66.211C68.8741 67.3004 67.8452 67.9662 66.4532 67.9662C64.5165 67.9662 63.3061 66.6347 63.3061 64.5769ZM68.0268 63.9717C68.0268 62.9428 67.361 62.2166 66.3927 62.2166C65.3638 62.2166 64.6981 63.0034 64.6375 63.9717H68.0268ZM73.0501 63.7901L74.5026 61.2482H75.8946L73.8369 64.5164L75.8946 67.7846H74.5026L72.9896 65.3032L71.5371 67.7846H70.145L72.2028 64.5164L70.2056 61.2482H71.5976L73.0501 63.7901ZM77.2261 61.2482H78.4971V62.3376H78.6181C78.8602 61.914 79.2839 61.1877 80.4943 61.1877C82.0679 61.1877 83.2783 62.4587 83.2783 64.5769C83.2783 66.6952 82.1284 67.9662 80.4943 67.9662C79.2839 67.9662 78.7997 67.2399 78.5576 66.8162H78.4971V70.3265H77.2261V61.2482ZM80.1917 66.8768C81.3416 66.8768 81.9468 65.8479 81.9468 64.5164C81.9468 63.1849 81.3416 62.2166 80.1917 62.2166C79.0418 62.2166 78.4971 63.1244 78.4971 64.5164C78.4971 65.9084 79.1023 66.8768 80.1917 66.8768ZM84.4283 64.5769C84.4283 62.5797 85.6387 61.1272 87.4544 61.1272C88.9674 61.1272 90.3594 62.035 90.3594 64.4559V64.9401H85.6992C85.7597 66.211 86.486 66.9373 87.5754 66.9373C88.3017 66.9373 88.8464 66.6347 89.0885 65.9689L90.2989 66.211C89.9963 67.3004 88.9674 67.9662 87.5754 67.9662C85.5782 67.9662 84.4283 66.6347 84.4283 64.5769ZM89.0885 63.9717C89.0885 62.9428 88.4227 62.2166 87.4544 62.2166C86.4255 62.2166 85.7597 63.0034 85.6992 63.9717H89.0885ZM91.8119 61.2482H93.0829V62.2771H93.1434C93.3855 61.5508 94.0513 61.1272 94.838 61.1272C95.0196 61.1272 95.2617 61.1272 95.3828 61.1272V62.3376C95.2617 62.3376 94.9591 62.2771 94.717 62.2771C93.8092 62.2771 93.1434 62.8823 93.1434 63.7901V67.8451H91.8725V61.2482H91.8119ZM96.2906 59.4326C96.2906 59.0089 96.6537 58.6458 97.0774 58.6458C97.501 58.6458 97.8642 59.0089 97.8642 59.4326C97.8642 59.8562 97.501 60.2193 97.0774 60.2193C96.6537 60.2193 96.2906 59.8562 96.2906 59.4326ZM96.4721 61.2482H97.7431V67.8451H96.4721V61.2482ZM99.4982 61.2482H100.709V62.3376H100.769C101.072 61.6113 101.677 61.1877 102.585 61.1877C103.493 61.1877 104.098 61.6113 104.34 62.3376H104.401C104.703 61.6113 105.429 61.1877 106.398 61.1877C107.608 61.1877 108.456 61.914 108.456 63.427V67.8451H107.124V63.5481C107.124 62.6402 106.579 62.2771 105.914 62.2771C105.066 62.2771 104.582 62.8823 104.582 63.6691V67.8451H103.311V63.4875C103.311 62.7613 102.827 62.2771 102.101 62.2771C101.374 62.2771 100.769 62.8823 100.769 63.7901V67.8451H99.4982V61.2482ZM109.848 64.5769C109.848 62.5797 111.058 61.1272 112.874 61.1272C114.387 61.1272 115.779 62.035 115.779 64.4559V64.9401H111.118C111.179 66.211 111.905 66.9373 112.995 66.9373C113.721 66.9373 114.266 66.6347 114.508 65.9689L115.718 66.211C115.416 67.3004 114.387 67.9662 112.995 67.9662C111.058 67.9662 109.848 66.6347 109.848 64.5769ZM114.568 63.9717C114.568 62.9428 113.903 62.2166 112.934 62.2166C111.905 62.2166 111.24 63.0034 111.179 63.9717H114.568ZM118.563 67.8451H117.292V61.2482H118.502V62.3376H118.563C118.865 61.6113 119.531 61.1877 120.499 61.1877C121.831 61.1877 122.739 62.035 122.739 63.6691V67.8451H121.468V63.7901C121.468 62.8218 120.923 62.2771 120.076 62.2771C119.168 62.2771 118.563 62.8823 118.563 63.9112V67.8451ZM127.58 62.2771H126.249V65.9084C126.249 66.6347 126.612 66.8162 127.036 66.8162C127.217 66.8162 127.399 66.7557 127.459 66.7557L127.702 67.8451C127.58 67.9056 127.278 67.9662 126.854 67.9662C125.825 67.9662 124.918 67.4215 124.918 66.211V62.3376H123.949V61.3087H124.918V59.7352H126.188V61.3087H127.52V62.2771H127.58ZM128.67 65.9689C128.67 64.4559 129.941 64.1533 131.212 63.9717C132.422 63.8507 132.906 63.8507 132.906 63.3665C132.906 62.6402 132.483 62.156 131.635 62.156C130.788 62.156 130.304 62.5797 130.122 63.0639L128.912 62.7613C129.336 61.5508 130.425 61.0667 131.635 61.0667C132.664 61.0667 134.177 61.4298 134.177 63.3665V67.7241H132.906V66.8162H132.846C132.604 67.3004 131.999 67.8451 130.909 67.8451C129.699 67.9662 128.67 67.2399 128.67 65.9689ZM132.906 65.4848V64.6375C132.725 64.819 131.757 64.9401 131.333 65.0006C130.607 65.1216 130.001 65.3637 130.001 66.0295C130.001 66.6347 130.546 66.9978 131.272 66.9978C132.301 66.9373 132.906 66.211 132.906 65.4848ZM138.959 62.2771H137.627V65.9084C137.627 66.6347 137.99 66.8162 138.414 66.8162C138.595 66.8162 138.777 66.7557 138.838 66.7557L139.08 67.8451C138.959 67.9056 138.656 67.9662 138.232 67.9662C137.203 67.9662 136.296 67.4215 136.296 66.211V62.3376H135.327V61.3087H136.296V59.7352H137.567V61.3087H138.898V62.2771H138.959ZM140.23 59.4326C140.23 59.0089 140.593 58.6458 141.016 58.6458C141.44 58.6458 141.803 59.0089 141.803 59.4326C141.803 59.8562 141.44 60.2193 141.016 60.2193C140.593 60.2193 140.23 59.8562 140.23 59.4326ZM140.411 61.2482H141.682V67.8451H140.411V61.2482ZM143.135 64.5769C143.135 62.5192 144.345 61.1877 146.221 61.1877C148.097 61.1877 149.308 62.5192 149.308 64.5769C149.308 66.6347 148.097 67.9662 146.221 67.9662C144.345 67.9662 143.135 66.6347 143.135 64.5769ZM147.976 64.5769C147.976 63.306 147.432 62.2166 146.221 62.2166C145.011 62.2166 144.466 63.306 144.466 64.5769C144.466 65.8479 145.011 66.8768 146.221 66.8768C147.371 66.8768 147.976 65.8479 147.976 64.5769ZM151.971 67.8451H150.7V61.2482H151.91V62.3376H151.971C152.273 61.6113 152.939 61.1877 153.908 61.1877C155.239 61.1877 156.147 62.035 156.147 63.6691V67.8451H154.936V63.7901C154.936 62.8218 154.392 62.2771 153.544 62.2771C152.637 62.2771 152.031 62.8823 152.031 63.9112V67.8451H151.971ZM63.3061 78.0733C63.3061 76.5603 64.577 76.2577 65.848 76.0761C67.0584 75.9551 67.5426 75.9551 67.5426 75.4709C67.5426 74.7446 67.1189 74.2605 66.2716 74.2605C65.4243 74.2605 64.9402 74.6841 64.7586 75.1683L63.5481 74.8657C63.9718 73.6552 65.0612 73.1711 66.2716 73.1711C67.3005 73.1711 68.8136 73.5342 68.8136 75.4709V79.8285H67.5426V78.9207H67.4821C67.24 79.4048 66.6348 79.9495 65.5454 79.9495C64.2744 80.0706 63.3061 79.3443 63.3061 78.0733ZM67.4821 77.5892V76.7419C67.3005 76.9234 66.3322 77.0445 65.9085 77.105C65.1822 77.226 64.577 77.4681 64.577 78.1339C64.577 78.7391 65.1217 79.1022 65.848 79.1022C66.8769 79.0417 67.4821 78.3154 67.4821 77.5892ZM73.5948 74.3815H72.2633V78.0128C72.2633 78.7391 72.6265 78.9207 73.0501 78.9207C73.2317 78.9207 73.4132 78.8601 73.4738 78.8601L73.7159 79.9495C73.5948 80.0101 73.2922 80.0706 72.8685 80.0706C71.8397 80.0706 70.9318 79.5259 70.9318 78.3154V74.442H69.9635V73.4132H70.9318V71.8396H72.2028V73.4132H73.5343V74.3815H73.5948ZM81.2811 72.1422C80.1917 72.1422 79.526 72.6869 79.526 73.4737C79.526 74.321 80.4338 74.6236 81.0995 74.8052L81.9468 75.0472C83.0362 75.3499 84.4888 75.9551 84.4888 77.5287C84.4888 79.0417 83.2783 80.1311 81.2206 80.1311C79.2234 80.1311 78.0129 79.1628 77.9524 77.5287H79.2839C79.3444 78.497 80.1917 78.9207 81.2206 78.9207C82.3705 78.9207 83.1573 78.376 83.1573 77.4681C83.1573 76.6813 82.431 76.3787 81.4627 76.1366L80.4338 75.834C79.0418 75.4709 78.134 74.7446 78.134 73.5342C78.134 72.0211 79.4654 70.9923 81.2811 70.9923C83.0968 70.9923 84.3072 72.0211 84.3677 73.4132H83.0968C82.9757 72.6264 82.31 72.1422 81.2811 72.1422ZM85.6992 78.0733C85.6992 76.5603 86.9702 76.2577 88.2411 76.0761C89.4516 75.9551 89.9358 75.9551 89.9358 75.4709C89.9358 74.7446 89.5121 74.2605 88.6648 74.2605C87.8175 74.2605 87.3333 74.6841 87.1517 75.1683L85.9413 74.8657C86.365 73.6552 87.4544 73.1711 88.6648 73.1711C89.6937 73.1711 91.2067 73.5342 91.2067 75.4709V79.8285H89.9358V78.9207H89.8752C89.6332 79.4048 89.0279 79.9495 87.9385 79.9495C86.6676 80.0706 85.6992 79.3443 85.6992 78.0733ZM89.8752 77.5892V76.7419C89.6937 76.9234 88.7253 77.0445 88.3017 77.105C87.5754 77.226 86.9702 77.4681 86.9702 78.1339C86.9702 78.7391 87.5149 79.1022 88.2411 79.1022C89.27 79.0417 89.8752 78.3154 89.8752 77.5892ZM95.8669 79.9495H94.4749L92.054 73.3526H93.446L95.1407 78.4365H95.2012L96.8958 73.3526H98.2878L95.8669 79.9495ZM98.9535 78.0733C98.9535 76.5603 100.225 76.2577 101.495 76.0761C102.706 75.9551 103.19 75.9551 103.19 75.4709C103.19 74.7446 102.766 74.2605 101.919 74.2605C101.072 74.2605 100.588 74.6841 100.406 75.1683L99.1956 74.8657C99.6193 73.6552 100.709 73.1711 101.919 73.1711C102.948 73.1711 104.461 73.5342 104.461 75.4709V79.8285H103.19V78.9207H103.13C102.887 79.4048 102.282 79.9495 101.193 79.9495C99.9824 80.0706 98.9535 79.3443 98.9535 78.0733ZM103.19 77.5892V76.7419C103.009 76.9234 102.04 77.0445 101.617 77.105C100.89 77.226 100.285 77.4681 100.285 78.1339C100.285 78.7391 100.83 79.1022 101.556 79.1022C102.585 79.0417 103.19 78.3154 103.19 77.5892ZM109.969 75.1683C109.848 74.7446 109.424 74.2605 108.637 74.2605C107.911 74.2605 107.366 74.6236 107.366 75.1078C107.366 75.5314 107.669 75.7735 108.395 75.9551L109.424 76.1972C110.634 76.4998 111.24 77.0445 111.24 78.0128C111.24 79.2233 110.15 80.0706 108.516 80.0706C107.064 80.0706 106.035 79.4048 105.853 78.2549L107.124 78.0733C107.306 78.7391 107.79 79.0417 108.516 79.0417C109.363 79.0417 109.908 78.618 109.908 78.1339C109.908 77.7102 109.605 77.4681 109 77.2866L107.911 77.0445C106.7 76.7419 106.095 76.1366 106.095 75.2288C106.095 74.0789 107.124 73.2921 108.637 73.2921C110.09 73.2921 110.876 73.9578 111.118 74.9867L109.969 75.1683ZM115.96 71.1738H117.292V78.7996H121.286V79.9495H115.96V71.1738ZM122.376 78.0733C122.376 76.5603 123.647 76.2577 124.918 76.0761C126.128 75.9551 126.612 75.9551 126.612 75.4709C126.612 74.7446 126.188 74.2605 125.341 74.2605C124.494 74.2605 124.01 74.6841 123.828 75.1683L122.618 74.8657C123.041 73.6552 124.131 73.1711 125.341 73.1711C126.37 73.1711 127.883 73.5342 127.883 75.4709V79.8285H126.612V78.9207H126.552C126.31 79.4048 125.704 79.9495 124.615 79.9495C123.344 80.0706 122.376 79.3443 122.376 78.0733ZM126.612 77.5892V76.7419C126.431 76.9234 125.462 77.0445 125.039 77.105C124.312 77.226 123.707 77.4681 123.707 78.1339C123.707 78.7391 124.252 79.1022 124.978 79.1022C125.946 79.0417 126.612 78.3154 126.612 77.5892ZM129.699 71.1738H130.97V74.442H131.03C131.272 74.0184 131.696 73.2921 132.906 73.2921C134.48 73.2921 135.69 74.5631 135.69 76.6813C135.69 78.7996 134.541 80.0706 132.906 80.0706C131.696 80.0706 131.212 79.3443 130.97 78.9207H130.849V79.9495H129.578V71.1738H129.699ZM132.664 78.9812C133.814 78.9812 134.419 77.9523 134.419 76.6208C134.419 75.2893 133.814 74.321 132.664 74.321C131.514 74.321 130.97 75.2288 130.97 76.6208C130.97 78.0128 131.575 78.9812 132.664 78.9812ZM140.956 75.1683C140.835 74.7446 140.411 74.2605 139.624 74.2605C138.898 74.2605 138.353 74.6236 138.353 75.1078C138.353 75.5314 138.656 75.7735 139.382 75.9551L140.411 76.1972C141.622 76.4998 142.227 77.0445 142.227 78.0128C142.227 79.2233 141.137 80.0706 139.503 80.0706C138.051 80.0706 137.022 79.4048 136.84 78.2549L138.111 78.0733C138.293 78.7391 138.777 79.0417 139.503 79.0417C140.351 79.0417 140.895 78.618 140.895 78.1339C140.895 77.7102 140.593 77.4681 139.988 77.2866L138.898 77.0445C137.688 76.7419 137.082 76.1366 137.082 75.2288C137.082 74.0789 138.111 73.2921 139.624 73.2921C141.077 73.2921 141.864 73.9578 142.106 74.9867L140.956 75.1683Z" fill="#635685"/>
<path d="M5.2049 5.5681C4.72072 5.0234 5.14438 4.17609 5.87064 4.17609H13.8596C16.2804 4.17609 18.6408 3.87348 20.9406 3.20774C23.2405 2.542 25.6008 2.17886 28.1428 2.17886C30.6847 2.17886 33.045 2.542 35.3449 3.20774C37.6447 3.87348 40.0656 4.17609 42.426 4.17609H50.4149C51.1411 4.17609 51.5648 5.0234 51.0806 5.62862L47.8124 9.50203C47.3888 9.98621 47.3888 10.7125 47.8124 11.1966C48.9624 12.5281 49.9912 13.9807 50.8385 15.4937C48.7203 12.6492 45.331 10.894 41.6997 10.894H14.7069C10.8335 10.894 7.20213 12.8913 5.14438 16.1595C6.05221 14.4043 7.20213 12.7097 8.53361 11.1966C8.95727 10.7125 8.95727 9.98621 8.53361 9.50203L5.2049 5.5681ZM25.6008 20.8802C25.6008 18.5198 23.6641 16.5226 21.2432 16.5226C18.8224 16.5226 16.9462 18.4593 16.9462 20.8802C16.9462 23.3011 18.8829 25.2378 21.3038 25.2378C23.7247 25.2378 25.6008 23.2405 25.6008 20.8802ZM34.9818 25.1772C32.6214 25.1772 30.6242 23.2405 30.6242 20.8197C30.6242 18.3988 32.5609 16.4621 34.9818 16.4621C37.4026 16.4621 39.3393 18.3988 39.3393 20.8197C39.3393 23.2405 37.4026 25.1772 34.9818 25.1772ZM10.8335 54.1068C10.8335 44.5443 18.5803 36.7975 28.1428 36.7975C37.7052 36.7975 45.4521 44.5443 45.4521 54.1068V70.9924C40.5498 70.0846 35.9501 67.7848 32.3793 64.214C27.7191 59.5538 25.1167 53.32 25.1167 46.7231C25.1167 44.7259 25.3587 42.7892 25.7824 40.913C26.0245 40.0051 25.1772 39.1578 24.2693 39.3999C22.03 40.0051 19.9118 41.0945 18.1566 42.6681C18.0356 42.7892 17.9145 42.9102 17.7935 43.0312C17.0067 43.7575 16.5225 44.8469 16.5225 45.9363C16.5225 46.1784 16.5225 46.4205 16.5225 46.7231C16.5225 51.2017 17.4304 55.5593 19.125 59.6748C20.8196 63.6693 23.18 67.1796 26.2666 70.2662C29.3532 73.3528 32.8635 75.7132 36.8579 77.4078C40.9734 79.1629 45.331 80.0102 49.8097 80.0102H52.8358C53.562 80.0102 54.1067 79.405 54.1067 78.7393V54.1068C54.1067 49.3861 52.8358 44.968 50.5964 41.0945C52.8358 37.2817 54.1067 32.8635 54.1067 28.0823V28.0218C53.9857 28.0823 53.8041 28.0823 53.6831 28.0823H51.3832C49.3255 31.4715 45.6336 33.5293 41.6997 33.5293C38.4315 33.5293 35.3449 32.0768 33.1661 29.6559C32.7424 29.2322 32.2583 28.8086 31.7741 28.506C31.532 28.627 31.2294 28.748 31.0478 28.9901L28.2033 32.3794L25.3587 28.9901C25.1772 28.8086 24.9351 28.627 24.693 28.506C24.1483 28.8086 23.6641 29.2322 23.2405 29.7164C22.3932 30.6848 21.3643 31.4715 20.2144 32.1373C18.5803 33.0451 16.7041 33.5293 14.8279 33.5293C10.8335 33.5293 7.14161 31.4715 5.08386 28.0823H2.66297C2.48141 28.0823 2.36036 28.0218 2.23932 28.0218V28.0823C2.23932 32.803 3.51028 37.2817 5.7496 41.0945C3.51028 44.9074 2.23932 49.3255 2.23932 54.0463C2.23932 60.28 4.41811 65.9691 8.10996 70.4477C12.8912 76.2579 20.0933 80.0102 28.2033 80.0102C29.3532 80.0102 30.4426 79.9497 31.532 79.8287C32.7424 79.6471 33.1056 78.0735 32.0162 77.4078C29.3532 75.8947 26.9323 74.0185 24.7535 71.7792C24.1483 71.174 23.422 70.6898 22.5747 70.3872C19.4276 69.2978 16.6436 67.3006 14.5858 64.6982C12.2255 61.8536 10.8335 58.1618 10.8335 54.1068Z" fill="#635685"/>
<path d="M53.683 17.1278H50.7175C48.9018 13.8596 45.452 11.8624 41.6997 11.8624H14.7068C10.9545 11.8624 7.50471 13.8596 5.68905 17.1278H2.60243C2.36034 17.1278 2.17877 17.3094 2.17877 17.5515V26.6903C2.17877 26.9324 2.36034 27.114 2.60243 27.114H5.56801C8.2915 32.1373 14.5858 34.0135 19.6091 31.29C20.638 30.7453 21.6064 29.9585 22.3931 29.1112C23.8457 27.4771 25.9639 26.5693 28.1427 26.5693C30.3215 26.5693 32.3793 27.4771 33.8318 29.0507C35.829 31.29 38.6131 32.5609 41.6392 32.5609C45.452 32.5609 48.9623 30.4427 50.778 27.114H53.683C53.9251 27.114 54.1067 26.9324 54.1067 26.6903V17.5515C54.1067 17.3094 53.9251 17.1278 53.683 17.1278ZM41.6392 31.7136C38.9157 31.7136 36.4343 30.5637 34.5581 28.506C32.924 26.7508 30.6241 25.7219 28.2033 25.7219C25.7824 25.7219 23.422 26.7508 21.7879 28.5665C18.2776 32.4399 12.286 32.7425 8.41254 29.2322C4.53913 25.7219 4.23652 19.7303 7.7468 15.8569C9.56246 13.8596 12.1044 12.7097 14.7674 12.7097H41.6997C46.9046 12.7097 51.2016 16.9462 51.2016 22.2117C51.2016 27.4771 46.9046 31.7136 41.6392 31.7136Z" fill="#635685"/>
</svg>
