<svg width="195.09" height="100" viewBox="0 0 210 109" fill="none" xmlns="http://www.w3.org/2000/svg">
<path opacity="0.8" d="M125.927 83.9372L135.786 45.501C136.936 41.0246 135.614 36.2719 132.323 33.032L104.081 5.24798C100.79 2.00812 96.0253 0.778489 91.5914 2.02193L53.4759 12.6741C49.0351 13.9175 45.5926 17.4406 44.4428 21.917L34.5903 60.3533C33.4405 64.8297 34.7624 69.5824 38.0535 72.8222L66.3027 100.606C69.5937 103.846 74.3582 105.076 78.7921 103.832L116.901 93.1802C121.342 91.9367 124.784 88.4136 125.927 83.9372Z" fill="url(#paint0_linear)"/>
<path opacity="0.8" d="M24.2835 40.9902L5.94184 53.2657C2.34097 55.6766 0.296122 59.8352 0.571523 64.1666L1.99672 86.2446C2.27901 90.5828 4.84024 94.4375 8.72339 96.358L28.4903 106.16C32.3734 108.088 36.9864 107.784 40.5873 105.373L58.929 93.0974C62.5298 90.6865 64.5747 86.5278 64.2993 82.1965L62.8741 60.1185C62.5918 55.7802 60.0306 51.9256 56.1474 50.0051L36.3805 40.2026C32.4974 38.2753 27.8913 38.5793 24.2835 40.9902Z" fill="url(#paint1_linear)"/>
<path d="M95.9494 42.0511C95.8481 41.9497 95.6599 41.8122 95.3849 41.6385C95.1243 41.4648 94.7987 41.2983 94.4078 41.1391C94.0315 40.9654 93.6189 40.8207 93.1702 40.7049C92.7215 40.5891 92.2655 40.5312 91.8023 40.5312C90.9772 40.5312 90.362 40.6832 89.9567 40.9871C89.5514 41.2911 89.3488 41.7181 89.3488 42.2682C89.3488 42.5866 89.4212 42.8544 89.5659 43.0715C89.7251 43.2742 89.9495 43.4551 90.239 43.6144C90.5285 43.7736 90.8904 43.9183 91.3246 44.0486C91.7734 44.1789 92.2872 44.3164 92.8662 44.4612C93.6189 44.6638 94.2993 44.8809 94.9072 45.1125C95.5296 45.3441 96.0507 45.6336 96.4705 45.981C96.9048 46.3284 97.2377 46.7482 97.4693 47.2404C97.7009 47.7181 97.8167 48.3115 97.8167 49.0208C97.8167 49.8459 97.6575 50.5552 97.339 51.1486C97.0351 51.7277 96.6153 52.1981 96.0797 52.56C95.5586 52.9218 94.9506 53.1896 94.2558 53.3633C93.5755 53.5226 92.859 53.6022 92.1063 53.6022C90.9483 53.6022 89.8047 53.4285 88.6757 53.0811C87.5466 52.7337 86.5334 52.2415 85.6359 51.6046L86.9604 49.0208C87.0907 49.1511 87.3223 49.3248 87.6552 49.5419C88.0026 49.7446 88.4079 49.9545 88.8711 50.1716C89.3343 50.3742 89.8482 50.5479 90.4127 50.6927C90.9772 50.8374 91.5562 50.9098 92.1497 50.9098C93.7999 50.9098 94.625 50.3815 94.625 49.3248C94.625 48.9919 94.5309 48.7096 94.3427 48.478C94.1545 48.2464 93.8867 48.0437 93.5393 47.87C93.1919 47.6963 92.7721 47.5371 92.28 47.3924C91.7878 47.2476 91.2378 47.0884 90.6298 46.9147C89.8916 46.712 89.2475 46.4949 88.6974 46.2633C88.1618 46.0172 87.7131 45.735 87.3512 45.4165C86.9893 45.0836 86.7143 44.7072 86.5261 44.2875C86.3524 43.8532 86.2656 43.3393 86.2656 42.7459C86.2656 41.9642 86.4103 41.2694 86.6998 40.6614C86.9893 40.0535 87.3874 39.5469 87.894 39.1416C88.4151 38.7363 89.0159 38.4323 89.6962 38.2296C90.3765 38.0125 91.1075 37.9039 91.8892 37.9039C92.9748 37.9039 93.9736 38.0776 94.8855 38.425C95.7974 38.758 96.5936 39.156 97.2739 39.6192L95.9494 42.0511Z" fill="#593EBF"/>
<path d="M110.123 53.4285H107.214V47.045C107.214 46.1475 107.047 45.4889 106.714 45.0691C106.381 44.6349 105.911 44.4177 105.303 44.4177C105.042 44.4177 104.767 44.4756 104.478 44.5914C104.188 44.7072 103.913 44.8737 103.653 45.0908C103.392 45.2935 103.153 45.5395 102.936 45.8291C102.719 46.1186 102.56 46.437 102.458 46.7844V53.4285H99.549V37.5782H102.458V44.1572C102.878 43.4189 103.443 42.8544 104.152 42.4636C104.876 42.0583 105.672 41.8556 106.54 41.8556C107.279 41.8556 107.879 41.9859 108.343 42.2465C108.806 42.4925 109.168 42.8255 109.428 43.2452C109.689 43.665 109.87 44.1427 109.971 44.6783C110.072 45.2139 110.123 45.7639 110.123 46.3284V53.4285Z" fill="#593EBF"/>
<path d="M117.658 53.6456C116.731 53.6456 115.899 53.4864 115.161 53.1679C114.422 52.8495 113.793 52.4225 113.272 51.8869C112.765 51.3368 112.374 50.7072 112.099 49.9979C111.824 49.2886 111.687 48.5431 111.687 47.7615C111.687 46.9653 111.824 46.2126 112.099 45.5034C112.374 44.7941 112.765 44.1717 113.272 43.6361C113.793 43.086 114.422 42.6518 115.161 42.3333C115.899 42.0149 116.731 41.8556 117.658 41.8556C118.584 41.8556 119.409 42.0149 120.133 42.3333C120.871 42.6518 121.494 43.086 122 43.6361C122.521 44.1717 122.919 44.7941 123.194 45.5034C123.469 46.2126 123.607 46.9653 123.607 47.7615C123.607 48.5431 123.469 49.2886 123.194 49.9979C122.919 50.7072 122.529 51.3368 122.022 51.8869C121.515 52.4225 120.893 52.8495 120.155 53.1679C119.416 53.4864 118.584 53.6456 117.658 53.6456ZM114.683 47.7615C114.683 48.2681 114.755 48.7313 114.9 49.1511C115.059 49.5564 115.269 49.911 115.53 50.215C115.805 50.519 116.123 50.7578 116.485 50.9315C116.847 51.0907 117.238 51.1704 117.658 51.1704C118.077 51.1704 118.468 51.0907 118.83 50.9315C119.192 50.7578 119.503 50.519 119.764 50.215C120.039 49.911 120.249 49.5492 120.393 49.1294C120.553 48.7096 120.632 48.2464 120.632 47.7398C120.632 47.2476 120.553 46.7916 120.393 46.3719C120.249 45.9521 120.039 45.5902 119.764 45.2862C119.503 44.9823 119.192 44.7507 118.83 44.5914C118.468 44.4177 118.077 44.3309 117.658 44.3309C117.238 44.3309 116.847 44.4177 116.485 44.5914C116.123 44.7651 115.805 45.004 115.53 45.3079C115.269 45.6119 115.059 45.9738 114.9 46.3936C114.755 46.8134 114.683 47.2693 114.683 47.7615Z" fill="#593EBF"/>
<path d="M128.795 53.6456C127.623 53.6456 126.732 53.2693 126.124 52.5165C125.516 51.7638 125.212 50.6493 125.212 49.1728V42.0511H128.122V48.5431C128.122 50.2946 128.752 51.1704 130.011 51.1704C130.575 51.1704 131.118 51.0039 131.639 50.671C132.175 50.3236 132.609 49.8025 132.942 49.1077V42.0511H135.852V50.0847C135.852 50.3887 135.902 50.6058 136.004 50.7361C136.119 50.8664 136.3 50.9388 136.546 50.9532V53.4285C136.257 53.4864 136.011 53.5226 135.808 53.537C135.62 53.5515 135.446 53.5588 135.287 53.5588C134.766 53.5588 134.339 53.443 134.006 53.2114C133.688 52.9653 133.499 52.6323 133.442 52.2126L133.376 51.3006C132.87 52.0823 132.218 52.6685 131.422 53.0594C130.626 53.4502 129.75 53.6456 128.795 53.6456Z" fill="#593EBF"/>
<path d="M138.472 37.5782H141.381V49.7808C141.381 50.2005 141.482 50.5262 141.685 50.7578C141.888 50.9894 142.177 51.1052 142.554 51.1052C142.727 51.1052 142.915 51.0763 143.118 51.0184C143.335 50.9605 143.538 50.8881 143.726 50.8012L144.117 53.0159C143.726 53.2041 143.27 53.3489 142.749 53.4502C142.228 53.5515 141.757 53.6022 141.338 53.6022C140.426 53.6022 139.716 53.3633 139.21 52.8857C138.718 52.3935 138.472 51.6987 138.472 50.8012V37.5782Z" fill="#593EBF"/>
<path d="M149.846 53.6456C149.065 53.6456 148.341 53.4936 147.675 53.1896C147.009 52.8857 146.438 52.4659 145.96 51.9303C145.482 51.3947 145.106 50.7723 144.831 50.063C144.57 49.3393 144.44 48.5648 144.44 47.7398C144.44 46.9147 144.563 46.1475 144.809 45.4382C145.07 44.7289 145.424 44.1065 145.873 43.5709C146.322 43.0354 146.857 42.6156 147.48 42.3116C148.102 42.0076 148.783 41.8556 149.521 41.8556C150.36 41.8556 151.113 42.0583 151.779 42.4636C152.459 42.8689 152.988 43.3972 153.364 44.0486V37.5782H156.273V50.0847C156.273 50.3887 156.324 50.6058 156.425 50.7361C156.527 50.8664 156.7 50.9388 156.947 50.9532V53.4285C156.44 53.5298 156.027 53.5805 155.709 53.5805C155.188 53.5805 154.761 53.4502 154.428 53.1896C154.095 52.9291 153.907 52.5889 153.863 52.1691L153.798 51.4526C153.378 52.1764 152.807 52.7264 152.083 53.1028C151.374 53.4647 150.628 53.6456 149.846 53.6456ZM150.606 51.1704C150.881 51.1704 151.164 51.1269 151.453 51.0401C151.743 50.9388 152.011 50.8012 152.257 50.6275C152.503 50.4538 152.72 50.2512 152.908 50.0196C153.111 49.788 153.263 49.5347 153.364 49.2596V46.5456C153.248 46.2271 153.082 45.9376 152.865 45.6771C152.662 45.402 152.423 45.1704 152.148 44.9823C151.887 44.7796 151.605 44.6204 151.301 44.5046C151.012 44.3888 150.722 44.3309 150.433 44.3309C149.998 44.3309 149.593 44.425 149.217 44.6131C148.855 44.8013 148.544 45.0619 148.283 45.3948C148.023 45.7133 147.82 46.0824 147.675 46.5021C147.53 46.9219 147.458 47.3562 147.458 47.8049C147.458 48.2826 147.538 48.7241 147.697 49.1294C147.856 49.5347 148.073 49.8893 148.348 50.1933C148.623 50.4973 148.949 50.7361 149.325 50.9098C149.716 51.0835 150.143 51.1704 150.606 51.1704Z" fill="#593EBF"/>
<path d="M164.128 53.4285V38.0125H167.125V53.4285H164.128Z" fill="#593EBF"/>
<path d="M178.765 38.0125H181.414L187.277 53.4285H184.193L182.76 49.5853H177.376L175.964 53.4285H172.881L178.765 38.0125ZM182.217 47.4792L180.09 41.4214L177.875 47.4792H182.217Z" fill="#593EBF"/>
<path d="M192.607 53.6456C191.652 53.6456 190.718 53.4936 189.806 53.1896C188.894 52.8857 188.113 52.4514 187.461 51.8869L188.547 50.063C189.242 50.5552 189.915 50.9315 190.566 51.1921C191.232 51.4382 191.891 51.5612 192.542 51.5612C193.121 51.5612 193.577 51.4526 193.91 51.2355C194.243 51.0184 194.409 50.7072 194.409 50.3019C194.409 49.8966 194.214 49.5998 193.823 49.4116C193.432 49.2235 192.795 49.0063 191.913 48.7603C191.174 48.5576 190.545 48.3622 190.024 48.174C189.502 47.9858 189.083 47.776 188.764 47.5443C188.446 47.2983 188.214 47.0232 188.069 46.7193C187.925 46.4008 187.852 46.0245 187.852 45.5902C187.852 45.0112 187.961 44.4901 188.178 44.0269C188.41 43.5637 188.728 43.1729 189.133 42.8544C189.539 42.5215 190.009 42.2682 190.545 42.0945C191.095 41.9208 191.688 41.8339 192.325 41.8339C193.179 41.8339 193.975 41.957 194.713 42.203C195.466 42.4491 196.154 42.8472 196.776 43.3972L195.604 45.156C195.025 44.7217 194.46 44.4033 193.91 44.2006C193.374 43.998 192.839 43.8966 192.303 43.8966C191.811 43.8966 191.399 43.998 191.066 44.2006C190.733 44.4033 190.566 44.7289 190.566 45.1777C190.566 45.3803 190.603 45.5468 190.675 45.6771C190.762 45.8073 190.892 45.9231 191.066 46.0245C191.239 46.1258 191.464 46.2271 191.739 46.3284C192.028 46.4153 192.383 46.5094 192.803 46.6107C193.584 46.8134 194.25 47.016 194.8 47.2187C195.365 47.4213 195.821 47.6529 196.168 47.9135C196.53 48.174 196.791 48.478 196.95 48.8254C197.124 49.1583 197.21 49.5636 197.21 50.0413C197.21 51.1559 196.798 52.0389 195.973 52.6902C195.148 53.3272 194.026 53.6456 192.607 53.6456Z" fill="#593EBF"/>
<path d="M206.624 53.4285L203.324 48.4997L201.761 50.0413V53.4285H198.851V37.5782H201.761V47.1969L206.32 42.0728H209.425L205.191 46.893L209.729 53.4285H206.624Z" fill="#593EBF"/>
<path d="M86.765 75.1411V59.7251H97.1219V62.3524H89.7613V66.3258H95.8843V68.7576H89.7613V75.1411H86.765Z" fill="#593EBF"/>
<path d="M103.213 75.3582C102.287 75.3582 101.454 75.199 100.716 74.8806C99.978 74.5621 99.3483 74.1351 98.8272 73.5995C98.3206 73.0495 97.9297 72.4198 97.6547 71.7105C97.3797 71.0012 97.2422 70.2558 97.2422 69.4741C97.2422 68.678 97.3797 67.9253 97.6547 67.216C97.9297 66.5067 98.3206 65.8843 98.8272 65.3487C99.3483 64.7987 99.978 64.3644 100.716 64.046C101.454 63.7275 102.287 63.5683 103.213 63.5683C104.14 63.5683 104.965 63.7275 105.688 64.046C106.427 64.3644 107.049 64.7987 107.556 65.3487C108.077 65.8843 108.475 66.5067 108.75 67.216C109.025 67.9253 109.162 68.678 109.162 69.4741C109.162 70.2558 109.025 71.0012 108.75 71.7105C108.475 72.4198 108.084 73.0495 107.577 73.5995C107.071 74.1351 106.448 74.5621 105.71 74.8806C104.972 75.199 104.14 75.3582 103.213 75.3582ZM100.239 69.4741C100.239 69.9807 100.311 70.444 100.456 70.8637C100.615 71.269 100.825 71.6237 101.085 71.9276C101.36 72.2316 101.679 72.4705 102.041 72.6442C102.403 72.8034 102.793 72.883 103.213 72.883C103.633 72.883 104.024 72.8034 104.386 72.6442C104.748 72.4705 105.059 72.2316 105.319 71.9276C105.594 71.6237 105.804 71.2618 105.949 70.842C106.108 70.4222 106.188 69.959 106.188 69.4524C106.188 68.9603 106.108 68.5043 105.949 68.0845C105.804 67.6647 105.594 67.3029 105.319 66.9989C105.059 66.6949 104.748 66.4633 104.386 66.3041C104.024 66.1304 103.633 66.0435 103.213 66.0435C102.793 66.0435 102.403 66.1304 102.041 66.3041C101.679 66.4778 101.36 66.7166 101.085 67.0206C100.825 67.3246 100.615 67.6864 100.456 68.1062C100.311 68.526 100.239 68.982 100.239 69.4741Z" fill="#593EBF"/>
<path d="M117.651 66.2824C116.768 66.2968 115.979 66.4705 115.284 66.8035C114.589 67.1219 114.09 67.6068 113.786 68.2582V75.1411H110.877V63.7637H113.547V66.1955C113.75 65.8047 113.989 65.4573 114.264 65.1533C114.539 64.8349 114.835 64.5598 115.154 64.3282C115.472 64.0966 115.791 63.9229 116.109 63.8071C116.442 63.6768 116.761 63.6117 117.065 63.6117C117.224 63.6117 117.34 63.6117 117.412 63.6117C117.499 63.6117 117.578 63.6189 117.651 63.6334V66.2824Z" fill="#593EBF"/>
<path d="M134.446 73.4041C133.216 74.6345 131.783 75.2497 130.147 75.2497C129.134 75.2497 128.179 75.047 127.281 74.6417C126.398 74.2364 125.624 73.6791 124.958 72.9699C124.307 72.2606 123.786 71.4283 123.395 70.4729C123.018 69.5031 122.83 68.4609 122.83 67.3463C122.83 66.2896 123.018 65.2981 123.395 64.3716C123.786 63.4308 124.314 62.6129 124.98 61.9181C125.66 61.2088 126.456 60.6515 127.368 60.2462C128.28 59.8265 129.272 59.6166 130.343 59.6166C131.79 59.6166 133.028 59.9206 134.056 60.5285C135.098 61.1365 135.879 61.9543 136.401 62.982L134.164 64.6322C133.773 63.865 133.223 63.2788 132.514 62.8735C131.819 62.4682 131.059 62.2655 130.234 62.2655C129.583 62.2655 128.982 62.403 128.432 62.6781C127.896 62.9531 127.433 63.3294 127.042 63.8071C126.666 64.2848 126.369 64.8349 126.152 65.4573C125.95 66.0797 125.848 66.7383 125.848 67.4331C125.848 68.1569 125.964 68.8372 126.196 69.4741C126.427 70.0965 126.746 70.6394 127.151 71.1026C127.556 71.5658 128.034 71.9349 128.584 72.2099C129.149 72.4705 129.757 72.6007 130.408 72.6007C131.899 72.6007 133.245 71.8987 134.446 70.4946V69.409H131.342V67.216H136.922V75.1411H134.446V73.4041Z" fill="#593EBF"/>
<path d="M144.22 75.3582C143.308 75.3582 142.482 75.2063 141.744 74.9023C141.006 74.5838 140.376 74.1568 139.855 73.6212C139.334 73.0857 138.929 72.4632 138.639 71.7539C138.364 71.0447 138.227 70.2992 138.227 69.5175C138.227 68.7069 138.364 67.947 138.639 67.2377C138.914 66.514 139.312 65.8843 139.834 65.3487C140.355 64.7987 140.984 64.3644 141.723 64.046C142.475 63.7275 143.315 63.5683 144.241 63.5683C145.168 63.5683 145.993 63.7275 146.716 64.046C147.455 64.3644 148.077 64.7914 148.584 65.327C149.105 65.8626 149.496 66.485 149.756 67.1943C150.031 67.9036 150.169 68.6418 150.169 69.409C150.169 69.5972 150.162 69.7781 150.147 69.9518C150.147 70.1255 150.133 70.2702 150.104 70.3861H141.31C141.353 70.8348 141.462 71.2328 141.636 71.5802C141.809 71.9276 142.034 72.2244 142.309 72.4705C142.584 72.7165 142.895 72.9047 143.242 73.035C143.59 73.1653 143.952 73.2304 144.328 73.2304C144.907 73.2304 145.45 73.0929 145.957 72.8179C146.478 72.5284 146.832 72.152 147.02 71.6888L149.517 72.3836C149.098 73.2521 148.425 73.9686 147.498 74.5332C146.586 75.0832 145.493 75.3582 144.22 75.3582ZM147.172 68.497C147.1 67.643 146.782 66.9627 146.217 66.4561C145.667 65.935 144.994 65.6744 144.198 65.6744C143.807 65.6744 143.438 65.7468 143.09 65.8915C142.758 66.0218 142.461 66.21 142.2 66.4561C141.94 66.7021 141.723 66.9989 141.549 67.3463C141.39 67.6937 141.296 68.0773 141.267 68.497H147.172Z" fill="#593EBF"/>
<path d="M162.266 75.1411H159.356V68.7576C159.356 67.8457 159.197 67.1798 158.878 66.76C158.56 66.3403 158.118 66.1304 157.554 66.1304C157.264 66.1304 156.968 66.1883 156.664 66.3041C156.36 66.4199 156.07 66.5863 155.795 66.8035C155.535 67.0061 155.296 67.2522 155.079 67.5417C154.862 67.8312 154.702 68.1496 154.601 68.497V75.1411H151.692V63.7637H154.319V65.8698C154.739 65.1461 155.347 64.5815 156.143 64.1762C156.939 63.7709 157.836 63.5683 158.835 63.5683C159.544 63.5683 160.123 63.6986 160.572 63.9591C161.021 64.2197 161.368 64.5598 161.614 64.9796C161.86 65.3994 162.027 65.8771 162.114 66.4126C162.215 66.9482 162.266 67.491 162.266 68.0411V75.1411Z" fill="#593EBF"/>
<path d="M169.257 75.3582C168.476 75.3582 167.752 75.2063 167.086 74.9023C166.42 74.5983 165.849 74.1785 165.371 73.6429C164.893 73.1074 164.517 72.4849 164.242 71.7757C163.981 71.0519 163.851 70.2775 163.851 69.4524C163.851 68.6273 163.974 67.8601 164.22 67.1509C164.481 66.4416 164.835 65.8192 165.284 65.2836C165.733 64.748 166.268 64.3282 166.891 64.0242C167.513 63.7203 168.193 63.5683 168.932 63.5683C169.771 63.5683 170.524 63.7709 171.19 64.1762C171.87 64.5815 172.399 65.1099 172.775 65.7613V59.2909H175.684V71.7974C175.684 72.1013 175.735 72.3185 175.836 72.4487C175.938 72.579 176.111 72.6514 176.357 72.6659V75.1411C175.851 75.2424 175.438 75.2931 175.12 75.2931C174.599 75.2931 174.172 75.1628 173.839 74.9023C173.506 74.6417 173.318 74.3016 173.274 73.8818L173.209 73.1653C172.789 73.889 172.218 74.4391 171.494 74.8154C170.785 75.1773 170.039 75.3582 169.257 75.3582ZM170.017 72.883C170.292 72.883 170.575 72.8396 170.864 72.7527C171.154 72.6514 171.421 72.5139 171.668 72.3402C171.914 72.1665 172.131 71.9638 172.319 71.7322C172.522 71.5006 172.674 71.2473 172.775 70.9723V68.2582C172.659 67.9398 172.493 67.6503 172.275 67.3897C172.073 67.1147 171.834 66.8831 171.559 66.6949C171.298 66.4922 171.016 66.333 170.712 66.2172C170.423 66.1014 170.133 66.0435 169.844 66.0435C169.409 66.0435 169.004 66.1376 168.628 66.3258C168.266 66.514 167.955 66.7745 167.694 67.1074C167.434 67.4259 167.231 67.795 167.086 68.2148C166.941 68.6346 166.869 69.0688 166.869 69.5175C166.869 69.9952 166.949 70.4367 167.108 70.842C167.267 71.2473 167.484 71.602 167.759 71.9059C168.034 72.2099 168.36 72.4487 168.736 72.6225C169.127 72.7962 169.554 72.883 170.017 72.883Z" fill="#593EBF"/>
<path d="M183.567 75.3582C182.655 75.3582 181.83 75.2063 181.091 74.9023C180.353 74.5838 179.724 74.1568 179.202 73.6212C178.681 73.0857 178.276 72.4632 177.987 71.7539C177.712 71.0447 177.574 70.2992 177.574 69.5175C177.574 68.7069 177.712 67.947 177.987 67.2377C178.262 66.514 178.66 65.8843 179.181 65.3487C179.702 64.7987 180.332 64.3644 181.07 64.046C181.822 63.7275 182.662 63.5683 183.588 63.5683C184.515 63.5683 185.34 63.7275 186.064 64.046C186.802 64.3644 187.424 64.7914 187.931 65.327C188.452 65.8626 188.843 66.485 189.103 67.1943C189.378 67.9036 189.516 68.6418 189.516 69.409C189.516 69.5972 189.509 69.7781 189.494 69.9518C189.494 70.1255 189.48 70.2702 189.451 70.3861H180.657C180.701 70.8348 180.809 71.2328 180.983 71.5802C181.157 71.9276 181.381 72.2244 181.656 72.4705C181.931 72.7165 182.242 72.9047 182.59 73.035C182.937 73.1653 183.299 73.2304 183.675 73.2304C184.254 73.2304 184.797 73.0929 185.304 72.8179C185.825 72.5284 186.179 72.152 186.368 71.6888L188.865 72.3836C188.445 73.2521 187.772 73.9686 186.845 74.5332C185.933 75.0832 184.841 75.3582 183.567 75.3582ZM186.52 68.497C186.447 67.643 186.129 66.9627 185.564 66.4561C185.014 65.935 184.341 65.6744 183.545 65.6744C183.154 65.6744 182.785 65.7468 182.438 65.8915C182.105 66.0218 181.808 66.21 181.547 66.4561C181.287 66.7021 181.07 66.9989 180.896 67.3463C180.737 67.6937 180.643 68.0773 180.614 68.497H186.52Z" fill="#593EBF"/>
<path d="M197.813 66.2824C196.93 66.2968 196.141 66.4705 195.446 66.8035C194.752 67.1219 194.252 67.6068 193.948 68.2582V75.1411H191.039V63.7637H193.709V66.1955C193.912 65.8047 194.151 65.4573 194.426 65.1533C194.701 64.8349 194.998 64.5598 195.316 64.3282C195.635 64.0966 195.953 63.9229 196.271 63.8071C196.604 63.6768 196.923 63.6117 197.227 63.6117C197.386 63.6117 197.502 63.6117 197.574 63.6117C197.661 63.6117 197.741 63.6189 197.813 63.6334V66.2824Z" fill="#593EBF"/>
<path d="M200.51 70.0821C200.51 69.3728 200.626 68.7359 200.858 68.1714C201.089 67.6068 201.567 67.1147 202.291 66.6949C202.508 66.5646 202.776 66.4199 203.094 66.2606C203.412 66.0869 203.724 65.8843 204.028 65.6527C204.332 65.4211 204.585 65.1533 204.788 64.8493C205.005 64.5309 205.113 64.169 205.113 63.7637C205.113 63.4597 205.055 63.1919 204.94 62.9603C204.824 62.7287 204.672 62.5333 204.484 62.3741C204.295 62.2149 204.071 62.0991 203.811 62.0267C203.564 61.9398 203.311 61.8964 203.051 61.8964C202.732 61.8964 202.443 61.9543 202.182 62.0701C201.922 62.1714 201.683 62.3089 201.466 62.4826C201.263 62.6419 201.075 62.8301 200.901 63.0472C200.742 63.2498 200.604 63.4452 200.488 63.6334L198.6 62.3307C198.788 61.8819 199.034 61.4839 199.338 61.1365C199.656 60.7891 200.011 60.4996 200.402 60.268C200.807 60.0219 201.241 59.8409 201.704 59.7251C202.168 59.5949 202.645 59.5297 203.137 59.5297C203.687 59.5297 204.23 59.6093 204.766 59.7686C205.301 59.9278 205.779 60.1811 206.199 60.5285C206.633 60.8759 206.981 61.3246 207.241 61.8747C207.516 62.4103 207.654 63.0544 207.654 63.8071C207.654 64.2703 207.596 64.6829 207.48 65.0447C207.379 65.3921 207.227 65.7106 207.024 66.0001C206.821 66.2896 206.583 66.5501 206.307 66.7817C206.032 67.0134 205.721 67.2377 205.374 67.4548C205.084 67.6285 204.795 67.795 204.505 67.9542C204.216 68.1135 203.948 68.2944 203.702 68.497C203.47 68.6852 203.275 68.9096 203.116 69.1701C202.971 69.4162 202.899 69.7202 202.899 70.0821H200.51ZM200.554 75.1411V72.1448H202.964V75.1411H200.554Z" fill="#593EBF"/>
<defs>
<linearGradient id="paint0_linear" x1="98.2654" y1="1.95273" x2="55.4446" y2="167.802" gradientUnits="userSpaceOnUse">
<stop stop-color="#FFDD94"/>
<stop offset="0.00253999" stop-color="#FFDD95"/>
<stop offset="0.1925" stop-color="#EED5B6"/>
<stop offset="0.3851" stop-color="#E1CED1"/>
<stop offset="0.5822" stop-color="#D8CAE4"/>
<stop offset="0.7845" stop-color="#D3C7EF"/>
<stop offset="1" stop-color="#D1C6F3"/>
</linearGradient>
<linearGradient id="paint1_linear" x1="4.02487" y1="92.2024" x2="96.7471" y2="30.549" gradientUnits="userSpaceOnUse">
<stop stop-color="#FFDD94"/>
<stop offset="0.00253999" stop-color="#FFDD95"/>
<stop offset="0.1925" stop-color="#EED5B6"/>
<stop offset="0.3851" stop-color="#E1CED1"/>
<stop offset="0.5822" stop-color="#D8CAE4"/>
<stop offset="0.7845" stop-color="#D3C7EF"/>
<stop offset="1" stop-color="#D1C6F3"/>
</linearGradient>
</defs>
</svg>
