<svg width="195.09" height="100" viewBox="0 0 210 108" fill="none" xmlns="http://www.w3.org/2000/svg">
<path opacity="0.4" d="M125.927 83.0196L135.786 44.7113C136.936 40.2499 135.614 35.513 132.323 32.2839L104.081 4.59234C100.79 1.36327 96.0253 0.137732 91.5914 1.37704L53.4759 11.9937C49.0351 13.233 45.5926 16.7444 44.4428 21.2059L34.5903 59.5141C33.4405 63.9756 34.7624 68.7125 38.0535 71.9416L66.3027 99.6331C69.5937 102.862 74.3582 104.088 78.7921 102.848L116.901 92.2318C121.342 90.9924 124.784 87.4811 125.927 83.0196Z" fill="url(#paint0_linear)"/>
<path opacity="0.4" d="M24.2835 40.2154L5.94184 52.4501C2.34097 54.853 0.296122 58.9977 0.571523 63.3146L1.99672 85.3192C2.27901 89.643 4.84024 93.4848 8.72339 95.3988L28.4903 105.169C32.3734 107.09 36.9864 106.787 40.5873 104.384L58.929 92.1491C62.5298 89.7462 64.5747 85.6015 64.2993 81.2845L62.8741 59.28C62.5918 54.9562 60.0306 51.1144 56.1474 49.2003L36.3805 39.4305C32.4974 37.5096 27.8913 37.8125 24.2835 40.2154Z" fill="url(#paint1_linear)"/>
<path d="M95.9494 41.0511C95.8481 40.9497 95.6599 40.8122 95.3849 40.6385C95.1243 40.4648 94.7987 40.2983 94.4078 40.1391C94.0315 39.9654 93.6189 39.8207 93.1702 39.7049C92.7215 39.5891 92.2655 39.5312 91.8023 39.5312C90.9772 39.5312 90.362 39.6832 89.9567 39.9871C89.5514 40.2911 89.3488 40.7181 89.3488 41.2682C89.3488 41.5866 89.4212 41.8544 89.5659 42.0715C89.7251 42.2742 89.9495 42.4551 90.239 42.6144C90.5285 42.7736 90.8904 42.9183 91.3246 43.0486C91.7734 43.1789 92.2872 43.3164 92.8662 43.4612C93.6189 43.6638 94.2993 43.8809 94.9072 44.1125C95.5296 44.3441 96.0507 44.6336 96.4705 44.981C96.9048 45.3284 97.2377 45.7482 97.4693 46.2404C97.7009 46.7181 97.8167 47.3115 97.8167 48.0208C97.8167 48.8459 97.6575 49.5552 97.339 50.1486C97.0351 50.7277 96.6153 51.1981 96.0797 51.56C95.5586 51.9218 94.9506 52.1896 94.2558 52.3633C93.5755 52.5226 92.859 52.6022 92.1063 52.6022C90.9483 52.6022 89.8047 52.4285 88.6757 52.0811C87.5466 51.7337 86.5334 51.2415 85.6359 50.6046L86.9604 48.0208C87.0907 48.1511 87.3223 48.3248 87.6552 48.5419C88.0026 48.7446 88.4079 48.9545 88.8711 49.1716C89.3343 49.3742 89.8482 49.5479 90.4127 49.6927C90.9772 49.8374 91.5562 49.9098 92.1497 49.9098C93.7999 49.9098 94.625 49.3815 94.625 48.3248C94.625 47.9919 94.5309 47.7096 94.3427 47.478C94.1545 47.2464 93.8867 47.0437 93.5393 46.87C93.1919 46.6963 92.7721 46.5371 92.28 46.3924C91.7878 46.2476 91.2378 46.0884 90.6298 45.9147C89.8916 45.712 89.2475 45.4949 88.6974 45.2633C88.1618 45.0172 87.7131 44.735 87.3512 44.4165C86.9893 44.0836 86.7143 43.7072 86.5261 43.2875C86.3524 42.8532 86.2656 42.3393 86.2656 41.7459C86.2656 40.9642 86.4103 40.2694 86.6998 39.6614C86.9893 39.0535 87.3874 38.5469 87.894 38.1416C88.4151 37.7363 89.0159 37.4323 89.6962 37.2296C90.3765 37.0125 91.1075 36.9039 91.8892 36.9039C92.9748 36.9039 93.9736 37.0776 94.8855 37.425C95.7974 37.758 96.5936 38.156 97.2739 38.6192L95.9494 41.0511Z" fill="#593EBF"/>
<path d="M110.123 52.4285H107.214V46.045C107.214 45.1475 107.047 44.4889 106.714 44.0691C106.381 43.6349 105.911 43.4177 105.303 43.4177C105.042 43.4177 104.767 43.4756 104.478 43.5914C104.188 43.7072 103.913 43.8737 103.653 44.0908C103.392 44.2935 103.153 44.5395 102.936 44.8291C102.719 45.1186 102.56 45.437 102.458 45.7844V52.4285H99.549V36.5782H102.458V43.1572C102.878 42.4189 103.443 41.8544 104.152 41.4636C104.876 41.0583 105.672 40.8556 106.54 40.8556C107.279 40.8556 107.879 40.9859 108.343 41.2465C108.806 41.4925 109.168 41.8255 109.428 42.2452C109.689 42.665 109.87 43.1427 109.971 43.6783C110.072 44.2139 110.123 44.7639 110.123 45.3284V52.4285Z" fill="#593EBF"/>
<path d="M117.658 52.6456C116.731 52.6456 115.899 52.4864 115.161 52.1679C114.422 51.8495 113.793 51.4225 113.272 50.8869C112.765 50.3368 112.374 49.7072 112.099 48.9979C111.824 48.2886 111.687 47.5431 111.687 46.7615C111.687 45.9653 111.824 45.2126 112.099 44.5034C112.374 43.7941 112.765 43.1717 113.272 42.6361C113.793 42.086 114.422 41.6518 115.161 41.3333C115.899 41.0149 116.731 40.8556 117.658 40.8556C118.584 40.8556 119.409 41.0149 120.133 41.3333C120.871 41.6518 121.494 42.086 122 42.6361C122.521 43.1717 122.919 43.7941 123.194 44.5034C123.469 45.2126 123.607 45.9653 123.607 46.7615C123.607 47.5431 123.469 48.2886 123.194 48.9979C122.919 49.7072 122.529 50.3368 122.022 50.8869C121.515 51.4225 120.893 51.8495 120.155 52.1679C119.416 52.4864 118.584 52.6456 117.658 52.6456ZM114.683 46.7615C114.683 47.2681 114.755 47.7313 114.9 48.1511C115.059 48.5564 115.269 48.911 115.53 49.215C115.805 49.519 116.123 49.7578 116.485 49.9315C116.847 50.0907 117.238 50.1704 117.658 50.1704C118.077 50.1704 118.468 50.0907 118.83 49.9315C119.192 49.7578 119.503 49.519 119.764 49.215C120.039 48.911 120.249 48.5492 120.393 48.1294C120.553 47.7096 120.632 47.2464 120.632 46.7398C120.632 46.2476 120.553 45.7916 120.393 45.3719C120.249 44.9521 120.039 44.5902 119.764 44.2862C119.503 43.9823 119.192 43.7507 118.83 43.5914C118.468 43.4177 118.077 43.3309 117.658 43.3309C117.238 43.3309 116.847 43.4177 116.485 43.5914C116.123 43.7651 115.805 44.004 115.53 44.3079C115.269 44.6119 115.059 44.9738 114.9 45.3936C114.755 45.8134 114.683 46.2693 114.683 46.7615Z" fill="#593EBF"/>
<path d="M128.795 52.6456C127.623 52.6456 126.732 52.2693 126.124 51.5165C125.516 50.7638 125.212 49.6493 125.212 48.1728V41.0511H128.122V47.5431C128.122 49.2946 128.752 50.1704 130.011 50.1704C130.575 50.1704 131.118 50.0039 131.639 49.671C132.175 49.3236 132.609 48.8025 132.942 48.1077V41.0511H135.852V49.0847C135.852 49.3887 135.902 49.6058 136.004 49.7361C136.119 49.8664 136.3 49.9388 136.546 49.9532V52.4285C136.257 52.4864 136.011 52.5226 135.808 52.537C135.62 52.5515 135.446 52.5588 135.287 52.5588C134.766 52.5588 134.339 52.443 134.006 52.2114C133.688 51.9653 133.499 51.6323 133.442 51.2126L133.376 50.3006C132.87 51.0823 132.218 51.6685 131.422 52.0594C130.626 52.4502 129.75 52.6456 128.795 52.6456Z" fill="#593EBF"/>
<path d="M138.472 36.5782H141.381V48.7808C141.381 49.2005 141.482 49.5262 141.685 49.7578C141.888 49.9894 142.177 50.1052 142.554 50.1052C142.727 50.1052 142.915 50.0763 143.118 50.0184C143.335 49.9605 143.538 49.8881 143.726 49.8012L144.117 52.0159C143.726 52.2041 143.27 52.3489 142.749 52.4502C142.228 52.5515 141.757 52.6022 141.338 52.6022C140.426 52.6022 139.716 52.3633 139.21 51.8857C138.718 51.3935 138.472 50.6987 138.472 49.8012V36.5782Z" fill="#593EBF"/>
<path d="M149.846 52.6456C149.065 52.6456 148.341 52.4936 147.675 52.1896C147.009 51.8857 146.438 51.4659 145.96 50.9303C145.482 50.3947 145.106 49.7723 144.831 49.063C144.57 48.3393 144.44 47.5648 144.44 46.7398C144.44 45.9147 144.563 45.1475 144.809 44.4382C145.07 43.7289 145.424 43.1065 145.873 42.5709C146.322 42.0354 146.857 41.6156 147.48 41.3116C148.102 41.0076 148.783 40.8556 149.521 40.8556C150.36 40.8556 151.113 41.0583 151.779 41.4636C152.459 41.8689 152.988 42.3972 153.364 43.0486V36.5782H156.273V49.0847C156.273 49.3887 156.324 49.6058 156.425 49.7361C156.527 49.8664 156.7 49.9388 156.947 49.9532V52.4285C156.44 52.5298 156.027 52.5805 155.709 52.5805C155.188 52.5805 154.761 52.4502 154.428 52.1896C154.095 51.9291 153.907 51.5889 153.863 51.1691L153.798 50.4526C153.378 51.1764 152.807 51.7264 152.083 52.1028C151.374 52.4647 150.628 52.6456 149.846 52.6456ZM150.606 50.1704C150.881 50.1704 151.164 50.1269 151.453 50.0401C151.743 49.9388 152.011 49.8012 152.257 49.6275C152.503 49.4538 152.72 49.2512 152.908 49.0196C153.111 48.788 153.263 48.5347 153.364 48.2596V45.5456C153.248 45.2271 153.082 44.9376 152.865 44.6771C152.662 44.402 152.423 44.1704 152.148 43.9823C151.887 43.7796 151.605 43.6204 151.301 43.5046C151.012 43.3888 150.722 43.3309 150.433 43.3309C149.998 43.3309 149.593 43.425 149.217 43.6131C148.855 43.8013 148.544 44.0619 148.283 44.3948C148.023 44.7133 147.82 45.0824 147.675 45.5021C147.53 45.9219 147.458 46.3562 147.458 46.8049C147.458 47.2826 147.538 47.7241 147.697 48.1294C147.856 48.5347 148.073 48.8893 148.348 49.1933C148.623 49.4973 148.949 49.7361 149.325 49.9098C149.716 50.0835 150.143 50.1704 150.606 50.1704Z" fill="#593EBF"/>
<path d="M164.128 52.4285V37.0125H167.125V52.4285H164.128Z" fill="#593EBF"/>
<path d="M178.765 37.0125H181.414L187.277 52.4285H184.193L182.76 48.5853H177.376L175.964 52.4285H172.881L178.765 37.0125ZM182.217 46.4792L180.09 40.4214L177.875 46.4792H182.217Z" fill="#593EBF"/>
<path d="M192.607 52.6456C191.652 52.6456 190.718 52.4936 189.806 52.1896C188.894 51.8857 188.113 51.4514 187.461 50.8869L188.547 49.063C189.242 49.5552 189.915 49.9315 190.566 50.1921C191.232 50.4382 191.891 50.5612 192.542 50.5612C193.121 50.5612 193.577 50.4526 193.91 50.2355C194.243 50.0184 194.409 49.7072 194.409 49.3019C194.409 48.8966 194.214 48.5998 193.823 48.4116C193.432 48.2235 192.795 48.0063 191.913 47.7603C191.174 47.5576 190.545 47.3622 190.024 47.174C189.502 46.9858 189.083 46.776 188.764 46.5443C188.446 46.2983 188.214 46.0232 188.069 45.7193C187.925 45.4008 187.852 45.0245 187.852 44.5902C187.852 44.0112 187.961 43.4901 188.178 43.0269C188.41 42.5637 188.728 42.1729 189.133 41.8544C189.539 41.5215 190.009 41.2682 190.545 41.0945C191.095 40.9208 191.688 40.8339 192.325 40.8339C193.179 40.8339 193.975 40.957 194.713 41.203C195.466 41.4491 196.154 41.8472 196.776 42.3972L195.604 44.156C195.025 43.7217 194.46 43.4033 193.91 43.2006C193.374 42.998 192.839 42.8966 192.303 42.8966C191.811 42.8966 191.399 42.998 191.066 43.2006C190.733 43.4033 190.566 43.7289 190.566 44.1777C190.566 44.3803 190.603 44.5468 190.675 44.6771C190.762 44.8073 190.892 44.9231 191.066 45.0245C191.239 45.1258 191.464 45.2271 191.739 45.3284C192.028 45.4153 192.383 45.5094 192.803 45.6107C193.584 45.8134 194.25 46.016 194.8 46.2187C195.365 46.4213 195.821 46.6529 196.168 46.9135C196.53 47.174 196.791 47.478 196.95 47.8254C197.124 48.1583 197.21 48.5636 197.21 49.0413C197.21 50.1559 196.798 51.0389 195.973 51.6902C195.148 52.3272 194.026 52.6456 192.607 52.6456Z" fill="#593EBF"/>
<path d="M206.624 52.4285L203.324 47.4997L201.761 49.0413V52.4285H198.851V36.5782H201.761V46.1969L206.32 41.0728H209.425L205.191 45.893L209.729 52.4285H206.624Z" fill="#593EBF"/>
<path d="M86.765 74.1411V58.7251H97.1219V61.3524H89.7613V65.3258H95.8843V67.7576H89.7613V74.1411H86.765Z" fill="#593EBF"/>
<path d="M103.213 74.3582C102.287 74.3582 101.454 74.199 100.716 73.8806C99.978 73.5621 99.3483 73.1351 98.8272 72.5995C98.3206 72.0495 97.9297 71.4198 97.6547 70.7105C97.3797 70.0012 97.2422 69.2558 97.2422 68.4741C97.2422 67.678 97.3797 66.9253 97.6547 66.216C97.9297 65.5067 98.3206 64.8843 98.8272 64.3487C99.3483 63.7987 99.978 63.3644 100.716 63.046C101.454 62.7275 102.287 62.5683 103.213 62.5683C104.14 62.5683 104.965 62.7275 105.688 63.046C106.427 63.3644 107.049 63.7987 107.556 64.3487C108.077 64.8843 108.475 65.5067 108.75 66.216C109.025 66.9253 109.162 67.678 109.162 68.4741C109.162 69.2558 109.025 70.0012 108.75 70.7105C108.475 71.4198 108.084 72.0495 107.577 72.5995C107.071 73.1351 106.448 73.5621 105.71 73.8806C104.972 74.199 104.14 74.3582 103.213 74.3582ZM100.239 68.4741C100.239 68.9807 100.311 69.444 100.456 69.8637C100.615 70.269 100.825 70.6237 101.085 70.9276C101.36 71.2316 101.679 71.4705 102.041 71.6442C102.403 71.8034 102.793 71.883 103.213 71.883C103.633 71.883 104.024 71.8034 104.386 71.6442C104.748 71.4705 105.059 71.2316 105.319 70.9276C105.594 70.6237 105.804 70.2618 105.949 69.842C106.108 69.4222 106.188 68.959 106.188 68.4524C106.188 67.9603 106.108 67.5043 105.949 67.0845C105.804 66.6647 105.594 66.3029 105.319 65.9989C105.059 65.6949 104.748 65.4633 104.386 65.3041C104.024 65.1304 103.633 65.0435 103.213 65.0435C102.793 65.0435 102.403 65.1304 102.041 65.3041C101.679 65.4778 101.36 65.7166 101.085 66.0206C100.825 66.3246 100.615 66.6864 100.456 67.1062C100.311 67.526 100.239 67.982 100.239 68.4741Z" fill="#593EBF"/>
<path d="M117.651 65.2824C116.768 65.2968 115.979 65.4705 115.284 65.8035C114.589 66.1219 114.09 66.6068 113.786 67.2582V74.1411H110.877V62.7637H113.547V65.1955C113.75 64.8047 113.989 64.4573 114.264 64.1533C114.539 63.8349 114.835 63.5598 115.154 63.3282C115.472 63.0966 115.791 62.9229 116.109 62.8071C116.442 62.6768 116.761 62.6117 117.065 62.6117C117.224 62.6117 117.34 62.6117 117.412 62.6117C117.499 62.6117 117.578 62.6189 117.651 62.6334V65.2824Z" fill="#593EBF"/>
<path d="M134.446 72.4041C133.216 73.6345 131.783 74.2497 130.147 74.2497C129.134 74.2497 128.179 74.047 127.281 73.6417C126.398 73.2364 125.624 72.6791 124.958 71.9699C124.307 71.2606 123.786 70.4283 123.395 69.4729C123.018 68.5031 122.83 67.4609 122.83 66.3463C122.83 65.2896 123.018 64.2981 123.395 63.3716C123.786 62.4308 124.314 61.6129 124.98 60.9181C125.66 60.2088 126.456 59.6515 127.368 59.2462C128.28 58.8265 129.272 58.6166 130.343 58.6166C131.79 58.6166 133.028 58.9206 134.056 59.5285C135.098 60.1365 135.879 60.9543 136.401 61.982L134.164 63.6322C133.773 62.865 133.223 62.2788 132.514 61.8735C131.819 61.4682 131.059 61.2655 130.234 61.2655C129.583 61.2655 128.982 61.403 128.432 61.6781C127.896 61.9531 127.433 62.3294 127.042 62.8071C126.666 63.2848 126.369 63.8349 126.152 64.4573C125.95 65.0797 125.848 65.7383 125.848 66.4331C125.848 67.1569 125.964 67.8372 126.196 68.4741C126.427 69.0965 126.746 69.6394 127.151 70.1026C127.556 70.5658 128.034 70.9349 128.584 71.2099C129.149 71.4705 129.757 71.6007 130.408 71.6007C131.899 71.6007 133.245 70.8987 134.446 69.4946V68.409H131.342V66.216H136.922V74.1411H134.446V72.4041Z" fill="#593EBF"/>
<path d="M144.22 74.3582C143.308 74.3582 142.482 74.2063 141.744 73.9023C141.006 73.5838 140.376 73.1568 139.855 72.6212C139.334 72.0857 138.929 71.4632 138.639 70.7539C138.364 70.0447 138.227 69.2992 138.227 68.5175C138.227 67.7069 138.364 66.947 138.639 66.2377C138.914 65.514 139.312 64.8843 139.834 64.3487C140.355 63.7987 140.984 63.3644 141.723 63.046C142.475 62.7275 143.315 62.5683 144.241 62.5683C145.168 62.5683 145.993 62.7275 146.716 63.046C147.455 63.3644 148.077 63.7914 148.584 64.327C149.105 64.8626 149.496 65.485 149.756 66.1943C150.031 66.9036 150.169 67.6418 150.169 68.409C150.169 68.5972 150.162 68.7781 150.147 68.9518C150.147 69.1255 150.133 69.2702 150.104 69.3861H141.31C141.353 69.8348 141.462 70.2328 141.636 70.5802C141.809 70.9276 142.034 71.2244 142.309 71.4705C142.584 71.7165 142.895 71.9047 143.242 72.035C143.59 72.1653 143.952 72.2304 144.328 72.2304C144.907 72.2304 145.45 72.0929 145.957 71.8179C146.478 71.5284 146.832 71.152 147.02 70.6888L149.517 71.3836C149.098 72.2521 148.425 72.9686 147.498 73.5332C146.586 74.0832 145.493 74.3582 144.22 74.3582ZM147.172 67.497C147.1 66.643 146.782 65.9627 146.217 65.4561C145.667 64.935 144.994 64.6744 144.198 64.6744C143.807 64.6744 143.438 64.7468 143.09 64.8915C142.758 65.0218 142.461 65.21 142.2 65.4561C141.94 65.7021 141.723 65.9989 141.549 66.3463C141.39 66.6937 141.296 67.0773 141.267 67.497H147.172Z" fill="#593EBF"/>
<path d="M162.266 74.1411H159.356V67.7576C159.356 66.8457 159.197 66.1798 158.878 65.76C158.56 65.3403 158.118 65.1304 157.554 65.1304C157.264 65.1304 156.968 65.1883 156.664 65.3041C156.36 65.4199 156.07 65.5863 155.795 65.8035C155.535 66.0061 155.296 66.2522 155.079 66.5417C154.862 66.8312 154.702 67.1496 154.601 67.497V74.1411H151.692V62.7637H154.319V64.8698C154.739 64.1461 155.347 63.5815 156.143 63.1762C156.939 62.7709 157.836 62.5683 158.835 62.5683C159.544 62.5683 160.123 62.6986 160.572 62.9591C161.021 63.2197 161.368 63.5598 161.614 63.9796C161.86 64.3994 162.027 64.8771 162.114 65.4126C162.215 65.9482 162.266 66.491 162.266 67.0411V74.1411Z" fill="#593EBF"/>
<path d="M169.257 74.3582C168.476 74.3582 167.752 74.2063 167.086 73.9023C166.42 73.5983 165.849 73.1785 165.371 72.6429C164.893 72.1074 164.517 71.4849 164.242 70.7757C163.981 70.0519 163.851 69.2775 163.851 68.4524C163.851 67.6273 163.974 66.8601 164.22 66.1509C164.481 65.4416 164.835 64.8192 165.284 64.2836C165.733 63.748 166.268 63.3282 166.891 63.0242C167.513 62.7203 168.193 62.5683 168.932 62.5683C169.771 62.5683 170.524 62.7709 171.19 63.1762C171.87 63.5815 172.399 64.1099 172.775 64.7613V58.2909H175.684V70.7974C175.684 71.1013 175.735 71.3185 175.836 71.4487C175.938 71.579 176.111 71.6514 176.357 71.6659V74.1411C175.851 74.2424 175.438 74.2931 175.12 74.2931C174.599 74.2931 174.172 74.1628 173.839 73.9023C173.506 73.6417 173.318 73.3016 173.274 72.8818L173.209 72.1653C172.789 72.889 172.218 73.4391 171.494 73.8154C170.785 74.1773 170.039 74.3582 169.257 74.3582ZM170.017 71.883C170.292 71.883 170.575 71.8396 170.864 71.7527C171.154 71.6514 171.421 71.5139 171.668 71.3402C171.914 71.1665 172.131 70.9638 172.319 70.7322C172.522 70.5006 172.674 70.2473 172.775 69.9723V67.2582C172.659 66.9398 172.493 66.6503 172.275 66.3897C172.073 66.1147 171.834 65.8831 171.559 65.6949C171.298 65.4922 171.016 65.333 170.712 65.2172C170.423 65.1014 170.133 65.0435 169.844 65.0435C169.409 65.0435 169.004 65.1376 168.628 65.3258C168.266 65.514 167.955 65.7745 167.694 66.1074C167.434 66.4259 167.231 66.795 167.086 67.2148C166.941 67.6346 166.869 68.0688 166.869 68.5175C166.869 68.9952 166.949 69.4367 167.108 69.842C167.267 70.2473 167.484 70.602 167.759 70.9059C168.034 71.2099 168.36 71.4487 168.736 71.6225C169.127 71.7962 169.554 71.883 170.017 71.883Z" fill="#593EBF"/>
<path d="M183.567 74.3582C182.655 74.3582 181.83 74.2063 181.091 73.9023C180.353 73.5838 179.724 73.1568 179.202 72.6212C178.681 72.0857 178.276 71.4632 177.987 70.7539C177.712 70.0447 177.574 69.2992 177.574 68.5175C177.574 67.7069 177.712 66.947 177.987 66.2377C178.262 65.514 178.66 64.8843 179.181 64.3487C179.702 63.7987 180.332 63.3644 181.07 63.046C181.822 62.7275 182.662 62.5683 183.588 62.5683C184.515 62.5683 185.34 62.7275 186.064 63.046C186.802 63.3644 187.424 63.7914 187.931 64.327C188.452 64.8626 188.843 65.485 189.103 66.1943C189.378 66.9036 189.516 67.6418 189.516 68.409C189.516 68.5972 189.509 68.7781 189.494 68.9518C189.494 69.1255 189.48 69.2702 189.451 69.3861H180.657C180.701 69.8348 180.809 70.2328 180.983 70.5802C181.157 70.9276 181.381 71.2244 181.656 71.4705C181.931 71.7165 182.242 71.9047 182.59 72.035C182.937 72.1653 183.299 72.2304 183.675 72.2304C184.254 72.2304 184.797 72.0929 185.304 71.8179C185.825 71.5284 186.179 71.152 186.368 70.6888L188.865 71.3836C188.445 72.2521 187.772 72.9686 186.845 73.5332C185.933 74.0832 184.841 74.3582 183.567 74.3582ZM186.52 67.497C186.447 66.643 186.129 65.9627 185.564 65.4561C185.014 64.935 184.341 64.6744 183.545 64.6744C183.154 64.6744 182.785 64.7468 182.438 64.8915C182.105 65.0218 181.808 65.21 181.547 65.4561C181.287 65.7021 181.07 65.9989 180.896 66.3463C180.737 66.6937 180.643 67.0773 180.614 67.497H186.52Z" fill="#593EBF"/>
<path d="M197.813 65.2824C196.93 65.2968 196.141 65.4705 195.446 65.8035C194.752 66.1219 194.252 66.6068 193.948 67.2582V74.1411H191.039V62.7637H193.709V65.1955C193.912 64.8047 194.151 64.4573 194.426 64.1533C194.701 63.8349 194.998 63.5598 195.316 63.3282C195.635 63.0966 195.953 62.9229 196.271 62.8071C196.604 62.6768 196.923 62.6117 197.227 62.6117C197.386 62.6117 197.502 62.6117 197.574 62.6117C197.661 62.6117 197.741 62.6189 197.813 62.6334V65.2824Z" fill="#593EBF"/>
<path d="M200.51 69.0821C200.51 68.3728 200.626 67.7359 200.858 67.1714C201.089 66.6068 201.567 66.1147 202.291 65.6949C202.508 65.5646 202.776 65.4199 203.094 65.2606C203.412 65.0869 203.724 64.8843 204.028 64.6527C204.332 64.4211 204.585 64.1533 204.788 63.8493C205.005 63.5309 205.113 63.169 205.113 62.7637C205.113 62.4597 205.055 62.1919 204.94 61.9603C204.824 61.7287 204.672 61.5333 204.484 61.3741C204.295 61.2149 204.071 61.0991 203.811 61.0267C203.564 60.9398 203.311 60.8964 203.051 60.8964C202.732 60.8964 202.443 60.9543 202.182 61.0701C201.922 61.1714 201.683 61.3089 201.466 61.4826C201.263 61.6419 201.075 61.8301 200.901 62.0472C200.742 62.2498 200.604 62.4452 200.488 62.6334L198.6 61.3307C198.788 60.8819 199.034 60.4839 199.338 60.1365C199.656 59.7891 200.011 59.4996 200.402 59.268C200.807 59.0219 201.241 58.8409 201.704 58.7251C202.168 58.5949 202.645 58.5297 203.137 58.5297C203.687 58.5297 204.23 58.6093 204.766 58.7686C205.301 58.9278 205.779 59.1811 206.199 59.5285C206.633 59.8759 206.981 60.3246 207.241 60.8747C207.516 61.4103 207.654 62.0544 207.654 62.8071C207.654 63.2703 207.596 63.6829 207.48 64.0447C207.379 64.3921 207.227 64.7106 207.024 65.0001C206.821 65.2896 206.583 65.5501 206.307 65.7817C206.032 66.0134 205.721 66.2377 205.374 66.4548C205.084 66.6285 204.795 66.795 204.505 66.9542C204.216 67.1135 203.948 67.2944 203.702 67.497C203.47 67.6852 203.275 67.9096 203.116 68.1701C202.971 68.4162 202.899 68.7202 202.899 69.0821H200.51ZM200.554 74.1411V71.1448H202.964V74.1411H200.554Z" fill="#593EBF"/>
<defs>
<linearGradient id="paint0_linear" x1="98.2654" y1="1.30807" x2="55.7116" y2="166.674" gradientUnits="userSpaceOnUse">
<stop stop-color="#FFDD94"/>
<stop offset="0.00253999" stop-color="#FFDD95"/>
<stop offset="0.1925" stop-color="#EED5B6"/>
<stop offset="0.3851" stop-color="#E1CED1"/>
<stop offset="0.5822" stop-color="#D8CAE4"/>
<stop offset="0.7845" stop-color="#D3C7EF"/>
<stop offset="1" stop-color="#D1C6F3"/>
</linearGradient>
<linearGradient id="paint1_linear" x1="4.02487" y1="91.2571" x2="96.5572" y2="29.5244" gradientUnits="userSpaceOnUse">
<stop stop-color="#FFDD94"/>
<stop offset="0.00253999" stop-color="#FFDD95"/>
<stop offset="0.1925" stop-color="#EED5B6"/>
<stop offset="0.3851" stop-color="#E1CED1"/>
<stop offset="0.5822" stop-color="#D8CAE4"/>
<stop offset="0.7845" stop-color="#D3C7EF"/>
<stop offset="1" stop-color="#D1C6F3"/>
</linearGradient>
</defs>
</svg>
