<svg width="25" height="24" viewBox="0 0 25 24" fill="none" xmlns="http://www.w3.org/2000/svg">
<path d="M22.8941 3.99994C22.8941 5.79493 21.4392 7.25007 19.6442 7.25007C17.8492 7.25007 16.3943 5.79493 16.3943 3.99994C16.3943 2.20515 17.8492 0.750006 19.6442 0.750006C21.4392 0.750006 22.8941 2.20515 22.8941 3.99994V3.99994Z" fill="#593EBF"/>
<path d="M19.6441 8.00006C17.4381 8.00006 15.6442 6.20599 15.6442 3.99994C15.6442 1.79407 17.4381 0 19.6441 0C21.8502 0 23.6441 1.79407 23.6441 3.99994C23.6441 6.20599 21.8502 8.00006 19.6441 8.00006ZM19.6441 1.5C18.2652 1.5 17.1442 2.62207 17.1442 3.99994C17.1442 5.37799 18.2652 6.50006 19.6441 6.50006C21.0231 6.50006 22.1441 5.37799 22.1441 3.99994C22.1441 2.62207 21.0231 1.5 19.6441 1.5Z" fill="#593EBF"/>
<path d="M22.8941 20.0001C22.8941 21.7949 21.4392 23.25 19.6442 23.25C17.8492 23.25 16.3943 21.7949 16.3943 20.0001C16.3943 18.2051 17.8492 16.7499 19.6442 16.7499C21.4392 16.7499 22.8941 18.2051 22.8941 20.0001V20.0001Z" fill="#593EBF"/>
<path d="M19.6441 24C17.4381 24 15.6442 22.2059 15.6442 20.0001C15.6442 17.794 17.4381 15.9999 19.6441 15.9999C21.8502 15.9999 23.6441 17.794 23.6441 20.0001C23.6441 22.2059 21.8502 24 19.6441 24ZM19.6441 17.4999C18.2652 17.4999 17.1442 18.622 17.1442 20.0001C17.1442 21.3779 18.2652 22.5 19.6441 22.5C21.0231 22.5 22.1441 21.3779 22.1441 20.0001C22.1441 18.622 21.0231 17.4999 19.6441 17.4999V17.4999Z" fill="#593EBF"/>
<path d="M8.89424 12C8.89424 13.795 7.4391 15.2499 5.64412 15.2499C3.84932 15.2499 2.39418 13.795 2.39418 12C2.39418 10.205 3.84932 8.75006 5.64412 8.75006C7.4391 8.75006 8.89424 10.205 8.89424 12Z" fill="#593EBF"/>
<path d="M5.64413 15.9999C3.43826 15.9999 1.6442 14.2061 1.6442 12C1.6442 9.79395 3.43826 8.00006 5.64413 8.00006C7.85019 8.00006 9.64426 9.79395 9.64426 12C9.64426 14.2061 7.85019 15.9999 5.64413 15.9999ZM5.64413 9.50006C4.26517 9.50006 3.1442 10.6219 3.1442 12C3.1442 13.3781 4.26517 14.4999 5.64413 14.4999C7.02329 14.4999 8.14426 13.3781 8.14426 12C8.14426 10.6219 7.02329 9.50006 5.64413 9.50006Z" fill="#593EBF"/>
<path d="M8.00524 11.5201C7.65716 11.5201 7.31914 11.339 7.13512 11.0151C6.86211 10.5361 7.0302 9.92506 7.50921 9.65095L16.7881 4.36103C17.2671 4.08601 17.8781 4.2541 18.1522 4.73493C18.4252 5.21394 18.2571 5.82496 17.7781 6.09907L8.49907 11.389C8.34307 11.478 8.17315 11.5201 8.00524 11.5201V11.5201Z" fill="#593EBF"/>
<path d="M17.2832 19.7701C17.1151 19.7701 16.9452 19.728 16.7892 19.639L7.51013 14.3491C7.03113 14.076 6.86322 13.465 7.13623 12.9849C7.40814 12.505 8.02008 12.336 8.50018 12.611L17.7792 17.9009C18.2582 18.174 18.4261 18.785 18.1531 19.2651C17.9682 19.589 17.6302 19.7701 17.2832 19.7701V19.7701Z" fill="#593EBF"/>
</svg>
