<svg width="34" height="34" viewBox="0 0 34 34" fill="none" xmlns="http://www.w3.org/2000/svg">
<circle cx="17" cy="17" r="15.5" stroke="url(#paint0_linear)" stroke-width="3"/>
<path d="M17.048 25.144C16.616 25.144 16.256 25.024 15.968 24.784C15.696 24.528 15.56 24.168 15.56 23.704V14.44C15.56 13.976 15.696 13.624 15.968 13.384C16.256 13.144 16.616 13.024 17.048 13.024C17.48 13.024 17.84 13.144 18.128 13.384C18.416 13.624 18.56 13.976 18.56 14.44V23.704C18.56 24.168 18.416 24.528 18.128 24.784C17.84 25.024 17.48 25.144 17.048 25.144ZM17.048 10.888C16.504 10.888 16.072 10.744 15.752 10.456C15.432 10.152 15.272 9.76 15.272 9.28C15.272 8.8 15.432 8.416 15.752 8.128C16.072 7.84 16.504 7.696 17.048 7.696C17.576 7.696 18 7.84 18.32 8.128C18.656 8.416 18.824 8.8 18.824 9.28C18.824 9.76 18.664 10.152 18.344 10.456C18.024 10.744 17.592 10.888 17.048 10.888Z" fill="#FAB97B"/>
<defs>
<linearGradient id="paint0_linear" x1="0" y1="0" x2="34" y2="34" gradientUnits="userSpaceOnUse">
<stop stop-color="#FFDD94"/>
<stop offset="1" stop-color="#D1C6F3"/>
</linearGradient>
</defs>
</svg>
