<svg width="250" height="98" viewBox="0 0 250 98" fill="none" xmlns="http://www.w3.org/2000/svg">
<path d="M165.739 36.1592L161.27 28.4278C152.054 25.3369 142.301 24.0456 132.6 24.8648C128.156 25.24 123.74 25.9623 119.393 27.0196C122.039 27.6652 124.661 28.4359 127.247 29.3317L150.765 37.4828C156.159 39.3511 161.622 39.2018 166.474 37.5312C166.244 37.0672 165.997 36.6112 165.739 36.1592Z" fill="#9179EB"/>
<path opacity="0.75" d="M77.511 28.4279L73.0425 36.1593C72.7798 36.6112 72.5374 37.0712 72.3071 37.5353C77.1595 39.2058 82.626 39.3551 88.0157 37.4868L111.534 29.3358C114.12 28.44 116.742 27.6692 119.389 27.0236C115.041 25.9624 110.625 25.2441 106.181 24.8688C96.4801 24.0457 86.7269 25.3369 77.511 28.4279Z" fill="#E7E1FF"/>
<path d="M161.266 28.4278L152.931 14.0021C148.636 6.56927 140.697 1.99338 132.103 1.99338H106.678C98.0843 1.99338 90.1492 6.56927 85.8504 14.0021L77.5112 28.4278C86.7271 25.3369 96.4803 24.0456 106.181 24.8648C110.625 25.24 115.041 25.9623 119.389 27.0196C123.736 25.9583 128.152 25.24 132.596 24.8648C142.297 24.0456 152.05 25.3369 161.266 28.4278Z" fill="#9179EB"/>
<path opacity="0.75" d="M161.266 28.4278L152.931 14.0021C148.636 6.56927 140.697 1.99338 132.103 1.99338H106.678C98.0843 1.99338 90.1492 6.56927 85.8504 14.0021L77.5112 28.4278C86.7271 25.3369 96.4803 24.0456 106.181 24.8648C110.625 25.24 115.041 25.9623 119.389 27.0196C123.736 25.9583 128.152 25.24 132.596 24.8648C142.297 24.0456 152.05 25.3369 161.266 28.4278Z" fill="white"/>
<path d="M73.0425 59.9305L77.511 67.6619C86.7269 70.7529 96.4801 72.0441 106.181 71.225C110.625 70.8497 115.041 70.1274 119.389 69.0702C116.742 68.4246 114.12 67.6539 111.534 66.758L88.0157 58.607C82.622 56.7387 77.1595 56.888 72.3071 58.5586C72.5374 59.0226 72.7798 59.4786 73.0425 59.9305Z" fill="#FFDD94"/>
<path opacity="0.75" d="M161.266 67.6619L165.735 59.9305C165.997 59.4786 166.24 59.0185 166.47 58.5545C161.618 56.8839 156.151 56.7346 150.761 58.6029L127.243 66.754C124.657 67.6498 122.035 68.4205 119.389 69.0661C123.736 70.1274 128.152 70.8457 132.596 71.2209C142.297 72.0441 152.05 70.7528 161.266 67.6619Z" fill="#E7E1FF"/>
<path d="M77.5112 67.6619L85.8504 82.0877C90.1452 89.5205 98.0843 94.0964 106.678 94.0964H132.104C140.697 94.0964 148.632 89.5205 152.931 82.0877L161.27 67.6619C152.054 70.7528 142.301 72.0441 132.6 71.225C128.156 70.8497 123.74 70.1274 119.393 69.0702C115.045 70.1314 110.629 70.8497 106.185 71.225C96.4804 72.0441 86.7271 70.7528 77.5112 67.6619Z" fill="#FFDD94"/>
<path opacity="0.75" d="M77.5112 67.6215L85.8302 82.0594C90.1169 89.4962 98.048 94.0883 106.638 94.1004L132.063 94.1367C140.657 94.1488 148.6 89.581 152.907 82.1562L161.266 67.7426C152.042 70.8214 142.289 72.0965 132.588 71.2653C128.144 70.8819 123.728 70.1556 119.385 69.0903C115.037 70.1435 110.621 70.8577 106.173 71.2249C96.4763 72.032 86.7231 70.7286 77.5112 67.6215Z" fill="white"/>
<path d="M31.0019 46.712C30.9459 46.656 30.8419 46.58 30.6899 46.484C30.5459 46.388 30.3659 46.296 30.1499 46.208C29.9419 46.112 29.7139 46.032 29.4659 45.968C29.2179 45.904 28.9659 45.872 28.7099 45.872C28.2539 45.872 27.9139 45.956 27.6899 46.124C27.4659 46.292 27.3539 46.528 27.3539 46.832C27.3539 47.008 27.3939 47.156 27.4739 47.276C27.5619 47.388 27.6859 47.488 27.8459 47.576C28.0059 47.664 28.2059 47.744 28.4459 47.816C28.6939 47.888 28.9779 47.964 29.2979 48.044C29.7139 48.156 30.0899 48.276 30.4259 48.404C30.7699 48.532 31.0579 48.692 31.2899 48.884C31.5299 49.076 31.7139 49.308 31.8419 49.58C31.9699 49.844 32.0339 50.172 32.0339 50.564C32.0339 51.02 31.9459 51.412 31.7699 51.74C31.6019 52.06 31.3699 52.32 31.0739 52.52C30.7859 52.72 30.4499 52.868 30.0659 52.964C29.6899 53.052 29.2939 53.096 28.8779 53.096C28.2379 53.096 27.6059 53 26.9819 52.808C26.3579 52.616 25.7979 52.344 25.3019 51.992L26.0339 50.564C26.1059 50.636 26.2339 50.732 26.4179 50.852C26.6099 50.964 26.8339 51.08 27.0899 51.2C27.3459 51.312 27.6299 51.408 27.9419 51.488C28.2539 51.568 28.5739 51.608 28.9019 51.608C29.8139 51.608 30.2699 51.316 30.2699 50.732C30.2699 50.548 30.2179 50.392 30.1139 50.264C30.0099 50.136 29.8619 50.024 29.6699 49.928C29.4779 49.832 29.2459 49.744 28.9739 49.664C28.7019 49.584 28.3979 49.496 28.0619 49.4C27.6539 49.288 27.2979 49.168 26.9939 49.04C26.6979 48.904 26.4499 48.748 26.2499 48.572C26.0499 48.388 25.8979 48.18 25.7939 47.948C25.6979 47.708 25.6499 47.424 25.6499 47.096C25.6499 46.664 25.7299 46.28 25.8899 45.944C26.0499 45.608 26.2699 45.328 26.5499 45.104C26.8379 44.88 27.1699 44.712 27.5459 44.6C27.9219 44.48 28.3259 44.42 28.7579 44.42C29.3579 44.42 29.9099 44.516 30.4139 44.708C30.9179 44.892 31.3579 45.112 31.7339 45.368L31.0019 46.712ZM42.2493 44.48V53H40.6053V49.364H36.7413V53H35.0853V44.48H36.7413V47.924H40.6053V44.48H42.2493ZM49.4627 53.06C48.8387 53.06 48.2707 52.94 47.7587 52.7C47.2547 52.452 46.8187 52.128 46.4507 51.728C46.0907 51.32 45.8107 50.856 45.6107 50.336C45.4107 49.816 45.3107 49.284 45.3107 48.74C45.3107 48.172 45.4147 47.628 45.6227 47.108C45.8387 46.588 46.1307 46.128 46.4987 45.728C46.8747 45.328 47.3187 45.012 47.8307 44.78C48.3427 44.54 48.8987 44.42 49.4987 44.42C50.1147 44.42 50.6747 44.548 51.1787 44.804C51.6907 45.052 52.1267 45.38 52.4867 45.788C52.8467 46.196 53.1267 46.66 53.3267 47.18C53.5267 47.7 53.6267 48.228 53.6267 48.764C53.6267 49.332 53.5227 49.876 53.3147 50.396C53.1067 50.908 52.8187 51.364 52.4507 51.764C52.0827 52.156 51.6427 52.472 51.1307 52.712C50.6187 52.944 50.0627 53.06 49.4627 53.06ZM46.9907 48.74C46.9907 49.108 47.0467 49.464 47.1587 49.808C47.2707 50.152 47.4307 50.456 47.6387 50.72C47.8547 50.984 48.1147 51.196 48.4187 51.356C48.7307 51.516 49.0827 51.596 49.4747 51.596C49.8747 51.596 50.2267 51.516 50.5307 51.356C50.8427 51.188 51.1027 50.968 51.3107 50.696C51.5267 50.424 51.6867 50.12 51.7907 49.784C51.9027 49.44 51.9587 49.092 51.9587 48.74C51.9587 48.372 51.8987 48.016 51.7787 47.672C51.6667 47.328 51.5027 47.024 51.2867 46.76C51.0787 46.496 50.8187 46.288 50.5067 46.136C50.2027 45.976 49.8587 45.896 49.4747 45.896C49.0747 45.896 48.7187 45.98 48.4067 46.148C48.0947 46.308 47.8347 46.524 47.6267 46.796C47.4187 47.06 47.2587 47.364 47.1467 47.708C47.0427 48.044 46.9907 48.388 46.9907 48.74ZM60.297 51.596C60.689 51.596 61.017 51.516 61.281 51.356C61.553 51.196 61.769 50.988 61.929 50.732C62.097 50.476 62.213 50.184 62.277 49.856C62.349 49.52 62.385 49.176 62.385 48.824V44.48H64.029V48.824C64.029 49.408 63.957 49.956 63.813 50.468C63.677 50.98 63.457 51.428 63.153 51.812C62.857 52.196 62.473 52.5 62.001 52.724C61.529 52.948 60.965 53.06 60.309 53.06C59.629 53.06 59.049 52.944 58.569 52.712C58.097 52.472 57.713 52.16 57.417 51.776C57.121 51.384 56.905 50.932 56.769 50.42C56.641 49.908 56.577 49.376 56.577 48.824V44.48H58.233V48.824C58.233 49.184 58.265 49.532 58.329 49.868C58.401 50.196 58.517 50.488 58.677 50.744C58.845 51 59.061 51.208 59.325 51.368C59.589 51.52 59.913 51.596 60.297 51.596ZM67.497 53V44.48H69.153V51.548H73.497V53H67.497ZM76.3048 53V44.48H79.4008C80.0968 44.48 80.7048 44.592 81.2248 44.816C81.7528 45.04 82.1928 45.344 82.5448 45.728C82.8968 46.112 83.1608 46.564 83.3368 47.084C83.5128 47.596 83.6008 48.144 83.6008 48.728C83.6008 49.376 83.5008 49.964 83.3008 50.492C83.1088 51.012 82.8288 51.46 82.4608 51.836C82.0928 52.204 81.6488 52.492 81.1288 52.7C80.6168 52.9 80.0408 53 79.4008 53H76.3048ZM81.9328 48.728C81.9328 48.32 81.8768 47.944 81.7648 47.6C81.6528 47.256 81.4888 46.96 81.2728 46.712C81.0568 46.464 80.7888 46.272 80.4688 46.136C80.1568 46 79.8008 45.932 79.4008 45.932H77.9608V51.548H79.4008C79.8088 51.548 80.1688 51.476 80.4808 51.332C80.8008 51.188 81.0648 50.992 81.2728 50.744C81.4888 50.488 81.6528 50.188 81.7648 49.844C81.8768 49.5 81.9328 49.128 81.9328 48.728ZM91.3774 53V44.48H93.0334V53H91.3774ZM103.343 44.48H104.807L108.047 53H106.343L105.551 50.876H102.575L101.795 53H100.091L103.343 44.48ZM105.251 49.712L104.075 46.364L102.851 49.712H105.251ZM115.728 46.712C115.672 46.656 115.568 46.58 115.416 46.484C115.272 46.388 115.092 46.296 114.876 46.208C114.668 46.112 114.44 46.032 114.192 45.968C113.944 45.904 113.692 45.872 113.436 45.872C112.98 45.872 112.64 45.956 112.416 46.124C112.192 46.292 112.08 46.528 112.08 46.832C112.08 47.008 112.12 47.156 112.2 47.276C112.288 47.388 112.412 47.488 112.572 47.576C112.732 47.664 112.932 47.744 113.172 47.816C113.42 47.888 113.704 47.964 114.024 48.044C114.44 48.156 114.816 48.276 115.152 48.404C115.496 48.532 115.784 48.692 116.016 48.884C116.256 49.076 116.44 49.308 116.568 49.58C116.696 49.844 116.76 50.172 116.76 50.564C116.76 51.02 116.672 51.412 116.496 51.74C116.328 52.06 116.096 52.32 115.8 52.52C115.512 52.72 115.176 52.868 114.792 52.964C114.416 53.052 114.02 53.096 113.604 53.096C112.964 53.096 112.332 53 111.708 52.808C111.084 52.616 110.524 52.344 110.028 51.992L110.76 50.564C110.832 50.636 110.96 50.732 111.144 50.852C111.336 50.964 111.56 51.08 111.816 51.2C112.072 51.312 112.356 51.408 112.668 51.488C112.98 51.568 113.3 51.608 113.628 51.608C114.54 51.608 114.996 51.316 114.996 50.732C114.996 50.548 114.944 50.392 114.84 50.264C114.736 50.136 114.588 50.024 114.396 49.928C114.204 49.832 113.972 49.744 113.7 49.664C113.428 49.584 113.124 49.496 112.788 49.4C112.38 49.288 112.024 49.168 111.72 49.04C111.424 48.904 111.176 48.748 110.976 48.572C110.776 48.388 110.624 48.18 110.52 47.948C110.424 47.708 110.376 47.424 110.376 47.096C110.376 46.664 110.456 46.28 110.616 45.944C110.776 45.608 110.996 45.328 111.276 45.104C111.564 44.88 111.896 44.712 112.272 44.6C112.648 44.48 113.052 44.42 113.484 44.42C114.084 44.42 114.636 44.516 115.14 44.708C115.644 44.892 116.084 45.112 116.46 45.368L115.728 46.712ZM119.812 53V44.492H121.468V48.536L125.044 44.48H126.868L123.604 48.26L127.072 53H125.212L122.56 49.316L121.468 50.456V53H119.812ZM134.181 53V44.48H139.905V45.932H135.837V48.128H139.221V49.472H135.837V53H134.181ZM146.32 53.06C145.696 53.06 145.128 52.94 144.616 52.7C144.112 52.452 143.676 52.128 143.308 51.728C142.948 51.32 142.668 50.856 142.468 50.336C142.268 49.816 142.168 49.284 142.168 48.74C142.168 48.172 142.272 47.628 142.48 47.108C142.696 46.588 142.988 46.128 143.356 45.728C143.732 45.328 144.176 45.012 144.688 44.78C145.2 44.54 145.756 44.42 146.356 44.42C146.972 44.42 147.532 44.548 148.036 44.804C148.548 45.052 148.984 45.38 149.344 45.788C149.704 46.196 149.984 46.66 150.184 47.18C150.384 47.7 150.484 48.228 150.484 48.764C150.484 49.332 150.38 49.876 150.172 50.396C149.964 50.908 149.676 51.364 149.308 51.764C148.94 52.156 148.5 52.472 147.988 52.712C147.476 52.944 146.92 53.06 146.32 53.06ZM143.848 48.74C143.848 49.108 143.904 49.464 144.016 49.808C144.128 50.152 144.288 50.456 144.496 50.72C144.712 50.984 144.972 51.196 145.276 51.356C145.588 51.516 145.94 51.596 146.332 51.596C146.732 51.596 147.084 51.516 147.388 51.356C147.7 51.188 147.96 50.968 148.168 50.696C148.384 50.424 148.544 50.12 148.648 49.784C148.76 49.44 148.816 49.092 148.816 48.74C148.816 48.372 148.756 48.016 148.636 47.672C148.524 47.328 148.36 47.024 148.144 46.76C147.936 46.496 147.676 46.288 147.364 46.136C147.06 45.976 146.716 45.896 146.332 45.896C145.932 45.896 145.576 45.98 145.264 46.148C144.952 46.308 144.692 46.524 144.484 46.796C144.276 47.06 144.116 47.364 144.004 47.708C143.9 48.044 143.848 48.388 143.848 48.74ZM153.555 53V44.48H157.323C157.715 44.48 158.075 44.564 158.403 44.732C158.739 44.892 159.027 45.108 159.267 45.38C159.507 45.644 159.695 45.948 159.831 46.292C159.967 46.628 160.035 46.968 160.035 47.312C160.035 47.864 159.895 48.368 159.615 48.824C159.343 49.272 158.971 49.596 158.499 49.796L160.443 53H158.583L156.843 50.144H155.211V53H153.555ZM155.211 48.692H157.287C157.439 48.692 157.579 48.656 157.707 48.584C157.843 48.512 157.959 48.416 158.055 48.296C158.151 48.168 158.227 48.02 158.283 47.852C158.339 47.684 158.367 47.504 158.367 47.312C158.367 47.112 158.335 46.928 158.271 46.76C158.207 46.592 158.119 46.448 158.007 46.328C157.903 46.2 157.779 46.104 157.635 46.04C157.499 45.968 157.359 45.932 157.215 45.932H155.211V48.692ZM173.934 52.04C173.254 52.72 172.462 53.06 171.558 53.06C170.998 53.06 170.47 52.948 169.974 52.724C169.486 52.5 169.058 52.192 168.69 51.8C168.33 51.408 168.042 50.948 167.826 50.42C167.618 49.884 167.514 49.308 167.514 48.692C167.514 48.108 167.618 47.56 167.826 47.048C168.042 46.528 168.334 46.076 168.702 45.692C169.078 45.3 169.518 44.992 170.022 44.768C170.526 44.536 171.074 44.42 171.666 44.42C172.466 44.42 173.15 44.588 173.718 44.924C174.294 45.26 174.726 45.712 175.014 46.28L173.778 47.192C173.562 46.768 173.258 46.444 172.866 46.22C172.482 45.996 172.062 45.884 171.606 45.884C171.246 45.884 170.914 45.96 170.61 46.112C170.314 46.264 170.058 46.472 169.842 46.736C169.634 47 169.47 47.304 169.35 47.648C169.238 47.992 169.182 48.356 169.182 48.74C169.182 49.14 169.246 49.516 169.374 49.868C169.502 50.212 169.678 50.512 169.902 50.768C170.126 51.024 170.39 51.228 170.694 51.38C171.006 51.524 171.342 51.596 171.702 51.596C172.526 51.596 173.27 51.208 173.934 50.432V49.832H172.218V48.62H175.302V53H173.934V52.04ZM184.429 51.548V53H178.513V44.48H184.321V45.932H180.169V47.984H183.757V49.328H180.169V51.548H184.429ZM189.176 47.54V53H187.52V44.48H188.804L193.244 50.072V44.492H194.9V53H193.556L189.176 47.54ZM198.473 53V44.48H201.569C202.265 44.48 202.873 44.592 203.393 44.816C203.921 45.04 204.361 45.344 204.713 45.728C205.065 46.112 205.329 46.564 205.505 47.084C205.681 47.596 205.769 48.144 205.769 48.728C205.769 49.376 205.669 49.964 205.469 50.492C205.277 51.012 204.997 51.46 204.629 51.836C204.261 52.204 203.817 52.492 203.297 52.7C202.785 52.9 202.209 53 201.569 53H198.473ZM204.101 48.728C204.101 48.32 204.045 47.944 203.933 47.6C203.821 47.256 203.657 46.96 203.441 46.712C203.225 46.464 202.957 46.272 202.637 46.136C202.325 46 201.969 45.932 201.569 45.932H200.129V51.548H201.569C201.977 51.548 202.337 51.476 202.649 51.332C202.969 51.188 203.233 50.992 203.441 50.744C203.657 50.488 203.821 50.188 203.933 49.844C204.045 49.5 204.101 49.128 204.101 48.728ZM214.779 51.548V53H208.863V44.48H214.671V45.932H210.519V47.984H214.107V49.328H210.519V51.548H214.779ZM217.87 53V44.48H221.638C222.03 44.48 222.39 44.564 222.718 44.732C223.054 44.892 223.342 45.108 223.582 45.38C223.822 45.644 224.01 45.948 224.146 46.292C224.282 46.628 224.35 46.968 224.35 47.312C224.35 47.864 224.21 48.368 223.93 48.824C223.658 49.272 223.286 49.596 222.814 49.796L224.758 53H222.898L221.158 50.144H219.526V53H217.87ZM219.526 48.692H221.602C221.754 48.692 221.894 48.656 222.022 48.584C222.158 48.512 222.274 48.416 222.37 48.296C222.466 48.168 222.542 48.02 222.598 47.852C222.654 47.684 222.682 47.504 222.682 47.312C222.682 47.112 222.65 46.928 222.586 46.76C222.522 46.592 222.434 46.448 222.322 46.328C222.218 46.2 222.094 46.104 221.95 46.04C221.814 45.968 221.674 45.932 221.53 45.932H219.526V48.692Z" fill="#291477"/>
</svg>
