<svg width="210" height="108" viewBox="0 0 210 108" fill="none" xmlns="http://www.w3.org/2000/svg">
<path opacity="0.8" d="M125.927 83.2969L135.786 44.8606C136.936 40.3842 135.614 35.6315 132.323 32.3917L104.081 4.6076C100.79 1.36774 96.0253 0.138108 91.5914 1.38155L53.4759 12.0337C49.0351 13.2772 45.5926 16.8003 44.4428 21.2767L34.5903 59.7129C33.4405 64.1893 34.7624 68.942 38.0535 72.1819L66.3027 99.9659C69.5937 103.206 74.3582 104.435 78.7921 103.192L116.901 92.5398C121.342 91.2964 124.784 87.7733 125.927 83.2969Z" fill="url(#paint0_linear)"/>
<path opacity="0.8" d="M24.2835 40.3498L5.94184 52.6253C2.34097 55.0362 0.296122 59.1949 0.571523 63.5262L1.99672 85.6042C2.27901 89.9425 4.84024 93.7971 8.72339 95.7176L28.4903 105.52C32.3734 107.447 36.9864 107.143 40.5873 104.733L58.929 92.457C62.5298 90.0461 64.5747 85.8875 64.2993 81.5561L62.8741 59.4781C62.5918 55.1399 60.0306 51.2852 56.1474 49.3647L36.3805 39.5623C32.4974 37.6349 27.8913 37.9389 24.2835 40.3498Z" fill="url(#paint1_linear)"/>
<path d="M95.7707 41.0959C95.6743 40.9992 95.4884 40.861 95.2267 40.6883C94.9651 40.5156 94.6415 40.3498 94.2697 40.184C93.891 40.0182 93.4848 39.8801 93.0442 39.7695C92.6036 39.6521 92.156 39.5968 91.7016 39.5968C90.8961 39.5968 90.2902 39.7488 89.8909 40.0459C89.4915 40.3429 89.2919 40.7643 89.2919 41.3031C89.2919 41.614 89.3676 41.8765 89.5122 42.0837C89.6636 42.291 89.8771 42.4706 90.1594 42.6295C90.4417 42.7883 90.7997 42.9265 91.2334 43.0578C91.6672 43.189 92.1629 43.3203 92.7344 43.4653C93.4711 43.6657 94.1458 43.8798 94.7448 44.1078C95.3507 44.3357 95.8602 44.619 96.2801 44.9644C96.7001 45.3098 97.0237 45.7173 97.2509 46.194C97.4781 46.6707 97.5883 47.2578 97.5883 47.9555C97.5883 48.7638 97.4368 49.4615 97.127 50.0349C96.8172 50.6082 96.411 51.078 95.8946 51.4372C95.3782 51.7895 94.7792 52.052 94.1045 52.2178C93.4297 52.3836 92.7275 52.4665 91.9839 52.4665C90.8479 52.4665 89.7256 52.2938 88.6171 51.9553C87.5086 51.6168 86.5172 51.1263 85.6359 50.5046L86.9372 47.9624C87.068 48.0937 87.2952 48.2595 87.6257 48.4667C87.9562 48.674 88.3555 48.8812 88.8099 49.0885C89.2643 49.2957 89.7669 49.4684 90.3246 49.6135C90.8754 49.7585 91.4469 49.8276 92.0252 49.8276C93.6432 49.8276 94.4487 49.3095 94.4487 48.2664C94.4487 47.9417 94.3592 47.6585 94.1733 47.4305C93.9874 47.2026 93.7258 47.0022 93.3884 46.8295C93.0511 46.6568 92.638 46.5049 92.156 46.3598C91.6741 46.2147 91.137 46.0627 90.538 45.89C89.8151 45.6897 89.1886 45.4756 88.6516 45.2407C88.1214 45.0058 87.6739 44.7295 87.3227 44.4048C86.9647 44.087 86.7031 43.714 86.5241 43.2926C86.3451 42.8712 86.2556 42.3739 86.2556 41.7867C86.2556 41.0199 86.4002 40.336 86.6824 39.735C86.9647 39.134 87.3572 38.6366 87.8667 38.236C88.3693 37.8353 88.9545 37.5382 89.6223 37.331C90.2902 37.1238 91.0062 37.0201 91.7705 37.0201C92.8376 37.0201 93.8153 37.1859 94.7104 37.5244C95.6054 37.856 96.3834 38.2567 97.0513 38.7126L95.7707 41.0959Z" fill="#593EBF"/>
<path d="M109.906 52.2868H107.055V46.0074C107.055 45.1232 106.89 44.4739 106.566 44.0525C106.243 43.6311 105.781 43.4238 105.182 43.4238C104.928 43.4238 104.659 43.4791 104.37 43.5965C104.088 43.714 103.819 43.8729 103.564 44.0801C103.31 44.2873 103.076 44.5291 102.862 44.8193C102.649 45.1025 102.49 45.4203 102.394 45.7588V52.2937H99.5436V36.6954H102.394V43.1683C102.807 42.4429 103.365 41.8834 104.067 41.4896C104.769 41.0958 105.547 40.9024 106.401 40.9024C107.124 40.9024 107.716 41.0268 108.171 41.2755C108.625 41.5241 108.976 41.8557 109.238 42.2702C109.499 42.6847 109.671 43.1544 109.768 43.6794C109.864 44.2045 109.919 44.7502 109.919 45.3028V52.2868H109.906Z" fill="#593EBF"/>
<path d="M117.548 52.501C116.639 52.501 115.827 52.3421 115.097 52.0312C114.367 51.7204 113.761 51.2921 113.259 50.7601C112.756 50.2282 112.37 49.6134 112.095 48.9157C111.827 48.218 111.689 47.4857 111.689 46.7189C111.689 45.9383 111.827 45.1923 112.095 44.4946C112.364 43.7969 112.749 43.182 113.259 42.6501C113.761 42.1182 114.374 41.6899 115.097 41.379C115.82 41.0682 116.639 40.9093 117.548 40.9093C118.457 40.9093 119.269 41.0682 119.985 41.379C120.701 41.6899 121.314 42.1182 121.817 42.6501C122.319 43.182 122.705 43.7969 122.973 44.4946C123.242 45.1923 123.38 45.9314 123.38 46.7189C123.38 47.4857 123.242 48.218 122.973 48.9157C122.705 49.6134 122.319 50.2282 121.824 50.7601C121.328 51.2921 120.715 51.7204 119.992 52.0312C119.269 52.3421 118.457 52.501 117.548 52.501ZM114.629 46.712C114.629 47.2094 114.705 47.6653 114.849 48.066C115.001 48.4736 115.2 48.8259 115.469 49.1229C115.73 49.42 116.04 49.6549 116.398 49.8137C116.749 49.9795 117.135 50.0624 117.548 50.0624C117.961 50.0624 118.34 49.9795 118.698 49.8137C119.056 49.6479 119.359 49.42 119.627 49.1229C119.889 48.8259 120.095 48.4667 120.247 48.0522C120.398 47.6377 120.467 47.1818 120.467 46.6844C120.467 46.2008 120.392 45.7518 120.247 45.3373C120.095 44.9229 119.889 44.5706 119.627 44.2666C119.366 43.9696 119.056 43.7347 118.698 43.5758C118.34 43.4169 117.961 43.3271 117.548 43.3271C117.135 43.3271 116.749 43.41 116.398 43.5827C116.04 43.7554 115.737 43.9903 115.469 44.2873C115.207 44.5844 115.001 44.9436 114.849 45.3581C114.705 45.7795 114.629 46.2285 114.629 46.712Z" fill="#593EBF"/>
<path d="M128.702 52.501C127.552 52.501 126.677 52.1279 126.085 51.3888C125.486 50.6496 125.19 49.5512 125.19 48.1006V41.0958H128.041V47.4857C128.041 49.2058 128.66 50.0694 129.893 50.0694C130.444 50.0694 130.981 49.9036 131.497 49.5651C132.013 49.2335 132.44 48.7223 132.764 48.0384V41.0958H135.614V48.9986C135.614 49.2956 135.669 49.5098 135.773 49.6411C135.876 49.7723 136.055 49.8414 136.296 49.8552V52.2868C136.014 52.3421 135.773 52.3766 135.58 52.3904C135.387 52.4043 135.215 52.4112 135.057 52.4112C134.547 52.4112 134.134 52.2937 133.81 52.0589C133.494 51.824 133.301 51.4993 133.246 51.0848L133.184 50.1868C132.688 50.9536 132.048 51.5338 131.27 51.9138C130.492 52.2937 129.638 52.501 128.702 52.501Z" fill="#593EBF"/>
<path d="M138.43 36.6954H141.281V48.7016C141.281 49.1161 141.377 49.4338 141.577 49.6618C141.776 49.8897 142.059 50.0003 142.43 50.0003C142.603 50.0003 142.788 49.9726 142.995 49.9174C143.202 49.8621 143.394 49.7861 143.58 49.7032L143.966 51.8793C143.58 52.0658 143.133 52.2039 142.623 52.3076C142.114 52.4043 141.652 52.4595 141.239 52.4595C140.344 52.4595 139.656 52.2247 139.167 51.7411C138.678 51.2575 138.43 50.5875 138.43 49.7032V36.6954Z" fill="#593EBF"/>
<path d="M149.818 52.501C149.054 52.501 148.345 52.349 147.691 52.0519C147.037 51.7549 146.479 51.3404 146.011 50.8154C145.543 50.2904 145.178 49.6756 144.916 48.971C144.654 48.2664 144.524 47.5065 144.524 46.6982C144.524 45.8831 144.647 45.1301 144.895 44.4324C145.143 43.7347 145.487 43.1199 145.928 42.5949C146.369 42.0699 146.892 41.6554 147.505 41.3583C148.118 41.0613 148.785 40.9093 149.508 40.9093C150.335 40.9093 151.071 41.1096 151.732 41.5103C152.393 41.911 152.91 42.4291 153.274 43.0715V36.7092H156.125V49.0124C156.125 49.3095 156.173 49.5236 156.276 49.6549C156.373 49.7861 156.545 49.8552 156.786 49.869V52.3006C156.29 52.3973 155.884 52.4526 155.574 52.4526C155.065 52.4526 154.645 52.3214 154.321 52.0658C153.997 51.8102 153.811 51.4717 153.77 51.0641L153.708 50.3595C153.295 51.071 152.737 51.6098 152.035 51.9691C151.333 52.3283 150.589 52.501 149.818 52.501ZM150.562 50.0624C150.83 50.0624 151.106 50.0141 151.395 49.9243C151.677 49.8345 151.939 49.7032 152.18 49.5305C152.421 49.3578 152.634 49.1575 152.827 48.9295C153.02 48.7016 153.164 48.4529 153.261 48.1835V45.51C153.144 45.1992 152.985 44.909 152.779 44.6465C152.572 44.384 152.338 44.1561 152.076 43.9627C151.815 43.7692 151.539 43.6173 151.243 43.4998C150.947 43.3824 150.665 43.3271 150.383 43.3271C149.956 43.3271 149.563 43.4169 149.198 43.6034C148.834 43.79 148.531 44.0386 148.269 44.3633C148.014 44.6811 147.815 45.0541 147.67 45.4617C147.525 45.8693 147.457 46.3045 147.457 46.7466C147.457 47.2163 147.532 47.6515 147.691 48.0522C147.849 48.4529 148.062 48.7983 148.331 49.0953C148.599 49.3924 148.923 49.6272 149.302 49.7999C149.694 49.9795 150.107 50.0624 150.562 50.0624Z" fill="#593EBF"/>
<path d="M164.318 52.2869V37.1238H167.258V52.2869H164.318Z" fill="#593EBF"/>
<path d="M179.155 37.1238H181.751L187.5 52.2869H184.477L183.073 48.5082H177.792L176.408 52.2869H173.385L179.155 37.1238ZM182.543 46.4358L180.456 40.4742L178.288 46.4358H182.543Z" fill="#593EBF"/>
<path d="M192.973 52.501C192.037 52.501 191.121 52.349 190.226 52.052C189.331 51.7549 188.567 51.3266 187.927 50.7671L188.994 48.971C189.675 49.4546 190.336 49.8207 190.984 50.0694C191.631 50.3181 192.271 50.4424 192.911 50.4424C193.476 50.4424 193.924 50.3388 194.254 50.1246C194.578 49.9105 194.743 49.6065 194.743 49.2059C194.743 48.8052 194.55 48.5151 194.171 48.3286C193.786 48.142 193.166 47.9279 192.299 47.6861C191.576 47.4858 190.956 47.2924 190.447 47.1127C189.937 46.9331 189.524 46.719 189.214 46.4841C188.904 46.2492 188.677 45.9798 188.533 45.6759C188.388 45.3719 188.319 45.0058 188.319 44.5775C188.319 44.011 188.429 43.4929 188.65 43.037C188.87 42.5811 189.18 42.1942 189.579 41.8765C189.978 41.5587 190.44 41.31 190.97 41.1373C191.5 40.9646 192.078 40.8817 192.705 40.8817C193.545 40.8817 194.323 40.9991 195.06 41.2478C195.796 41.4965 196.464 41.8834 197.07 42.4222L195.92 44.1492C195.349 43.7209 194.805 43.41 194.268 43.2097C193.731 43.0094 193.207 42.9127 192.684 42.9127C192.202 42.9127 191.796 43.0094 191.472 43.2097C191.149 43.41 190.984 43.7278 190.984 44.1699C190.984 44.3703 191.025 44.5361 191.101 44.6604C191.176 44.7847 191.3 44.9022 191.472 44.9989C191.645 45.0956 191.865 45.1923 192.14 45.289C192.416 45.3788 192.76 45.4755 193.173 45.5792C193.937 45.7795 194.598 45.9798 195.142 46.1802C195.686 46.3805 196.134 46.6085 196.485 46.8641C196.829 47.1197 197.091 47.4167 197.249 47.7483C197.414 48.0799 197.497 48.4874 197.497 48.9572C197.497 50.0556 197.091 50.9191 196.285 51.5546C195.48 52.1901 194.364 52.501 192.973 52.501Z" fill="#593EBF"/>
<path d="M206.957 52.2868L203.721 47.4374L202.185 48.9572V52.2868H199.335V36.6954H202.185V46.1594L206.654 41.1166H209.697L205.545 45.8555L209.993 52.2868H206.957Z" fill="#593EBF"/>
<path d="M86.765 74.3925V59.2294H96.9204V61.813H89.7049V65.7229H95.7087V68.1131H89.7049V74.3925H86.765Z" fill="#593EBF"/>
<path d="M103.138 74.6067C102.229 74.6067 101.416 74.4478 100.687 74.1369C99.9567 73.8261 99.3508 73.3978 98.8482 72.8659C98.3456 72.3339 97.9601 71.7191 97.6847 71.0214C97.4161 70.3237 97.2784 69.5914 97.2784 68.8247C97.2784 68.0441 97.4161 67.298 97.6847 66.6003C97.9532 65.9026 98.3387 65.2878 98.8482 64.7558C99.3508 64.2239 99.9636 63.7956 100.687 63.4848C101.409 63.1739 102.229 63.015 103.138 63.015C104.046 63.015 104.859 63.1739 105.575 63.4848C106.291 63.7956 106.904 64.2239 107.406 64.7558C107.909 65.2878 108.294 65.9026 108.57 66.6003C108.838 67.298 108.976 68.0371 108.976 68.8247C108.976 69.5914 108.838 70.3237 108.57 71.0214C108.301 71.7191 107.916 72.3339 107.42 72.8659C106.924 73.3978 106.312 73.8261 105.589 74.1369C104.866 74.4478 104.04 74.6067 103.138 74.6067ZM100.218 68.8178C100.218 69.3151 100.294 69.7711 100.439 70.1717C100.59 70.5793 100.79 70.9316 101.058 71.2287C101.32 71.5257 101.63 71.7606 101.988 71.9195C102.339 72.0852 102.724 72.1681 103.138 72.1681C103.551 72.1681 103.929 72.0852 104.287 71.9195C104.639 71.7537 104.948 71.5257 105.21 71.2287C105.472 70.9316 105.678 70.5724 105.83 70.1579C105.981 69.7434 106.05 69.2875 106.05 68.7901C106.05 68.3066 105.974 67.8575 105.83 67.4431C105.678 67.0286 105.472 66.6763 105.21 66.3723C104.948 66.0753 104.639 65.8404 104.287 65.6815C103.929 65.5157 103.551 65.4328 103.138 65.4328C102.724 65.4328 102.346 65.5157 101.988 65.6884C101.63 65.8611 101.327 66.096 101.058 66.393C100.797 66.6901 100.59 67.0493 100.439 67.4638C100.294 67.8852 100.218 68.3342 100.218 68.8178Z" fill="#593EBF"/>
<path d="M117.527 65.6746C116.66 65.6884 115.889 65.8542 115.207 66.1789C114.525 66.4967 114.037 66.9802 113.741 67.6227V74.3925H110.89V63.2015H113.506V65.5917C113.706 65.2049 113.94 64.8595 114.209 64.5555C114.477 64.2516 114.766 63.9821 115.083 63.7542C115.393 63.5262 115.71 63.3535 116.033 63.2292C116.35 63.1117 116.66 63.0496 116.956 63.0496C117.114 63.0496 117.231 63.0496 117.307 63.0496C117.383 63.0496 117.458 63.0565 117.534 63.0703V65.6746H117.527Z" fill="#593EBF"/>
<path d="M134.492 72.6793C133.287 73.8882 131.883 74.4961 130.278 74.4961C129.287 74.4961 128.351 74.2958 127.476 73.8951C126.602 73.4945 125.844 72.9487 125.197 72.251C124.55 71.5533 124.04 70.7313 123.662 69.7849C123.283 68.8385 123.097 67.8161 123.097 66.7177C123.097 65.6815 123.283 64.7006 123.662 63.7818C124.04 62.863 124.557 62.0617 125.218 61.3709C125.879 60.6801 126.657 60.1344 127.552 59.7268C128.447 59.3192 129.418 59.1189 130.471 59.1189C131.889 59.1189 133.108 59.4159 134.12 60.0169C135.132 60.6179 135.897 61.4193 136.406 62.4278L134.217 64.0512C133.831 63.2982 133.301 62.718 132.612 62.3242C131.924 61.9305 131.173 61.7232 130.368 61.7232C129.728 61.7232 129.142 61.8614 128.612 62.1308C128.082 62.4002 127.628 62.7732 127.249 63.243C126.87 63.7127 126.581 64.2516 126.375 64.8664C126.168 65.4812 126.065 66.1236 126.065 66.8075C126.065 67.519 126.182 68.1822 126.409 68.8039C126.636 69.4257 126.946 69.9645 127.345 70.4135C127.745 70.8694 128.213 71.2286 128.764 71.4912C129.308 71.7537 129.9 71.8849 130.54 71.8849C132 71.8849 133.322 71.1941 134.499 69.8125V68.7418H131.456V66.5934H136.929V74.3925H134.499V72.6793H134.492Z" fill="#593EBF"/>
<path d="M144.331 74.6066C143.436 74.6066 142.63 74.4546 141.907 74.1438C141.184 73.8398 140.565 73.4184 140.055 72.8934C139.546 72.3684 139.153 71.7536 138.871 71.0559C138.589 70.3582 138.458 69.6259 138.458 68.8592C138.458 68.0647 138.595 67.3118 138.864 66.6071C139.132 65.9025 139.525 65.2808 140.034 64.7489C140.544 64.217 141.164 63.7887 141.9 63.4778C142.637 63.1669 143.449 63.0081 144.358 63.0081C145.267 63.0081 146.079 63.1669 146.795 63.4778C147.512 63.7887 148.124 64.2101 148.627 64.7351C149.13 65.2601 149.515 65.8749 149.777 66.5726C150.038 67.2703 150.169 67.9956 150.169 68.7486C150.169 68.9351 150.162 69.1147 150.155 69.2805C150.148 69.4532 150.128 69.5914 150.1 69.7088H141.48C141.522 70.151 141.632 70.5447 141.797 70.8832C141.969 71.2286 142.189 71.5187 142.458 71.7605C142.726 72.0023 143.029 72.1888 143.374 72.3132C143.718 72.4444 144.069 72.5066 144.441 72.5066C145.005 72.5066 145.542 72.3684 146.045 72.0921C146.548 71.8158 146.892 71.4497 147.078 70.9937L149.529 71.6776C149.116 72.5342 148.462 73.2319 147.56 73.7846C146.651 74.3303 145.577 74.6066 144.331 74.6066ZM147.222 67.8575C147.154 67.0147 146.844 66.3446 146.3 65.8403C145.756 65.3361 145.088 65.0805 144.31 65.0805C143.924 65.0805 143.566 65.1495 143.236 65.2808C142.899 65.419 142.609 65.6055 142.355 65.8473C142.1 66.089 141.886 66.3792 141.728 66.7246C141.563 67.07 141.466 67.443 141.439 67.8575H147.222Z" fill="#593EBF"/>
<path d="M162.273 74.3925H159.423V68.1131C159.423 67.2151 159.264 66.5588 158.954 66.1513C158.645 65.7368 158.211 65.5295 157.653 65.5295C157.371 65.5295 157.082 65.5848 156.779 65.7022C156.476 65.8197 156.2 65.9786 155.939 66.1858C155.677 66.393 155.436 66.6348 155.223 66.925C155.009 67.2082 154.851 67.526 154.755 67.8644V74.3994H151.904V63.2084H154.479V65.2808C154.892 64.5693 155.484 64.0167 156.269 63.616C157.054 63.2153 157.929 63.015 158.906 63.015C159.602 63.015 160.166 63.1463 160.607 63.4019C161.048 63.6575 161.385 63.996 161.626 64.4035C161.867 64.818 162.032 65.2878 162.128 65.8128C162.218 66.3378 162.266 66.8766 162.266 67.4154V74.3925H162.273Z" fill="#593EBF"/>
<path d="M169.385 74.6067C168.621 74.6067 167.912 74.4547 167.258 74.1577C166.604 73.8606 166.046 73.4461 165.578 72.9211C165.11 72.3961 164.745 71.7813 164.483 71.0767C164.221 70.3721 164.091 69.6122 164.091 68.8039C164.091 67.9888 164.215 67.2358 164.462 66.5381C164.71 65.8404 165.055 65.2256 165.495 64.7006C165.936 64.1756 166.459 63.7611 167.072 63.464C167.685 63.167 168.352 63.015 169.075 63.015C169.902 63.015 170.638 63.2153 171.299 63.616C171.96 64.0167 172.477 64.5348 172.842 65.1772V58.8149H175.692V71.1181C175.692 71.4152 175.74 71.6293 175.843 71.7606C175.94 71.8918 176.112 71.9609 176.353 71.9747V74.4063C175.857 74.5031 175.451 74.5583 175.141 74.5583C174.632 74.5583 174.212 74.4271 173.888 74.1715C173.564 73.9159 173.379 73.5774 173.337 73.1698L173.275 72.4652C172.862 73.1767 172.304 73.7155 171.602 74.0748C170.9 74.434 170.149 74.6067 169.385 74.6067ZM170.129 72.1681C170.397 72.1681 170.673 72.1198 170.962 72.03C171.244 71.9402 171.506 71.8089 171.747 71.6362C171.988 71.4635 172.201 71.2632 172.394 71.0352C172.587 70.8073 172.731 70.5586 172.828 70.2892V67.6158C172.711 67.3049 172.552 67.0148 172.346 66.7523C172.139 66.4897 171.905 66.2618 171.644 66.0684C171.382 65.8749 171.106 65.723 170.81 65.6055C170.514 65.4881 170.232 65.4328 169.95 65.4328C169.523 65.4328 169.13 65.5226 168.766 65.7091C168.401 65.8957 168.098 66.1444 167.836 66.469C167.574 66.7937 167.382 67.1598 167.237 67.5674C167.093 67.975 167.024 68.4102 167.024 68.8523C167.024 69.322 167.099 69.7572 167.258 70.1579C167.416 70.5586 167.63 70.904 167.898 71.201C168.167 71.4981 168.49 71.7329 168.869 71.9056C169.261 72.0852 169.674 72.1681 170.129 72.1681Z" fill="#593EBF"/>
<path d="M183.665 74.6066C182.77 74.6066 181.964 74.4546 181.241 74.1438C180.518 73.8398 179.899 73.4184 179.389 72.8934C178.88 72.3684 178.487 71.7536 178.205 71.0559C177.923 70.3582 177.792 69.6259 177.792 68.8592C177.792 68.0647 177.93 67.3118 178.198 66.6071C178.467 65.9025 178.859 65.2808 179.369 64.7489C179.878 64.217 180.498 63.7887 181.234 63.4778C181.971 63.1669 182.784 63.0081 183.692 63.0081C184.601 63.0081 185.414 63.1669 186.13 63.4778C186.846 63.7887 187.458 64.2101 187.961 64.7351C188.464 65.2601 188.849 65.8749 189.111 66.5726C189.372 67.2703 189.503 67.9956 189.503 68.7486C189.503 68.9351 189.496 69.1147 189.49 69.2805C189.483 69.4532 189.462 69.5914 189.434 69.7088H180.814C180.856 70.151 180.966 70.5447 181.131 70.8832C181.303 71.2286 181.524 71.5187 181.792 71.7605C182.061 72.0023 182.364 72.1888 182.708 72.3132C183.052 72.4444 183.403 72.5066 183.775 72.5066C184.34 72.5066 184.877 72.3684 185.379 72.0921C185.882 71.8158 186.226 71.4497 186.412 70.9937L188.863 71.6776C188.45 72.5342 187.796 73.2319 186.894 73.7846C185.992 74.3303 184.918 74.6066 183.665 74.6066ZM186.563 67.8575C186.495 67.0147 186.185 66.3446 185.641 65.8403C185.097 65.3361 184.429 65.0805 183.651 65.0805C183.265 65.0805 182.907 65.1495 182.577 65.2808C182.24 65.419 181.95 65.6055 181.696 65.8473C181.441 66.089 181.227 66.3792 181.069 66.7246C180.904 67.07 180.808 67.443 180.78 67.8575H186.563Z" fill="#593EBF"/>
<path d="M197.889 65.6746C197.022 65.6884 196.251 65.8542 195.569 66.1789C194.887 66.5036 194.399 66.9802 194.103 67.6227V74.3925H191.252V63.2015H193.868V65.5917C194.068 65.2049 194.302 64.8595 194.571 64.5555C194.839 64.2516 195.128 63.9821 195.445 63.7542C195.755 63.5262 196.072 63.3535 196.395 63.2292C196.719 63.1048 197.022 63.0496 197.318 63.0496C197.476 63.0496 197.593 63.0496 197.669 63.0496C197.745 63.0496 197.82 63.0565 197.896 63.0703V65.6746H197.889Z" fill="#593EBF"/>
<defs>
<linearGradient id="paint0_linear" x1="98.2654" y1="1.31235" x2="55.4446" y2="167.162" gradientUnits="userSpaceOnUse">
<stop stop-color="#FFDD94"/>
<stop offset="0.00253999" stop-color="#FFDD95"/>
<stop offset="0.1925" stop-color="#EED5B6"/>
<stop offset="0.3851" stop-color="#E1CED1"/>
<stop offset="0.5822" stop-color="#D8CAE4"/>
<stop offset="0.7845" stop-color="#D3C7EF"/>
<stop offset="1" stop-color="#D1C6F3"/>
</linearGradient>
<linearGradient id="paint1_linear" x1="4.02487" y1="91.562" x2="96.7471" y2="29.9086" gradientUnits="userSpaceOnUse">
<stop stop-color="#FFDD94"/>
<stop offset="0.00253999" stop-color="#FFDD95"/>
<stop offset="0.1925" stop-color="#EED5B6"/>
<stop offset="0.3851" stop-color="#E1CED1"/>
<stop offset="0.5822" stop-color="#D8CAE4"/>
<stop offset="0.7845" stop-color="#D3C7EF"/>
<stop offset="1" stop-color="#D1C6F3"/>
</linearGradient>
</defs>
</svg>
