<svg width="30" height="33" viewBox="0 0 30 33" fill="none" xmlns="http://www.w3.org/2000/svg">
  <path fill-rule="evenodd" clip-rule="evenodd" d="M19.0601 5.44566C19.0601 5.89044 19.1136 6.32292 19.2147 6.73698L9.23323 12.4274C8.25246 11.4771 6.9163 10.8916 5.44566 10.8916C2.44251 10.8916 0 13.3338 0 16.3372C0 19.3406 2.44251 21.7829 5.44566 21.7829C6.91654 21.7829 8.25289 21.1971 9.2337 20.2466L19.2148 25.9367C19.1137 26.351 19.0601 26.7838 19.0601 27.2288C19.0601 30.2319 21.5023 32.6744 24.5057 32.6744C27.5091 32.6744 29.9514 30.2319 29.9514 27.2288C29.9514 24.2254 27.5091 21.7829 24.5057 21.7829C22.9254 21.7829 21.5004 22.4591 20.5049 23.5375L10.6563 17.9229C10.8093 17.421 10.8916 16.8886 10.8916 16.3372C10.8916 15.7856 10.8092 15.2529 10.656 14.7508L20.5044 9.13637C21.4999 10.2151 22.9251 10.8916 24.5057 10.8916C27.5091 10.8916 29.9514 8.44906 29.9514 5.44566C29.9514 2.44251 27.5091 0 24.5057 0C21.5023 0 19.0601 2.44251 19.0601 5.44566Z" fill="#593EBF"/>
</svg>
